<svg xmlns:dc="http://purl.org/dc/elements/1.1/" xmlns:cc="http://creativecommons.org/ns#" xmlns:rdf="http://www.w3.org/1999/02/22-rdf-syntax-ns#" xmlns:svg="http://www.w3.org/2000/svg" xmlns="http://www.w3.org/2000/svg" xmlns:xlink="http://www.w3.org/1999/xlink" xmlns:sodipodi="http://sodipodi.sourceforge.net/DTD/sodipodi-0.dtd" xmlns:inkscape="http://www.inkscape.org/namespaces/inkscape" version="1.1" width="566.9290161132812" height="157.77999877929688" enable-background="new 0 -0.001 566.929 157.78" xml:space="preserve" inkscape:version="0.92.3 (2405546, 2018-03-11)" sodipodi:docname="lr-rmame2003plus 2.svg"><rect id="backgroundrect" width="100%" height="100%" x="0" y="0" fill="none" stroke="none"/><metadata id="metadata5613"><rdf:RDF><cc:Work rdf:about=""><dc:format>image/svg+xml</dc:format><dc:type rdf:resource="http://purl.org/dc/dcmitype/StillImage"/><dc:title/></cc:Work></rdf:RDF></metadata><defs id="defs5611"><linearGradient id="linearGradient1222" inkscape:collect="always"><stop id="stop1216" offset="0" style="stop-color:#5dbcea;stop-opacity:1"/><stop style="stop-color:#4296c3;stop-opacity:1" offset="0.46177718" id="stop1218"/><stop id="stop1220" offset="1" style="stop-color:#06416e;stop-opacity:1"/></linearGradient><linearGradient inkscape:collect="always" id="linearGradient1098"><stop style="stop-color:#5dbcea;stop-opacity:1" offset="0" id="stop1094"/><stop id="stop1102" offset="0.45189309" style="stop-color:#4296c3;stop-opacity:1"/><stop style="stop-color:#06416e;stop-opacity:1" offset="1" id="stop1096"/></linearGradient><linearGradient inkscape:collect="always" xlink:href="#linearGradient1098" id="linearGradient1100" x1="306.3116149902344" y1="177.97471618652344" x2="543.3881225585938" y2="177.8209991455078" gradientUnits="userSpaceOnUse"/><linearGradient inkscape:collect="always" xlink:href="#linearGradient1098" id="linearGradient4855" gradientUnits="userSpaceOnUse" x1="306.3116149902344" y1="177.97471618652344" x2="543.3881225585938" y2="177.8209991455078" gradientTransform="translate(-22.120315,-9.5647533)"/><linearGradient inkscape:collect="always" xlink:href="#linearGradient1222" id="linearGradient4857" gradientUnits="userSpaceOnUse" x1="306.3116149902344" y1="177.97471618652344" x2="543.3881225585938" y2="177.8209991455078" gradientTransform="translate(-22.120315,-9.5647533)"/><linearGradient inkscape:collect="always" xlink:href="#linearGradient1098" id="linearGradient4859" gradientUnits="userSpaceOnUse" x1="306.3116149902344" y1="177.97471618652344" x2="543.3881225585938" y2="177.8209991455078" gradientTransform="translate(-22.120315,-9.5647533)"/><linearGradient inkscape:collect="always" xlink:href="#linearGradient1098" id="linearGradient4861" gradientUnits="userSpaceOnUse" x1="306.3116149902344" y1="177.97471618652344" x2="543.3881225585938" y2="177.8209991455078" gradientTransform="translate(-22.120315,-9.5647533)"/><linearGradient inkscape:collect="always" xlink:href="#linearGradient1098" id="linearGradient4863" gradientUnits="userSpaceOnUse" x1="306.3116149902344" y1="177.97471618652344" x2="543.3881225585938" y2="177.8209991455078" gradientTransform="translate(-22.120315,-9.5647533)"/><linearGradient inkscape:collect="always" xlink:href="#linearGradient1098" id="linearGradient4865" gradientUnits="userSpaceOnUse" x1="306.3116149902344" y1="177.97471618652344" x2="543.3881225585938" y2="177.8209991455078" gradientTransform="translate(-22.120315,-9.5647533)"/><linearGradient inkscape:collect="always" xlink:href="#linearGradient1098" id="linearGradient4867" gradientUnits="userSpaceOnUse" x1="306.3116149902344" y1="177.97471618652344" x2="543.3881225585938" y2="177.8209991455078" gradientTransform="translate(-22.120315,-9.5647533)"/><linearGradient inkscape:collect="always" xlink:href="#linearGradient1098" id="linearGradient4869" gradientUnits="userSpaceOnUse" x1="306.3116149902344" y1="177.97471618652344" x2="543.3881225585938" y2="177.8209991455078" gradientTransform="translate(-22.120315,-9.5647533)"/><linearGradient inkscape:collect="always" xlink:href="#linearGradient1098" id="linearGradient4871" gradientUnits="userSpaceOnUse" x1="306.3116149902344" y1="177.97471618652344" x2="543.3881225585938" y2="177.8209991455078"/><linearGradient inkscape:collect="always" xlink:href="#linearGradient1222" id="linearGradient1402" gradientUnits="userSpaceOnUse" gradientTransform="translate(-22.120315,-9.5647533)" x1="306.3116149902344" y1="177.97471618652344" x2="543.3881225585938" y2="177.8209991455078"/></defs><sodipodi:namedview pagecolor="#ffffff" bordercolor="#666666" borderopacity="1" objecttolerance="10" gridtolerance="10" guidetolerance="10" inkscape:pageopacity="0" inkscape:pageshadow="2" inkscape:window-width="1920" inkscape:window-height="1137" id="namedview5609" showgrid="false" inkscape:zoom="1.6264245" inkscape:cx="312.35848" inkscape:cy="96.062042" inkscape:window-x="1912" inkscape:window-y="-8" inkscape:window-maximized="1" inkscape:current-layer="g1206"/><linearGradient id="SVGID_1_" gradientUnits="userSpaceOnUse" x1="558.12841796875" y1="955.5977172851562" x2="11.770000457763672" y2="955.5977172851562" gradientTransform="translate(-0.1797,-875.4102)"><stop offset="0" style="stop-color:#013A67" id="stop5278"/><stop offset="1" style="stop-color:#6CD1FF" id="stop5280"/></linearGradient><linearGradient id="SVGID_2_" gradientUnits="userSpaceOnUse" x1="64.70950317382812" y1="938.7891235351562" x2="60.76499938964844" y2="934.8447875976562" gradientTransform="translate(-0.1797,-875.4102)"><stop offset="0" style="stop-color:#08406F" id="stop5285"/><stop offset="1" style="stop-color:#60C5F5" id="stop5287"/></linearGradient><linearGradient id="SVGID_3_" gradientUnits="userSpaceOnUse" x1="123.29540252685547" y1="1013.9102172851562" x2="119.67009735107422" y2="1010.284912109375" gradientTransform="translate(-0.1797,-875.4102)"><stop offset="0" style="stop-color:#08406F" id="stop5292"/><stop offset="1" style="stop-color:#60C5F5" id="stop5294"/></linearGradient><linearGradient id="SVGID_4_" gradientUnits="userSpaceOnUse" x1="25.723600387573242" y1="994.05078125" x2="25.723600387573242" y2="989.73828125" gradientTransform="translate(-0.1797,-875.4102)"><stop offset="0" style="stop-color:#08406F" id="stop5299"/><stop offset="1" style="stop-color:#60C5F5" id="stop5301"/></linearGradient><linearGradient id="SVGID_5_" gradientUnits="userSpaceOnUse" x1="121.18550109863281" y1="1033.181640625" x2="121.18550109863281" y2="1028.724609375" gradientTransform="translate(-0.1797,-875.4102)"><stop offset="0" style="stop-color:#08406F" id="stop5306"/><stop offset="1" style="stop-color:#60C5F5" id="stop5308"/></linearGradient><linearGradient id="SVGID_6_" gradientUnits="userSpaceOnUse" x1="427.69378662109375" y1="994.0233764648438" x2="427.69378662109375" y2="989.5565795898438" gradientTransform="translate(-0.1797,-875.4102)"><stop offset="0" style="stop-color:#08406F" id="stop5313"/><stop offset="1" style="stop-color:#60C5F5" id="stop5315"/></linearGradient><linearGradient id="SVGID_7_" gradientUnits="userSpaceOnUse" x1="251.0644989013672" y1="994.8944702148438" x2="251.0644989013672" y2="990.416015625" gradientTransform="translate(-0.1797,-875.4102)"><stop offset="0" style="stop-color:#08406F" id="stop5320"/><stop offset="1" style="stop-color:#60C5F5" id="stop5322"/></linearGradient><linearGradient id="SVGID_8_" gradientUnits="userSpaceOnUse" x1="522.2808227539062" y1="882.1875" x2="522.2808227539062" y2="877.32421875" gradientTransform="translate(-0.1797,-875.4102)"><stop offset="0" style="stop-color:#08406F" id="stop5327"/><stop offset="1" style="stop-color:#60C5F5" id="stop5329"/></linearGradient><linearGradient id="SVGID_9_" gradientUnits="userSpaceOnUse" x1="515.01318359375" y1="906.7147827148438" x2="515.01318359375" y2="902.5048828125" gradientTransform="translate(-0.1797,-875.4102)"><stop offset="0" style="stop-color:#08406F" id="stop5334"/><stop offset="1" style="stop-color:#60C5F5" id="stop5336"/></linearGradient><linearGradient id="SVGID_10_" gradientUnits="userSpaceOnUse" x1="459.3695983886719" y1="950.2305297851562" x2="459.3695983886719" y2="946.51171875" gradientTransform="translate(-0.1797,-875.4102)"><stop offset="0" style="stop-color:#08406F" id="stop5341"/><stop offset="1" style="stop-color:#60C5F5" id="stop5343"/></linearGradient><linearGradient id="SVGID_11_" gradientUnits="userSpaceOnUse" x1="490.1606140136719" y1="925.111328125" x2="490.1606140136719" y2="919.5565795898438" gradientTransform="translate(-0.1797,-875.4102)"><stop offset="0" style="stop-color:#08406F" id="stop5348"/><stop offset="1" style="stop-color:#60C5F5" id="stop5350"/></linearGradient><linearGradient id="SVGID_12_" gradientUnits="userSpaceOnUse" x1="74.38919830322266" y1="968.8251953125" x2="70.84600067138672" y2="965.281982421875" gradientTransform="translate(-0.1797,-875.4102)"><stop offset="0" style="stop-color:#08406F" id="stop5355"/><stop offset="1" style="stop-color:#60C5F5" id="stop5357"/></linearGradient><linearGradient id="SVGID_13_" gradientUnits="userSpaceOnUse" x1="120.25540161132812" y1="904.3690795898438" x2="114.88919830322266" y2="904.3690795898438" gradientTransform="translate(-0.1797,-875.4102)"><stop offset="0" style="stop-color:#08406F" id="stop5362"/><stop offset="1" style="stop-color:#60C5F5" id="stop5364"/></linearGradient><linearGradient id="SVGID_14_" gradientUnits="userSpaceOnUse" x1="173.0811004638672" y1="919.9608764648438" x2="166.4208984375" y2="919.9608764648438" gradientTransform="translate(-0.1797,-875.4102)"><stop offset="0" style="stop-color:#08406F" id="stop5369"/><stop offset="1" style="stop-color:#60C5F5" id="stop5371"/></linearGradient><linearGradient id="SVGID_15_" gradientUnits="userSpaceOnUse" x1="255.98829650878906" y1="925.2158203125" x2="249.99510192871094" y2="925.2158203125" gradientTransform="translate(-0.1797,-875.4102)"><stop offset="0" style="stop-color:#08406F" id="stop5376"/><stop offset="1" style="stop-color:#60C5F5" id="stop5378"/></linearGradient><linearGradient id="SVGID_16_" gradientUnits="userSpaceOnUse" x1="349.2768859863281" y1="904.625" x2="343.5757141113281" y2="904.625" gradientTransform="translate(-0.1797,-875.4102)"><stop offset="0" style="stop-color:#08406F" id="stop5383"/><stop offset="1" style="stop-color:#60C5F5" id="stop5385"/></linearGradient><linearGradient id="SVGID_17_" gradientUnits="userSpaceOnUse" x1="400.96038818359375" y1="918.4462890625" x2="395.1636047363281" y2="918.4462890625" gradientTransform="translate(-0.1797,-875.4102)"><stop offset="0" style="stop-color:#08406F" id="stop5390"/><stop offset="1" style="stop-color:#60C5F5" id="stop5392"/></linearGradient><linearGradient id="SVGID_18_" gradientUnits="userSpaceOnUse" x1="101.76509857177734" y1="968.9384765625" x2="96.654296875" y2="968.9384765625" gradientTransform="translate(-0.1797,-875.4102)"><stop offset="0" style="stop-color:#08406F" id="stop5397"/><stop offset="1" style="stop-color:#60C5F5" id="stop5399"/></linearGradient><linearGradient id="SVGID_19_" gradientUnits="userSpaceOnUse" x1="121.24849700927734" y1="973.837890625" x2="117.69640350341797" y2="970.2858276367188" gradientTransform="translate(-0.1797,-875.4102)"><stop offset="0" style="stop-color:#08406F" id="stop5404"/><stop offset="1" style="stop-color:#60C5F5" id="stop5406"/></linearGradient><linearGradient id="SVGID_20_" gradientUnits="userSpaceOnUse" x1="553.4359741210938" y1="892.5" x2="549.7672729492188" y2="888.8311157226562" gradientTransform="translate(-0.1797,-875.4102)"><stop offset="0" style="stop-color:#08406F" id="stop5411"/><stop offset="1" style="stop-color:#60C5F5" id="stop5413"/></linearGradient><linearGradient id="SVGID_21_" gradientUnits="userSpaceOnUse" x1="145.9940948486328" y1="969.87890625" x2="140.595703125" y2="969.87890625" gradientTransform="translate(-0.1797,-875.4102)"><stop offset="0" style="stop-color:#08406F" id="stop5418"/><stop offset="1" style="stop-color:#60C5F5" id="stop5420"/></linearGradient><linearGradient id="SVGID_22_" gradientUnits="userSpaceOnUse" x1="148.7769012451172" y1="907.0098266601562" x2="144.28909301757812" y2="902.52197265625" gradientTransform="translate(-0.1797,-875.4102)"><stop offset="0" style="stop-color:#08406F" id="stop5425"/><stop offset="1" style="stop-color:#60C5F5" id="stop5427"/></linearGradient><linearGradient id="SVGID_23_" gradientUnits="userSpaceOnUse" x1="215.845703125" y1="922.3212890625" x2="211.68800354003906" y2="918.16357421875" gradientTransform="translate(-0.1797,-875.4102)"><stop offset="0" style="stop-color:#08406F" id="stop5432"/><stop offset="1" style="stop-color:#60C5F5" id="stop5434"/></linearGradient><linearGradient id="SVGID_24_" gradientUnits="userSpaceOnUse" x1="304.3158874511719" y1="927.8104858398438" x2="299.93170166015625" y2="923.42626953125" gradientTransform="translate(-0.1797,-875.4102)"><stop offset="0" style="stop-color:#08406F" id="stop5439"/><stop offset="1" style="stop-color:#60C5F5" id="stop5441"/></linearGradient><linearGradient id="SVGID_25_" gradientUnits="userSpaceOnUse" x1="376.97119140625" y1="906.861328125" x2="372.7633056640625" y2="902.6530151367188" gradientTransform="translate(-0.1797,-875.4102)"><stop offset="0" style="stop-color:#08406F" id="stop5446"/><stop offset="1" style="stop-color:#60C5F5" id="stop5448"/></linearGradient><linearGradient id="SVGID_26_" gradientUnits="userSpaceOnUse" x1="488.73779296875" y1="935.2645874023438" x2="485.2815856933594" y2="931.80859375" gradientTransform="translate(-0.1797,-875.4102)"><stop offset="0" style="stop-color:#08406F" id="stop5453"/><stop offset="1" style="stop-color:#60C5F5" id="stop5455"/></linearGradient><linearGradient id="SVGID_27_" gradientUnits="userSpaceOnUse" x1="499.80810546875" y1="979.3770141601562" x2="495.8485107421875" y2="975.41748046875" gradientTransform="translate(-0.1797,-875.4102)"><stop offset="0" style="stop-color:#08406F" id="stop5460"/><stop offset="1" style="stop-color:#60C5F5" id="stop5462"/></linearGradient><linearGradient id="SVGID_28_" gradientUnits="userSpaceOnUse" x1="441.83740234375" y1="921.61328125" x2="437.5546875" y2="917.3306274414062" gradientTransform="translate(-0.1797,-875.4102)"><stop offset="0" style="stop-color:#08406F" id="stop5467"/><stop offset="1" style="stop-color:#60C5F5" id="stop5469"/></linearGradient><linearGradient id="SVGID_29_" gradientUnits="userSpaceOnUse" x1="486.85888671875" y1="916.6494140625" x2="481.74481201171875" y2="911.5352783203125" gradientTransform="translate(-0.1797,-875.4102)"><stop offset="0" style="stop-color:#08406F" id="stop5474"/><stop offset="1" style="stop-color:#60C5F5" id="stop5476"/></linearGradient><linearGradient id="SVGID_30_" gradientUnits="userSpaceOnUse" x1="185.9770965576172" y1="992.330078125" x2="182.335205078125" y2="988.6881713867188" gradientTransform="translate(-0.1797,-875.4102)"><stop offset="0" style="stop-color:#08406F" id="stop5481"/><stop offset="1" style="stop-color:#60C5F5" id="stop5483"/></linearGradient><linearGradient id="SVGID_31_" gradientUnits="userSpaceOnUse" x1="303.0278015136719" y1="969.1395874023438" x2="299.3872985839844" y2="965.4990844726562" gradientTransform="translate(-0.1797,-875.4102)"><stop offset="0" style="stop-color:#08406F" id="stop5488"/><stop offset="1" style="stop-color:#60C5F5" id="stop5490"/></linearGradient><linearGradient id="SVGID_32_" gradientUnits="userSpaceOnUse" x1="349.8891906738281" y1="973.0850219726562" x2="346.3799133300781" y2="969.5756225585938" gradientTransform="translate(-0.1797,-875.4102)"><stop offset="0" style="stop-color:#08406F" id="stop5495"/><stop offset="1" style="stop-color:#60C5F5" id="stop5497"/></linearGradient><linearGradient id="SVGID_33_" gradientUnits="userSpaceOnUse" x1="370.80419921875" y1="993.6395874023438" x2="366.38128662109375" y2="989.2169189453125" gradientTransform="translate(-0.1797,-875.4102)"><stop offset="0" style="stop-color:#08406F" id="stop5502"/><stop offset="1" style="stop-color:#60C5F5" id="stop5504"/></linearGradient><linearGradient id="SVGID_34_" gradientUnits="userSpaceOnUse" x1="229.45700073242188" y1="971.7686157226562" x2="223.4188995361328" y2="971.7686157226562" gradientTransform="translate(-0.1797,-875.4102)"><stop offset="0" style="stop-color:#08406F" id="stop5509"/><stop offset="1" style="stop-color:#60C5F5" id="stop5511"/></linearGradient><linearGradient id="SVGID_35_" gradientUnits="userSpaceOnUse" x1="330.30419921875" y1="968.5186157226562" x2="325.09228515625" y2="968.5186157226562" gradientTransform="translate(-0.1797,-875.4102)"><stop offset="0" style="stop-color:#08406F" id="stop5516"/><stop offset="1" style="stop-color:#60C5F5" id="stop5518"/></linearGradient><linearGradient id="SVGID_36_" gradientUnits="userSpaceOnUse" x1="374.97021484375" y1="967.8065795898438" x2="368.72509765625" y2="967.8065795898438" gradientTransform="translate(-0.1797,-875.4102)"><stop offset="0" style="stop-color:#08406F" id="stop5523"/><stop offset="1" style="stop-color:#60C5F5" id="stop5525"/></linearGradient><linearGradient id="SVGID_37_" gradientUnits="userSpaceOnUse" x1="440.63720703125" y1="959.6748046875" x2="436.2190856933594" y2="955.2567749023438" gradientTransform="translate(-0.1797,-875.4102)"><stop offset="0" style="stop-color:#08406F" id="stop5530"/><stop offset="1" style="stop-color:#60C5F5" id="stop5532"/></linearGradient><linearGradient id="SVGID_38_" gradientUnits="userSpaceOnUse" x1="472.92041015625" y1="969.5098266601562" x2="472.92041015625" y2="963.7080078125" gradientTransform="translate(-0.1797,-875.4102)"><stop offset="0" style="stop-color:#08406F" id="stop5537"/><stop offset="1" style="stop-color:#60C5F5" id="stop5539"/></linearGradient><g class="currentLayer" style=""><title>Layer 1</title>

<g aria-label="2003 PLUS" style="font-style:normal;font-variant:normal;font-weight:normal;font-stretch:normal;font-size:40px;line-height:25px;font-family:'namco regular';-inkscape-font-specification:'namco regular, ';letter-spacing:0px;word-spacing:0px;fill:url(#linearGradient1100);fill-opacity:1;stroke:none;stroke-width:1px;stroke-linecap:butt;stroke-linejoin:miter;stroke-opacity:1" id="g1092" stroke-width="0" class=""><g style="fill:url(#linearGradient4871)" id="g1132" stroke-width="0"/></g><g id="g5615" stroke-width="0" class=""><polygon id="polygon5282" points="133.66092780384088,55.94539875722694 140.45752796564602,55.94539875722694 140.12960619395517,90.50538105086207 168.35598646613835,61.61924957531119 175.10495606506538,61.61924957531119 175.10495606506538,91.04411393063901 144.04047689448453,121.88450428869965 173.80887579105092,121.44336759979251 232.3798620605712,62.20951472115348 240.2687604108405,62.20951472115348 240.2687604108405,91.30957271054149 276.7752041374097,91.53130858755185 312.0800305046869,56.00551477030422 318.8945844579521,55.562823356920944 318.7891967743053,89.14606340122054 346.99916606590705,60.93529589858508 353.66382313519716,60.93529589858508 354.1057461215405,89.38263170714117 353.52953306397103,90.86297363717222 438.7700366387835,90.86297363717222 455.0889012842126,74.32393379600762 402.0894995116796,73.42292628609584 401.60776128243015,65.73078099884106 409.8651710311351,57.0337892857051 429.861453476924,57.031448263792754 447.2320266840725,39.437587433557155 436.7330259079117,38.994109722737676 436.7330259079117,31.590073942667004 445.6509731574206,22.67368588523334 481.2431078424488,22.89542325144339 497.7735579798027,5.70365974024719 436.8751074719148,5.481140544200002 379.65328846695047,62.92626057504867 371.6410367279768,63.368951988431945 371.8643451998596,8.103745546087055 339.6927234983068,40.93822715535998 331.99746876209974,41.85094573163224 331.99746876209974,8.394971948221894 266.130976607501,73.56424537985777 257.9414743646503,74.43558207515025 258.6379313619718,7.382313925367953 201.07178556153394,65.83306519033431 193.5123815778279,65.86975907069063 192.62620054002764,9.733991806091637 161.56875634878133,41.01240121350884 152.93031996744776,41.45509560529149 153.25746139850116,8.055337620970874 71.19390028430212,90.78255089712502 98.22257979237747,90.33985948374175 " style="fill:url(#SVGID_1_)" stroke-width="0"/><path id="path5289" d="M151.692020641397,11.392346710240929 L72.74450861249602,90.33985948374175 L63.788301589157015,93.70731526066947 c0,0 -0.4715847726895177,0.030450012179636277 -0.21158854013039452,-0.34744243391201834 c0,0 91.55303639905333,-91.57801921304917 91.71855796617365,-91.7177776255362 c0.1655231377606201,-0.1413192799118832 0.3646193750464022,-0.021861547429630646 0.3646193750464022,-0.021861547429630646 z" style="fill:url(#SVGID_2_)" inkscape:connector-curvature="0" stroke-width="0"/><path id="path5296" d="m175.99112518926813,91.48680534402229 l-29.29291232761466,29.295253349527 l-8.63921448817149,3.479889608906717 c0,0 -0.4497232281684802,0.05075001739080065 -0.18426160947909764,-0.31777320156739464 l34.298425216919895,-34.15788646379542 z" style="fill:url(#SVGID_3_)" inkscape:connector-curvature="0" stroke-width="0"/><polygon id="polygon5303" points="63.788301589157015,93.70731526066947 72.76480863806734,90.33985948374175 98.22257979237747,90.33985948374175 100.38765276137269,93.70731526066947 " style="fill:url(#SVGID_4_)" stroke-width="0"/><polygon id="polygon5310" points="138.05822473424314,124.25882470610668 146.69821584005285,120.77893435260012 173.14444254385853,120.77893435260012 175.18459846447513,124.25882470610668 " style="fill:url(#SVGID_5_)" stroke-width="0"/><polygon id="polygon5317" points="351.2176756383524,93.66281201713991 354.1924056298885,90.19932073061727 438.107164072866,90.19776004934238 440.6509077605806,93.68545380922342 " style="fill:url(#SVGID_6_)" stroke-width="0"/><path id="path5324" d="m278.4585478123536,94.36550578276228 l-40.230711749169586,-0.022642315630270637 c-0.25999625582786834,0.0039038475475345336 -0.6324233186978567,-0.2615577980463346 -0.6324233186978567,-0.2615577980463346 l3.5610897111919826,-3.212866424730123 h35.17679093474817 z" style="fill:url(#SVGID_7_)" inkscape:connector-curvature="0" stroke-width="0"/><path id="path5331" d="m434.86931036654096,2.5696508136153184 h69.21678043750262 c0.6129040991388912,0 0.6129040991388912,0.24438085691195077 0.6129040991388912,0.24438085691195077 l-8.254295087553771,3.5525014965809874 h-58.68576186801147 z" style="fill:url(#SVGID_8_)" inkscape:connector-curvature="0" stroke-width="0"/><polygon id="polygon5338" points="446.82679757808546,25.51724865729284 445.20905017107725,22.23020817441386 480.57947280629014,22.23020817441386 483.01156225806335,25.51724865729284 " style="fill:url(#SVGID_9_)" stroke-width="0"/><polygon id="polygon5345" points="412.63925221326826,59.493214486984016 409.42324804479176,56.59031157488562 429.4195543177757,56.58875089361072 431.9078521226402,59.493214486984016 " style="fill:url(#SVGID_10_)" stroke-width="0"/><path id="path5352" d="m446.12644483437543,39.88028480373919 h-10.602850116527975 l-0.9314580136436561,-4.33170922536479 h19.883856804408197 c0.2701462453447814,-0.03357309079938253 0.34431937274383095,0.11399234926058632 0.34431937274383095,0.11399234926058632 z" style="fill:url(#SVGID_11_)" inkscape:connector-curvature="0" stroke-width="0"/><path id="path5359" d="M137.7787079092691,56.22491558220099 L100.38765276137269,93.70887594194437 L98.22257979237747,90.34142016501664 L134.60721889791967,54.14103675869228 c1.5615390539169312,-1.8059198875601368 3.6500976874507955,-1.3515120094675126 3.6500976874507955,-1.3515120094675126 z" style="fill:url(#SVGID_12_)" inkscape:connector-curvature="0" stroke-width="0"/><path id="path5366" d="M151.7060727296698,41.41761840589834 V11.376730962293834 l3.9530362728458783,-9.758838001743527 c0,0 0.23657316908836457,0.058557716848759434 0.23657316908836457,0.4458193842566871 c0,0.3849193773489734 0,41.88594231236971 0,41.88594231236971 l-0.24594239913041704,1.8043584616853963 c0,0.0007807695640430282 -3.5103396472636916,0.019519238464820954 -3.9436669729975904,-4.336393875288934 z" style="fill:url(#SVGID_13_)" inkscape:connector-curvature="0" stroke-width="0"/><path id="path5373" d="m197.14060813403466,70.44194761266135 c0,0 -5.105451963587001,1.5225006147990001 -5.169474892050431,-4.391828589141369 c-0.06246156076055254,-5.709767708502426 -0.010150004059878759,-54.10030157840538 -0.010150004059878759,-54.10030157840538 l4.070932489287003,-10.849573275133253 c0,0 0.14210005102111634,-0.02108077777469408 0.14210005102111634,0.5660579256598837 l-0.013273082679625015,63.861481346661094 z" style="fill:url(#SVGID_14_)" inkscape:connector-curvature="0" stroke-width="0"/><path id="path5380" d="m261.87187740831087,78.3019554889488 c0,0 -4.597951696604014,0.45050403418083107 -4.653386410456449,-4.753324740138368 l-0.025765394250016893,-62.510753400830254 l3.6313590877542197,-9.424669037354022 c0,0 0.45518863756748473,0.1194577353908457 0.45518863756748473,0.7081579650466274 l-0.01249231302468845,71.15933421045065 z" style="fill:url(#SVGID_15_)" inkscape:connector-curvature="0" stroke-width="0"/><path id="path5387" d="m334.7082887414108,45.91172820813358 c0,0 -3.8007860810610055,0.3529078200422777 -4.4511672399805775,-3.5626515093666455 V11.334569485276461 l3.429920630215719,-9.48400768819323 c0,0 0.4395732619203123,0.10462311921853384 0.4395732619203123,0.6917617833871041 v38.77847995248294 z" style="fill:url(#SVGID_16_)" inkscape:connector-curvature="0" stroke-width="0"/><path id="path5394" d="m375.0615973658423,67.70144490513349 c0,0 -3.85544008197607,0.5020348110464923 -4.526120894167036,-3.4143052545685464 V11.424357802172722 l3.7867321312885736,-9.793972690024646 c0,0 0.2092462384370677,0.17255006610934576 0.2092462384370677,1.3335543088582682 v60.2957058686452 z" style="fill:url(#SVGID_17_)" inkscape:connector-curvature="0" stroke-width="0"/><path id="path5401" d="m138.47125128980588,95.40861272707343 c0,0 -0.6503810193071011,-0.053873096010546906 -0.6316425592229962,-0.897104224449869 c-0.0007807695640430282,-0.7159656528702136 -0.06090002435927255,-38.28581397590983 -0.06090002435927255,-38.28581397590983 c0,0 -0.9509773262776022,-1.2312735611392966 0.47861170103824335,-3.435385993077233 c0.42708092417258214,0.10228080589083444 2.728789407367856,0.5676194446096048 3.2019356990070946,3.3229551394976227 v31.51966496936143 z" style="fill:url(#SVGID_18_)" inkscape:connector-curvature="0" stroke-width="0"/><path id="path5408" d="m172.10992530335807,62.44296166452432 c0,0 -32.393345664965636,32.43941256816947 -32.70096964488471,32.743912207139374 c-0.2701462453447814,0.29591165704635713 -0.938484988529872,0.22017701069758644 -0.938484988529872,0.22017701069758644 l2.9880049037208636,-7.778807029402344 l28.153766895309218,-28.176411665792102 c0,0 1.0462311921853384,-1.3483889715680704 2.991128127770267,-1.2781196880808139 z" style="fill:url(#SVGID_19_)" inkscape:connector-curvature="0" stroke-width="0"/><path id="path5415" d="M504.53504876972147,3.917258979171038 L483.0123723826946,25.51724865729284 L480.5802352765313,22.229427833776413 L496.43923505775456,6.361067687903017 L504.70136259107676,2.814812453270875 c0,0.0007807695640430282 0.27248857030685336,0.6613117915676199 -0.16630390886985325,1.102446525900163 z" style="fill:url(#SVGID_20_)" inkscape:connector-curvature="0" stroke-width="0"/><path id="path5422" d="m172.17316267898514,89.78394719634343 l-0.06168079546850569,-27.34645387308001 c0,0 -1.0157811538283639,-2.0557660840648566 0.49266555773569465,-4.259878422927812 c0.46299632539107094,-0.005465386857407661 2.888847286976315,0.3287039738279134 3.3877591531983455,3.237070387288213 l-0.0007807695640430282,30.07524253584802 z" style="fill:url(#SVGID_21_)" inkscape:connector-curvature="0" stroke-width="0"/><path id="path5429" d="m191.96176729283525,11.949034870677622 l-32.37226753255641,32.373047873193855 c-1.551389041131273,1.550608235118922 -3.9389823230734464,1.4334928246901484 -3.9389823230734464,1.4334928246901484 c-1.4014812673834527,-2.7568971207627584 0.24594239913041704,-4.735367225679084 0.24594239913041704,-4.735367225679084 c0,0 39.431202133314855,-39.421054726628654 39.715403980512974,-39.71774500242532 c0.25843471360940207,-0.32558088939098084 0.4223963207859285,-0.20612315400013514 0.4223963207859285,-0.20612315400013514 z" style="fill:url(#SVGID_22_)" inkscape:connector-curvature="0" stroke-width="0"/><path id="path5436" d="m257.19194229038476,11.040219486792296 l-58.070513908173325,58.06973356753588 c-1.2101927295556294,1.2109735355679803 -1.9808122437284368,1.329650464946475 -1.9808122437284368,1.329650464946475 c-2.952089502502375,-1.466285188009195 -0.9470734823658091,-4.883713480477184 -0.9470734823658091,-4.883713480477184 c0,0 62.970624221834896,-62.957352474199524 63.254823090633636,-63.25404274999619 c0.73626567844153,-0.853381135407794 1.3749351660132518,-0.6894195049625225 1.3749351660132518,-0.6894195049625225 z" style="fill:url(#SVGID_23_)" inkscape:connector-curvature="0" stroke-width="0"/><path id="path5443" d="M330.25713043662836,11.334569485276461 L264.5452291234269,77.04491607400178 c-1.115719669660244,1.118061994622316 -2.673354879665382,1.2554774306224061 -2.673354879665382,1.2554774306224061 c-2.4320970839216187,-1.2148773794797734 -0.6058771707901656,-4.821251977888494 -0.6058771707901656,-4.821251977888494 c0,0 70.74552731425047,-70.65964218974113 71.0297261830492,-70.95711280617525 c0.7347041129543186,-0.8572849793195871 1.3905505416604242,-0.6730233233029992 1.3905505416604242,-0.6730233233029992 z" style="fill:url(#SVGID_24_)" inkscape:connector-curvature="0" stroke-width="0"/><path id="path5450" d="m370.5354787054748,11.424357802172722 l-33.19285528082037,33.193635621457815 c-1.115719669660244,1.118061994622316 -2.634316440547451,1.2937350637279863 -2.634316440547451,1.2937350637279863 c-2.289216191985034,-1.4897082514799536 -0.45909248147927784,-4.671343924915732 -0.45909248147927784,-4.671343924915732 c0,0 38.71367593878222,-38.79643672234238 38.99709446694351,-39.09312997653842 c0.8174657341893052,-0.8065349153912962 1.0751196185176113,-0.515307908269083 1.0751196185176113,-0.515307908269083 z" style="fill:url(#SVGID_25_)" inkscape:connector-curvature="0" stroke-width="0"/><path id="path5457" d="M454.83828684681794,36.56435533607805 L431.9078521226402,59.493214486984016 L429.4187680203395,56.58719021233583 L446.12644483437543,39.88028480373919 L454.82032114176036,35.66334782616627 c0,0 0.323238587697654,0.22954624073963892 0.017957699154947826,0.9010080683616621 z" style="fill:url(#SVGID_26_)" inkscape:connector-curvature="0" stroke-width="0"/><path id="path5464" d="m463.1737544864627,71.31406464859128 l-22.523638980117084,22.36982699015755 l-2.5437470384138976,-3.486136057005524 l15.653648079199911,-15.653648079199911 l9.594876371298255,-4.200540144388526 c0.0007807695640430282,0.0023423086012355487 0.30996551374380843,0.33963474608843214 -0.1811385250421651,0.9704965458365677 z" style="fill:url(#SVGID_27_)" inkscape:connector-curvature="0" stroke-width="0"/><path id="path5471" d="M437.7589534446015,6.367313763701901 L377.7083936720901,66.41864233555316 c-1.1165003825976143,1.118061994622316 -2.6507125291319937,1.2835851440173087 -2.6507125291319937,1.2835851440173087 c-1.9121044791909014,-2.4141393833123743 -0.5356078873029091,-4.668221073166251 -0.5356078873029091,-4.668221073166251 l60.34489711279821,-60.46279407383918 z" style="fill:url(#SVGID_28_)" inkscape:connector-curvature="0" stroke-width="0"/><path id="path5478" d="M446.82679757808546,25.51724865729284 L436.9297670573287,35.500167280958294 c-2.163512287720323,1.781716111152008 -1.4061659173075967,4.378555352306307 -1.4061659173075967,4.378555352306307 c-1.7567314356565475,-0.16396159554215384 -2.439904771745205,-1.612289117845222 -2.663985579817094,-2.884943349989541 c-0.22251931239091327,-1.2726543252192997 0.23657316908836457,-2.6717932676406804 1.0524773610592035,-3.4876974828802645 l11.29695417833966,-11.274311641656311 z" style="fill:url(#SVGID_29_)" inkscape:connector-curvature="0" stroke-width="0"/><path id="path5485" d="m173.14600322513343,120.78049503387501 l60.8320977265098,-60.85551985923075 c0,0 1.1219658385341091,-1.4623813440974018 3.3315437264085404,-1.382742853836838 l-0.35603090447921026,4.077959278023258 c0,0 -61.42001589364099,61.295089910064235 -61.769018776140456,61.64019108937646 z" style="fill:url(#SVGID_30_)" inkscape:connector-curvature="0" stroke-width="0"/><path id="path5492" d="m276.3324948536301,90.8676556809969 l37.19820378806912,-37.210695195067046 c0,0 1.1219658385341091,-1.4608198251476807 3.3315437264085404,-1.382742853836838 l-0.6691194793912061,4.388705365091965 l-37.730687985947725,37.703361171640154 z" style="fill:url(#SVGID_31_)" inkscape:connector-curvature="0" stroke-width="0"/><path id="path5499" d="m319.8955410942435,87.1558790653944 l28.715921907807115,-28.723731270980352 c0.6574079476558268,-0.6581887071306873 1.3889890227107031,-1.382742853836838 2.651493242069364,-1.382742853836838 l-0.08354233998954319,4.295013111208931 l-33.63633299163985,33.60666217702055 c-0.444257865306966,0.4395732619203123 -0.7956041896682677,0.31152703269352955 -0.7956041896682677,0.31152703269352955 z" style="fill:url(#SVGID_32_)" inkscape:connector-curvature="0" stroke-width="0"/><path id="path5506" d="m344.77008431584545,93.25134614285207 l5.660579070448875,-5.6847830330069655 l4.338736386400967,1.816069900345795 l-0.5730848540086093,0.8174657341893052 l-2.977074177997835,3.4642742332595446 l-0.21236932287400023,0.23423086739503773 h-6.027540584307388 c-0.2654616419581277,0.010930773714815323 -0.40678094513875607,-0.21158854013039452 -0.40678094513875607,-0.21158854013039452 c0,0 -0.12101927760931197,-0.11477312036981946 0.19753468343294323,-0.4356694180085192 z" style="fill:url(#SVGID_33_)" inkscape:connector-curvature="0" stroke-width="0"/><path id="path5513" d="m237.023103298141,92.68997147099162 l-0.07026926021851132,-30.0713378542614 c0,0 -1.3569774654040074,-1.5740313916646613 0.3568116639540708,-4.077959278023258 c0.5254578745172509,-0.007807695095069067 3.2807936624802494,0.37320782234484895 3.8476322080025227,3.6750819906463335 l-0.0007807695640430282,28.649557212831496 l-3.5610897111919826,3.212866424730123 c0,0.0023423086012355487 -0.5699617695716768,-0.3708655206515221 -0.5723040479962584,-1.3882082166983523 z" style="fill:url(#SVGID_34_)" inkscape:connector-curvature="0" stroke-width="0"/><path id="path5520" d="m316.2446667891545,94.72543939098477 l-0.06246156076055254,-38.0625144392252 c0,0 -1.1492927459166609,-2.093243097308047 0.6800502516517248,-4.388705365091965 c0.4653386503531429,-0.007026925440132503 2.532035599753499,0.3685232189581953 3.0332896047876403,3.671178425959482 v31.21126064880491 l-3.144939559279919,8.112195653154401 c-0.0031230782561721127,-0.0015615391280860563 -0.47236557870186857,-0.11165004756725949 -0.5059386549582854,-0.5434155751264953 z" style="fill:url(#SVGID_35_)" inkscape:connector-curvature="0" stroke-width="0"/><path id="path5527" d="M350.4306633862943,87.56578425840735 V62.09005707883762 c0,0 -1.6497659449384514,-2.6382201913842636 0.8307387848744057,-5.040647949886278 c0.5410732967019136,-0.006246156512344225 3.2261396615651847,0.1873846822816576 3.5072167955142106,3.375266629300654 v28.957181192750568 z" style="fill:url(#SVGID_36_)" inkscape:connector-curvature="0" stroke-width="0"/><path id="path5534" d="m412.63925221326826,59.493214486984016 l-10.502131073908686,10.523992525354743 l-3.0012781405559252,3.7547206670568585 c-3.0418780055485968,-1.9191314540771174 -1.5248428466860915,-5.367009784902081 -0.7120618089584205,-6.187598650065809 l10.999481328106015,-10.99245453936976 z" style="fill:url(#SVGID_37_)" inkscape:connector-curvature="0" stroke-width="0"/><path id="path5541" d="m453.7623698549414,74.54488933238054 h-51.83606875886608 c-1.9534854294208657,-0.1530308232816351 -2.790470197019175,-0.7745233580846005 -2.790470197019175,-0.7745233580846005 c-0.009369234404942195,-2.7881280582070644 3.0012781405559252,-3.7547206670568585 3.0012781405559252,-3.7547206670568585 l60.70170935847091,0.0007807695640430282 c0.4239578397356496,-0.0007807695640430282 0.5168694272188041,0.32948473330277395 0.5168694272188041,0.32948473330277395 z" style="fill:url(#SVGID_38_)" inkscape:connector-curvature="0" stroke-width="0"/><g id="g5543" stroke-width="0"><path id="path5545" d="m62.14400100708008,111.98824815178159 v-7.433706594689966 h2.245493102942959 l1.3491697775804212,5.070317275305882 l1.3335543088582682,-5.070317275305882 h2.250958465804473 v7.433706594689966 H67.92950308270633 v-5.852648228139088 l-1.4756543947825023,5.852648228139088 H65.0086443314983 l-1.470189031920988,-5.852648228139088 v5.852648228139088 z" inkscape:connector-curvature="0" stroke-width="0"/><path id="path5547" d="m75.59197606614214,104.55298385421611 h1.5006390702779626 v4.024867075282856 c0,0.6371079220845104 0.01873846880988439,1.0540388800089247 0.05543463822901318,1.242985092874676 c0.06480386827106566,0.3052808870884096 0.2170539262606539,0.5473194190382884 0.45909248147927784,0.7323618345297369 c0.24203855521862394,0.18504238058833078 0.5715232885213979,0.27639241421864646 0.9915772843452544,0.27639241421864646 c0.425519405222861,0 0.7471964507020488,-0.08588464750005631 0.9634695709503518,-0.2607770153027289 c0.21627316678579334,-0.17411160832781203 0.3458808916935521,-0.38726167904230024 0.3903847634792328,-0.6410117659963035 c0.04372309485926129,-0.2529693274791427 0.06558463938029879,-0.6738040827778597 0.06558463938029879,-1.2617235994962712 v-4.113093966304376 h1.5006390702779626 v3.904628347729698 c0,0.8932003805380759 -0.040600016239515035,1.5225006147990001 -0.12101927760931197,1.8918046397695463 c-0.08120003247903007,0.3685232189581953 -0.2311077829581052,0.6792694921768643 -0.44894246869361965,0.9314580136436561 c-0.2178347090042596,0.2529693274791427 -0.5090617393952179,0.4544078780926242 -0.8744618739164807,0.6035348458280936 c-0.36540013452126274,0.14990775047907512 -0.8416695105974341,0.22564239682784581 -1.4303697867907061,0.22564239682784581 c-0.7097194839963485,0 -1.2484504557361902,-0.08120003247903007 -1.614631442807294,-0.24438085691195077 c-0.366961676739729,-0.16474236665138697 -0.6566271881809662,-0.3763309067817815 -0.8697772239923367,-0.6386694875717218 c-0.2131500823488608,-0.2615577980463346 -0.3529078200422777,-0.5371694527901205 -0.42083475529871706,-0.8252734220128914 c-0.0975961908698082,-0.425519405222861 -0.14678466604214258,-1.0563812049709966 -0.14678466604214258,-1.8863390907580708 z" inkscape:connector-curvature="0" stroke-width="0"/><path id="path5549" d="m87.92891582624316,111.98824815178159 v-7.3728065179760165 h1.5006390702779626 v6.121233210490345 h3.7320785026734313 v1.2523542996479833 h-5.232717479876413 z" inkscape:connector-curvature="0" stroke-width="0"/><path id="path5551" d="m99.92153325846971,111.98824815178159 v-6.1758868391054875 H97.71586172753155 v-1.2570389495721273 h5.907302229054153 v1.2570389495721273 h-2.2009893009635135 v6.1758868391054875 z" inkscape:connector-curvature="0" stroke-width="0"/><path id="path5553" d="m109.33214946295107,111.98824815178159 v-7.433706594689966 h1.5006390702779626 v7.433706594689966 z" inkscape:connector-curvature="0" stroke-width="0"/><path id="path5555" d="m117.05083526707722,111.98824815178159 v-7.433706594689966 h2.40867402045086 c0.9127196000970415,0 1.507665952089198,0.03747693761976878 1.7848391490514501,0.11243080704212005 c0.425519405222861,0.11399234926058632 0.7823310459081867,0.35368860278588343 1.069654255656097,0.7300195095676649 c0.2873231864791652,0.37398860508845466 0.43098476808437525,0.8572849793195871 0.43098476808437525,1.4475466813875997 c0,0.4559693970423453 -0.08276156888031005,0.8393272787103427 -0.24828470082374388,1.153196589828454 c-0.1655231377606201,0.3091847310002027 -0.3763309067817815,0.5551271533993649 -0.6316425592229962,0.7323618345297369 c-0.2553116291724695,0.17879622334883827 -0.5145271022567321,0.2951308743027514 -0.7784272019963936,0.3529078200422777 c-0.3583732061725371,0.07026926021851132 -0.8775849118159229,0.10618466143700012 -1.5568544039927872,0.10618466143700012 h-0.978304233660154 v2.806085758816309 zm1.5006390702779626,-6.1758868391054875 v2.1088584729552196 h0.8213695781010983 c0.5910425546178537,0 0.986892727496091,-0.04138078444015503 1.1867696660848708,-0.11711543369751887 c0.1998770083950152,-0.07651541164081754 0.35603090447921026,-0.19831546617654894 0.469242494264936,-0.3646193750464022 c0.11321157815135319,-0.16630390886985325 0.1694269816724132,-0.3583732061725371 0.1694269816724132,-0.577769457395263 c0,-0.2701462453447814 -0.0796384902605638,-0.4942271232229061 -0.23813471130683084,-0.6683387199163455 c-0.1592769805211276,-0.17567313891190572 -0.35993474839100337,-0.2826385598237664 -0.6035348458280936,-0.32948473330277395 c-0.17879622334883827,-0.03357309079938253 -0.5395117312147022,-0.049188480989520666 -1.0798042684417553,-0.049188480989520666 z" inkscape:connector-curvature="0" stroke-width="0"/><path id="path5557" d="m128.80454039307142,111.98824815178159 v-7.3728065179760165 H130.30518309327363 v6.121233210490345 h3.7320785026734313 v1.2523542996479833 h-5.232717479876413 z" inkscape:connector-curvature="0" stroke-width="0"/><path id="path5559" d="m139.89459261251068,111.98824815178159 v-7.433706594689966 h5.511452102713406 v1.2562581435597764 h-4.010813125510424 v1.645862194101639 h3.7320785026734313 v1.2523542996479833 h-3.7320785026734313 v2.0237546198331415 h4.152912932209716 v1.2523542996479833 z" inkscape:connector-curvature="0" stroke-width="0"/></g><g id="g5561" stroke-width="0"><path id="path5563" d="m210.4636676339178,111.98824815178159 h-1.6325891434165385 l-0.6488194538198897,-1.689585283143714 h-2.971608815136321 l-0.6136848586137518,1.689585283143714 h-1.5919890922739057 l2.8950933627751994,-7.433706594689966 h1.5865237294123915 zm-2.763143382711604,-2.942720388804048 l-1.0251503606016712,-2.75767801985009 l-1.0040696220929846,2.75767801985009 z" inkscape:connector-curvature="0" stroke-width="0"/><path id="path5565" d="m216.0524077113314,111.98824815178159 v-7.433706594689966 h3.158993509052351 c0.7948233836559169,0 1.371812035038829,0.06714618159876506 1.7317467601610872,0.20143852734473633 c0.35993474839100337,0.133511592088297 0.6480386943450291,0.3724270628699884 0.8643118611308225,0.7120618089584205 c0.21627316678579334,0.34197704778175897 0.3248001299161203,0.7323618345297369 0.3248001299161203,1.1711542904376984 c0,0.5574694318239466 -0.16396159554215384,1.0181234787904359 -0.4918847982608341,1.382742853836838 c-0.3271424316094471,0.3630578328279359 -0.8174657341893052,0.5918233140927143 -1.470189031920988,0.6862964205255899 c0.3248001299161203,0.18894622450012388 0.5918233140927143,0.398192451302819 0.8034118774918539,0.62383487139941 c0.21158854013039452,0.2272039390463121 0.4957886421726272,0.6308617997481356 0.8541618483451643,1.2086312106059083 l0.9072541441605466,1.4491082003373208 h-1.7949891618371083 l-1.0852696313032695,-1.6177544807067363 c-0.3849193773489734,-0.5769886979204024 -0.6496002598322406,-0.9423888324416652 -0.7909195397441238,-1.0915158001771346 c-0.1413192799118832,-0.1475654371513757 -0.2927885726094246,-0.2514077852606764 -0.45128479365569163,-0.3091847310002027 c-0.15849620941189446,-0.053873096010546906 -0.41068478905054917,-0.08120003247903007 -0.7557848980004955,-0.08120003247903007 h-0.30371934486994334 v3.105901120161988 h-1.5006390702779626 zm1.5006390702779626,-4.291109174222157 h1.1102543067987298 c0.7198694967820067,0 1.1695927714879772,-0.02888847286976315 1.3483889715680704,-0.0897884972290357 c0.1795769944580714,-0.06011925325003942 0.3193347437858609,-0.16630390886985325 0.42083475529871706,-0.31386935765560153 c0.1015000347816013,-0.14678466604214258 0.15225005217240195,-0.33573090217663903 0.15225005217240195,-0.5574694318239466 c0,-0.24984624304221015 -0.06636541048953193,-0.4520655531305522 -0.1998770083950152,-0.6058771707901656 c-0.133511592088297,-0.15068852158830826 -0.32167704547918774,-0.24828470082374388 -0.5652771196475328,-0.28966548817249205 c-0.1218000487185451,-0.016396159845074698 -0.48641943539931987,-0.024203854940143765 -1.0954196440889277,-0.024203854940143765 h-1.1711542904376984 z" inkscape:connector-curvature="0" stroke-width="0"/><path id="path5567" d="m233.08959080552813,109.25321974231338 l1.4553543692111859,0.46299632539107094 c-0.22330009513451898,0.8127810842651613 -0.594165592517296,1.415535124080904 -1.1125965386858212,1.8059198875601368 c-0.5184309461685253,0.39350784791616533 -1.1774004593115635,0.5910425546178537 -1.9753468808669226,0.5910425546178537 c-0.986892727496091,0 -1.7981121997365506,-0.33807320386996587 -2.4336586959463204,-1.0118773099165708 c-0.6355464031347893,-0.6714618043532781 -0.9533195581646936,-1.5958928431107182 -0.9533195581646936,-2.765485707673676 c0,-1.2375197300131617 0.3193347437858609,-2.1963046510393696 0.9587850141011884,-2.880258700065397 c0.6386694875717218,-0.6847348550383785 1.4787775257569251,-1.0251503606016712 2.520323974943139,-1.0251503606016712 c0.9095964691226186,0 1.6474236199763794,0.26858472639506026 2.2158239636733157,0.8041925904292242 c0.33807320386996587,0.3169924188237889 0.5910425546178537,0.7745233580846005 0.7604695013871492,1.3702505160891079 l-1.4858044075681605,0.3529078200422777 c-0.08822695501056943,-0.38335783513050714 -0.2709270280883871,-0.687857939475311 -0.550442503475221,-0.9119387940846906 c-0.279515498655579,-0.2217385529160527 -0.6175887025255449,-0.33416935995817276 -1.0165619598407147,-0.33416935995817276 c-0.5512232629500815,0 -0.9978234532191195,0.19675392395808267 -1.341362089756835,0.5933848330424354 c-0.34353859000022524,0.3958501728782373 -0.515307908269083,1.0353003733873294 -0.515307908269083,1.9214737790391894 c0,0.9392657014672423 0.1694269816724132,1.6099467928831501 0.5075001739080065,2.008139244185969 c0.33807320386996587,0.398192451302819 0.777646442521533,0.5988502424414399 1.3179389332110958,0.5988502424414399 c0.39897321077767955,0 0.7417310413030442,-0.12648466373957135 1.0290542045134643,-0.37945399121871404 c0.2881039459540258,-0.2576539541345415 0.4942271232229061,-0.6558463821686153 0.619150221475266,-1.200823522782322 z" inkscape:connector-curvature="0" stroke-width="0"/><path id="path5569" d="m247.32301594617365,111.98824815178159 h-1.6325891434165385 l-0.6496002598322406,-1.689585283143714 h-2.971608815136321 l-0.6136848586137518,1.689585283143714 h-1.5919890922739057 l2.8950933627751994,-7.433706594689966 h1.5873044423497618 zm-2.763143382711604,-2.942720388804048 l-1.0251503606016712,-2.75767801985009 l-1.0040696220929846,2.75767801985009 z" inkscape:connector-curvature="0" stroke-width="0"/><path id="path5571" d="m252.9016175520992,104.55298385421611 h2.743624070077658 c0.6183694620004054,0 1.0899542812274134,0.04840770988028753 1.4147544111435337,0.14288082213034947 c0.4364501774833798,0.12882697706727075 0.8096579532907384,0.3568116639540708 1.1204042265094074,0.6847348550383785 c0.310746273218669,0.3271424316094471 0.5481002250506393,0.7308002690425255 0.7105002900086994,1.203946653756745 c0.16240006495806014,0.47470785712645025 0.2436000974370902,1.0602850488827897 0.2436000974370902,1.7575121485939178 c0,0.6105617741768192 -0.07651541164081754,1.1383619271186518 -0.22798469852117265,1.5810583665508773 c-0.18582315169756392,0.5395117312147022 -0.45128479365569163,0.9790849465975242 -0.796384902605638,1.3132543763619324 c-0.25999625582786834,0.25375008695400325 -0.6121232931265403,0.45128479365569163 -1.054819592946295,0.5949463985296468 c-0.3310462755212402,0.10618466143700012 -0.7737425986097399,0.15849620941189446 -1.328088945996754,0.15849620941189446 h-2.8240434594255532 v-7.433706594689966 zm1.5006390702779626,1.2593812745341992 v4.924313531619816 h1.1204042265094074 c0.41927323634899594,0 0.7214310622692182,-0.0234230852852072 0.9080349501728975,-0.0718307966197913 c0.2436000974370902,-0.06011925325003942 0.44503862478182654,-0.16474236665138697 0.6058771707901656,-0.3091847310002027 c0.16083852273959387,-0.14678466604214258 0.29200781313456403,-0.3825770756556466 0.3927270884413048,-0.7183079778322856 c0.1015000347816013,-0.3326078177397065 0.15225005217240195,-0.7862348898199798 0.15225005217240195,-1.3608813093158005 c0,-0.5723040479962584 -0.05075001739080065,-1.0157811538283639 -0.15225005217240195,-1.3210620641855186 c-0.1015000347816013,-0.3091847310002027 -0.2436000974370902,-0.5473194190382884 -0.425519405222861,-0.7214310622692182 c-0.18270006726063137,-0.17411160832781203 -0.4138078269499914,-0.2881039459540258 -0.6948848678240367,-0.3490039761304846 c-0.21002699791192825,-0.049188480989520666 -0.6207117869624774,-0.07026926021851132 -1.232054274076667,-0.07026926021851132 z" inkscape:connector-curvature="0" stroke-width="0"/><path id="path5573" d="m265.1932573468366,111.98824815178159 v-7.433706594689966 h5.511452102713406 v1.2562581435597764 h-4.010813125510424 v1.645862194101639 h3.7320785026734313 v1.2523542996479833 h-3.7320785026734313 v2.0237546198331415 h4.152912932209716 v1.2523542996479833 z" inkscape:connector-curvature="0" stroke-width="0"/></g><g id="g5575" stroke-width="0"><path id="path5577" d="m283.24230993265155,111.98824815178159 v-7.433706594689966 h2.2462740020302903 l1.3499504905177915,5.070317275305882 l1.332773595920898,-5.070317275305882 h2.250958465804473 v7.433706594689966 h-1.3936735795598665 v-5.852648228139088 l-1.4764352007948531,5.852648228139088 h-1.4475466813875997 l-1.4733120698204303,-5.852648228139088 v5.852648228139088 z" inkscape:connector-curvature="0" stroke-width="0"/><path id="path5579" d="m303.40257113468215,111.98824815178159 h-1.631808244329207 l-0.6496002598322406,-1.689585283143714 h-2.973951140098393 l-0.6105617741768192,1.689585283143714 h-1.592769805211276 l2.895874261862531,-7.433706594689966 h1.5841814044503195 zm-2.763143382711604,-2.942720388804048 l-1.0251503606016712,-2.75767801985009 l-1.0040696220929846,2.75767801985009 z" inkscape:connector-curvature="0" stroke-width="0"/><path id="path5581" d="m313.7438597068958,109.25321974231338 l1.4545736562738156,0.46299632539107094 c-0.22251931239091327,0.8127810842651613 -0.594165592517296,1.415535124080904 -1.1125965386858212,1.8059198875601368 c-0.5192117521808761,0.3942886073910259 -1.1781811722489337,0.5910425546178537 -1.9753468808669226,0.5910425546178537 c-0.986892727496091,0 -1.7981121997365506,-0.33807320386996587 -2.4320970839216187,-1.0118773099165708 c-0.6347656436599287,-0.6714618043532781 -0.9548811701893953,-1.5958928431107182 -0.9548811701893953,-2.765485707673676 c0,-1.2375197300131617 0.3193347437858609,-2.1963046510393696 0.9595657270385587,-2.880258700065397 c0.6386694875717218,-0.6847348550383785 1.4803390447066462,-1.0251503606016712 2.5211048740304705,-1.0251503606016712 c0.9095964691226186,0 1.645862194101639,0.26858472639506026 2.216604676610686,0.8041925904292242 c0.3388539633448264,0.3169924188237889 0.5933848330424354,0.7745233580846005 0.7628118263492212,1.3702505160891079 l-1.4850236015558096,0.3529078200422777 c-0.08666541860928945,-0.38335783513050714 -0.2732693297817139,-0.687857939475311 -0.5496617440003604,-0.9119387940846906 c-0.27795395643711274,-0.2217385529160527 -0.6175887025255449,-0.33416935995817276 -1.017342672778085,-0.33416935995817276 c-0.550442503475221,0 -0.9970426472067686,0.19675392395808267 -1.341362089756835,0.5933848330424354 c-0.3427578305253647,0.3958501728782373 -0.515307908269083,1.0353003733873294 -0.515307908269083,1.9214737790391894 c0,0.9392657014672423 0.17020775278164635,1.6099467928831501 0.5059386549582854,2.008139244185969 c0.3388539633448264,0.398192451302819 0.7760849235718119,0.5988502424414399 1.3179389332110958,0.5988502424414399 c0.398192451302819,0 0.7386079568661117,-0.12648466373957135 1.0251503606016712,-0.37945399121871404 c0.2881039459540258,-0.2576539541345415 0.4942271232229061,-0.6558463821686153 0.6199310274876169,-1.200823522782322 z" inkscape:connector-curvature="0" stroke-width="0"/><path id="path5583" d="m321.2790671740422,111.98824815178159 v-7.433706594689966 h1.5014197832153329 v2.926324114069544 h2.940378063841976 v-2.926324114069544 h1.5022005892276837 v7.433706594689966 h-1.5022005892276837 v-3.251124337060645 h-2.940378063841976 v3.251124337060645 z" inkscape:connector-curvature="0" stroke-width="0"/><path id="path5585" d="m333.51528491312456,111.98824815178159 v-7.433706594689966 h1.5014197832153329 v7.433706594689966 z" inkscape:connector-curvature="0" stroke-width="0"/><path id="path5587" d="m341.24723352968795,111.98824815178159 v-7.433706594689966 h1.4608198251476807 l3.0418780055485968,4.963351784587786 v-4.963351784587786 h1.3944543855722173 v7.433706594689966 h-1.5061044331394768 l-2.9973742035691515,-4.847798079258695 v4.847798079258695 z" inkscape:connector-curvature="0" stroke-width="0"/><path id="path5589" d="m353.51938267888545,111.98824815178159 v-7.433706594689966 h5.512232815650776 v1.2562581435597764 h-4.011593838447794 v1.645862194101639 h3.7320785026734313 v1.2523542996479833 h-3.7320785026734313 v2.0237546198331415 h4.152912932209716 v1.2523542996479833 z" inkscape:connector-curvature="0" stroke-width="0"/></g><g id="g5591" stroke-width="0"><path id="path5593" d="m372.18055590519,111.98824815178159 v-7.433706594689966 h5.512232815650776 v1.2562581435597764 h-4.010813125510424 v1.645862194101639 h3.7320785026734313 v1.2523542996479833 h-3.7320785026734313 v2.0237546198331415 h4.152912932209716 v1.2523542996479833 z" inkscape:connector-curvature="0" stroke-width="0"/><path id="path5595" d="m383.8749194019456,111.98824815178159 v-7.433706594689966 h2.2462740020302903 l1.3491697775804212,5.070317275305882 l1.334335114870619,-5.070317275305882 h2.250958465804473 v7.433706594689966 h-1.3921120606101454 v-5.852648228139088 l-1.4779967197445742,5.852648228139088 h-1.4459851624378786 l-1.4709697448583583,-5.852648228139088 v5.852648228139088 z" inkscape:connector-curvature="0" stroke-width="0"/><path id="path5597" d="m397.32210667437175,104.55298385421611 h1.5006390702779626 v4.024867075282856 c0,0.6371079220845104 0.017957699154947826,1.0540388800089247 0.05465386711978004,1.242985092874676 c0.06402310297901881,0.3052808870884096 0.2131500823488608,0.5473194190382884 0.45909248147927784,0.7323618345297369 c0.2428193146934845,0.18426160947909764 0.5691809635593259,0.27639241421864646 0.9915772843452544,0.27639241421864646 c0.42708092417258214,0 0.7471964507020488,-0.08588464750005631 0.9634695709503518,-0.2607770153027289 c0.21627316678579334,-0.17411160832781203 0.3458808916935521,-0.38726167904230024 0.3903847634792328,-0.6410117659963035 c0.04450386305990128,-0.2529693274791427 0.06558463938029879,-0.6738040827778597 0.06558463938029879,-1.2617235994962712 v-4.113093966304376 h1.5022005892276837 v3.904628347729698 c0,0.8932003805380759 -0.04138078444015503,1.5225006147990001 -0.1218000487185451,1.8918046397695463 c-0.08120003247903007,0.3685232189581953 -0.23188854243296575,0.6792694921768643 -0.4481617092187591,0.9314580136436561 c-0.2178347090042596,0.2529693274791427 -0.5090617393952179,0.4544078780926242 -0.8752426799288315,0.6035348458280936 c-0.3646193750464022,0.14990775047907512 -0.8416695105974341,0.22564239682784581 -1.428808267840985,0.22564239682784581 c-0.7105002900086994,0 -1.249231261748541,-0.08120003247903007 -1.614631442807294,-0.24438085691195077 c-0.3677424362145896,-0.16474236665138697 -0.6574079476558268,-0.3763309067817815 -0.8658733800805436,-0.6386694875717218 c-0.21158854013039452,-0.2615577980463346 -0.35212706056741716,-0.5371694527901205 -0.41927323634899594,-0.8252734220128914 c-0.09915773308827447,-0.425519405222861 -0.1475654371513757,-1.0563812049709966 -0.1475654371513757,-1.8863390907580708 v-3.9639669985689068 z" inkscape:connector-curvature="0" stroke-width="0"/><path id="path5599" d="m409.6590419668737,111.98824815178159 v-7.3728065179760165 h1.5006390702779626 v6.121233210490345 h3.7328592156108016 v1.2523542996479833 h-5.233498192813784 z" inkscape:connector-curvature="0" stroke-width="0"/><path id="path5601" d="m427.45199986043554,111.98824815178159 h-1.6333698563539087 l-0.6480386943450291,-1.689585283143714 h-2.972389528073691 l-0.6129040991388912,1.689585283143714 h-1.5919890922739057 l2.894312649837829,-7.433706594689966 h1.5873044423497618 zm-2.763143382711604,-2.942720388804048 l-1.0251503606016712,-2.75767801985009 l-1.0032888160806337,2.75767801985009 z" inkscape:connector-curvature="0" stroke-width="0"/><path id="path5603" d="m433.9394302530436,111.98824815178159 v-6.1758868391054875 h-2.2064546638250278 v-1.2570389495721273 h5.9057408031794125 v1.2570389495721273 h-2.1986469760014415 v6.1758868391054875 z" inkscape:connector-curvature="0" stroke-width="0"/><path id="path5605" d="m442.902649173122,108.31629869268272 c0,-0.7589079824374281 0.11399234926058632,-1.3921120606101454 0.34197704778175897,-1.9050776904546467 c0.16786545108831952,-0.37789244900024777 0.398192451302819,-0.7183079778322856 0.6909810239122436,-1.021246516689878 c0.2927885726094246,-0.30215780265147707 0.6129040991388912,-0.5231155960926692 0.9603465330509096,-0.6667771544291341 c0.4637770848659315,-0.19597314121447695 0.9970426472067686,-0.29356933208428515 1.6029198179969342,-0.29356933208428515 c1.0946388380765768,0 1.97144313003011,0.34197704778175897 2.628851077685937,1.018904191727806 c0.6574079476558268,0.6792694921768643 0.986892727496091,1.6247814555929523 0.986892727496091,2.836535611023322 c0,1.19848119782025 -0.32636167213458656,2.136966186350122 -0.9790849465975242,2.8146741595772653 c-0.6527233442691731,0.6769271672147923 -1.5248428466860915,1.0165619598407147 -2.617139452875577,1.0165619598407147 c-1.1055696568745859,0 -1.983935281627879,-0.33807320386996587 -2.636658765509523,-1.0118773099165708 c-0.6527233442691731,-0.6738040827778597 -0.9790849465975242,-1.6060428558963764 -0.9790849465975242,-2.7881280582070644 zm1.5482660032318307,-0.051530788500033786 c0,0.8416695105974341 0.19363083952115012,1.4803390447066462 0.5824540607819166,1.912885378278233 c0.3888232212607665,0.4356694180085192 0.8830503677524177,0.6511617787819617 1.4803390447066462,0.6511617787819617 c0.5996310019163005,0 1.0899542812274134,-0.2131500823488608 1.4733120698204303,-0.644134850433236 c0.38413861787411285,-0.43254633357158667 0.5746463729583304,-1.0782427494920341 0.5746463729583304,-1.940212192585804 c0,-0.851038810445722 -0.18582315169756392,-1.4850236015558096 -0.5598117567860186,-1.9042967913673152 c-0.3747693645633152,-0.4177117173992748 -0.8689965110549664,-0.6285194747860636 -1.4881467325302324,-0.6285194747860636 c-0.619150221475266,0 -1.1165003825976143,0.21158854013039452 -1.4959544203538186,0.6347656436599287 c-0.37945399121871404,0.42317708026078904 -0.5668386851347442,1.063408086782232 -0.5668386851347442,1.9183507411397471 z" inkscape:connector-curvature="0" stroke-width="0"/><path id="path5607" d="m456.0765861728687,111.98824815178159 v-7.433706594689966 h3.1597742219897214 c0.7948233836559169,0 1.3710313221014587,0.06714618159876506 1.730966047223717,0.20143852734473633 c0.35993474839100337,0.133511592088297 0.6480386943450291,0.3724270628699884 0.8643118611308225,0.7120618089584205 c0.21627316678579334,0.34197704778175897 0.3248001299161203,0.7323618345297369 0.3248001299161203,1.1711542904376984 c0,0.5574694318239466 -0.16474236665138697,1.0181234787904359 -0.49266555773569465,1.382742853836838 c-0.3279231910843077,0.3630578328279359 -0.8174657341893052,0.5918233140927143 -1.470189031920988,0.6862964205255899 c0.3248001299161203,0.18894622450012388 0.5933848330424354,0.398192451302819 0.7971657086179889,0.62383487139941 c0.21158854013039452,0.2272039390463121 0.5035963299962134,0.6308617997481356 0.8604080172190294,1.2086312106059083 l0.9025695873113833,1.4491082003373208 H460.9610658465863 l-1.0860504373156203,-1.6177544807067363 c-0.38413861787411285,-0.5769886979204024 -0.6480386943450291,-0.9423888324416652 -0.7901387337317729,-1.0915158001771346 c-0.14522313545804888,-0.1475654371513757 -0.2927885726094246,-0.2514077852606764 -0.45128479365569163,-0.3091847310002027 c-0.15849620941189446,-0.053873096010546906 -0.4099039830381983,-0.08120003247903007 -0.7581272229625675,-0.08120003247903007 h-0.3052808870884096 v3.105901120161988 h-1.4990774582532609 v-0.0046846172024710975 h0.0031230782561721127 v-0.0015615391280860563 h0.0023423086012355487 zm1.5006390702779626,-4.291109174222157 h1.111815825748451 c0.7198694967820067,0 1.1695927714879772,-0.02888847286976315 1.3483889715680704,-0.0897884972290357 c0.1795769944580714,-0.06011925325003942 0.32011550326072147,-0.16630390886985325 0.4223963207859285,-0.31386935765560153 c0.10071926367236816,-0.14678466604214258 0.15068852158830826,-0.33573090217663903 0.15068852158830826,-0.5574694318239466 c0,-0.24984624304221015 -0.06714618159876506,-0.4520655531305522 -0.20143852734473633,-0.6058771707901656 c-0.13273082097906386,-0.15068852158830826 -0.32011550326072147,-0.24828470082374388 -0.5644963601726722,-0.28966548817249205 c-0.1218000487185451,-0.016396159845074698 -0.48641943539931987,-0.024203854940143765 -1.0946388380765768,-0.024203854940143765 h-1.1727158093874195 z" inkscape:connector-curvature="0" stroke-width="0"/></g></g><path d="m268.06566029787064,136.2003173828125 q0.1525784730911255,-2.937135696411133 0.877326250076294,-4.653643608093262 q1.2969170808792114,-3.01342511177063 3.9670403003692627,-4.691788196563721 q2.670123338699341,-1.6783632040023804 6.217573165893555,-1.6783632040023804 q4.806221961975098,0 7.895936012268066,2.898991107940674 q3.127858877182007,2.898991107940674 3.127858877182007,7.323766708374023 q0,2.36496639251709 -0.9154708385467529,4.310341835021973 q-0.9154708385467529,1.9072309732437134 -3.3185818195343018,4.501064777374268 l-4.119618892669678,4.462920188903809 h8.658828735351562 v6.293862342834473 h-22.924917221069336 l7.2474775314331055,-7.5907793045043945 q1.7165077924728394,-1.7927970886230469 3.242292642593384,-3.70002818107605 q1.7927970886230469,-2.212387800216675 2.7082679271698,-3.5855941772460938 q1.7165077924728394,-2.517544984817505 1.7165077924728394,-4.882511138916016 q0,-1.5639294385910034 -0.9917600750923157,-2.631978750228882 q-0.9536154866218567,-1.1061939001083374 -2.36496639251709,-1.1061939001083374 q-2.059809446334839,0 -2.860846519470215,1.8309416770935059 q-0.4195908010005951,0.9154708385467529 -0.45773541927337646,2.898991107940674 z" style="font-style:normal;font-variant:normal;font-weight:normal;font-stretch:normal;font-size:medium;line-height:25px;font-family:'C+BoldItal';-inkscape-font-specification:'C+BoldItal';letter-spacing:0px;word-spacing:0px;fill:none;fill-opacity:1;stroke:#175685;stroke-width:1px;stroke-linecap:butt;stroke-linejoin:miter;stroke-opacity:1" id="path1012" inkscape:connector-curvature="0" stroke-width="0" class=""/><path d="m305.0655955841203,125.29095124583728 q5.492825421207158,0 8.811406878120692,4.2340528151673595 q3.3567264947201636,4.2340528151673595 3.3567264947201636,11.214518340938298 q0,6.866031321789649 -3.3567264947201636,11.100084591676307 q-3.3185819116328332,4.195908232080029 -8.735117711946032,4.195908232080029 q-5.454680383400529,0 -8.811406878120692,-4.195908232080029 q-3.3185819116328332,-4.2340528151673595 -3.3185819116328332,-11.138229174763637 q0,-6.866031321789649 3.3185819116328332,-11.138229174763637 q3.3567264947201636,-4.27219739825469 8.735117711946032,-4.27219739825469 zm0.11443385583682675,6.6371638232656665 q-2.288677258836316,0 -3.547449637516465,2.288677258836316 q-1.2206277955928186,2.288677258836316 -1.2206277955928186,6.484585490916345 q0,4.157763648992699 1.2587724923599737,6.484585490916345 q1.2587724923599737,2.326821841923646 3.471160471341804,2.326821841923646 q2.250532448389336,0 3.471160471341804,-2.288677258836316 q1.2206277955928186,-2.288677258836316 1.2206277955928186,-6.522730074003675 q0,-4.195908232080029 -1.2206277955928186,-6.484585490916345 q-1.2206277955928186,-2.288677258836316 -3.4330156608948244,-2.288677258836316 z" style="font-style:normal;font-variant:normal;font-weight:normal;font-stretch:normal;font-size:medium;line-height:25px;font-family:'C+BoldItal';-inkscape-font-specification:'C+BoldItal';letter-spacing:0px;word-spacing:0px;fill:none;fill-opacity:1;stroke:#175685;stroke-width:1px;stroke-linecap:butt;stroke-linejoin:miter;stroke-opacity:1" id="path1014" inkscape:connector-curvature="0" stroke-width="0" class=""/><path d="m331.439023886006,125.29095124583728 q5.492825421207158,0 8.811406878120692,4.2340528151673595 q3.3567264947201636,4.2340528151673595 3.3567264947201636,11.214518340938298 q0,6.866031321789649 -3.3567264947201636,11.100084591676307 q-3.3185819116328332,4.195908232080029 -8.735117711946032,4.195908232080029 q-5.454680383400529,0 -8.811406878120692,-4.195908232080029 q-3.3185819116328332,-4.2340528151673595 -3.3185819116328332,-11.138229174763637 q0,-6.866031321789649 3.3185819116328332,-11.138229174763637 q3.3567264947201636,-4.27219739825469 8.735117711946032,-4.27219739825469 zm0.11443385583682675,6.6371638232656665 q-2.288677258836316,0 -3.547449637516465,2.288677258836316 q-1.2206277955928186,2.288677258836316 -1.2206277955928186,6.484585490916345 q0,4.157763648992699 1.2587724923599737,6.484585490916345 q1.2587724923599737,2.326821841923646 3.471160471341804,2.326821841923646 q2.250532448389336,0 3.471160471341804,-2.288677258836316 q1.2206277955928186,-2.288677258836316 1.2206277955928186,-6.522730074003675 q0,-4.195908232080029 -1.2206277955928186,-6.484585490916345 q-1.2206277955928186,-2.288677258836316 -3.4330156608948244,-2.288677258836316 z" style="font-style:normal;font-variant:normal;font-weight:normal;font-stretch:normal;font-size:medium;line-height:25px;font-family:'C+BoldItal';-inkscape-font-specification:'C+BoldItal';letter-spacing:0px;word-spacing:0px;fill:none;fill-opacity:1;stroke:#175685;stroke-width:1px;stroke-linecap:butt;stroke-linejoin:miter;stroke-opacity:1" id="path1016" inkscape:connector-curvature="0" stroke-width="0" class=""/><path d="m355.860673725605,142.37974548339844 v-4.996944904327393 h0.4195908010005951 q3.6237387657165527,0 3.6237387657165527,-2.975280284881592 q0,-3.051569700241089 -2.898991107940674,-3.051569700241089 q-2.975280284881592,0 -3.166003465652466,3.3567264080047607 h-6.827886581420898 q0.3814462125301361,-2.784557342529297 1.2587724924087524,-4.42477560043335 q2.631978750228882,-4.958800315856934 9.116564750671387,-4.958800315856934 q4.234052658081055,0 6.7897419929504395,2.288677215576172 q2.593834161758423,2.288677215576172 2.593834161758423,6.064994812011719 q0,2.479400157928467 -1.373206377029419,4.310341835021973 q-0.572169303894043,0.7628924250602722 -1.7165077924728394,1.5257848501205444 q1.5639294385910034,0.5340246558189392 2.36496639251709,1.3350616693496704 q2.326821804046631,2.288677215576172 2.326821804046631,5.988705635070801 q0,4.195908069610596 -3.127858877182007,6.7897419929504395 q-3.089714288711548,2.593834161758423 -8.124804496765137,2.593834161758423 q-4.005184650421143,0 -7.6289238929748535,-2.517544984817505 q-1.9835201501846313,-1.373206377029419 -2.898991107940674,-3.204148054122925 q-0.49588003754615784,-1.0299047231674194 -0.8391816020011902,-2.479400157928467 q-0.19072310626506805,-0.9154708385467529 -0.305156946182251,-2.212387800216675 h7.5907793045043945 q0.2670123279094696,2.097954034805298 1.2587724924087524,3.01342511177063 q1.220627784729004,1.144338607788086 2.898991107940674,1.144338607788086 q1.6402186155319214,0 2.670123338699341,-1.1061939001083374 q1.0680493116378784,-1.144338607788086 1.0680493116378784,-2.860846519470215 q0,-3.6618833541870117 -4.386631011962891,-3.6618833541870117 q-0.3814462125301361,0 -0.6866031885147095,0.03814461827278137 z" style="font-style:normal;font-variant:normal;font-weight:normal;font-stretch:normal;font-size:medium;line-height:25px;font-family:'C+BoldItal';-inkscape-font-specification:'C+BoldItal';letter-spacing:0px;word-spacing:0px;fill:none;fill-opacity:1;stroke:#175685;stroke-width:1px;stroke-linecap:butt;stroke-linejoin:miter;stroke-opacity:1" id="path1018" inkscape:connector-curvature="0" stroke-width="0" class=""/><path d="m387.5837409880651,126.35899593452814 h9.650588615480558 q4.958800348545935,0 7.361911356644242,1.7165078304474122 q3.280437328545503,2.326821841923646 3.280437328545503,7.09489927503293 q0,4.462920313691342 -2.937135626040231,7.552634726800193 q-1.5257848013309356,1.6020739675055964 -3.585594220603795,2.288677258836316 q-2.0216647225057045,0.648458537723652 -5.340246634138538,0.648458537723652 h-3.5093050544291344 l-1.1824832125054883,9.307287367694585 h-7.247477607382251 zm6.522730074003675,5.72169291973114 l-0.8773262636072836,7.2856221904695815 h2.288677258836316 q4.920655765458605,0 4.920655765458605,-3.928895695749418 q0,-1.7927971103018976 -1.029904766476342,-2.5556895678072777 q-0.9917600697091871,-0.8010369837527982 -3.280437328545503,-0.8010369837527982 z" style="font-style:normal;font-variant:normal;font-weight:normal;font-stretch:normal;font-size:medium;line-height:25px;font-family:'C+BoldItal';-inkscape-font-specification:'C+BoldItal';letter-spacing:0px;word-spacing:0px;fill:none;fill-opacity:1;stroke:#266d9d;stroke-width:1px;stroke-linecap:butt;stroke-linejoin:miter;stroke-opacity:1" id="path1020" inkscape:connector-curvature="0" stroke-width="0" class=""/><path d="m420.60864312954527,126.35899593452814 l-2.746412710603579,22.314602023176008 h9.116564452257933 l-0.7628924006654678,6.293862120760394 h-16.364041604920885 l3.5093050544291344,-28.6084645986557 z" style="font-style:normal;font-variant:normal;font-weight:normal;font-stretch:normal;font-size:medium;line-height:25px;font-family:'C+BoldItal';-inkscape-font-specification:'C+BoldItal';letter-spacing:0px;word-spacing:0px;fill:none;fill-opacity:1;stroke:#469dcd;stroke-width:1px;stroke-linecap:butt;stroke-linejoin:miter;stroke-opacity:1" id="path1022" inkscape:connector-curvature="0" stroke-width="0" class=""/><path d="m458.3414105934835,126.35899593452814 l-2.0216647225057045,16.554765429796134 q-0.49588003485459353,4.043329445011409 -1.2206277955928186,6.026850039149082 q-0.6866031776508947,1.9835201394183741 -2.059809532952684,3.3567264947201636 q-3.3185819116328332,3.2422927454581725 -9.726877781655219,3.2422927454581725 q-5.569114587381819,0 -8.773262295033362,-2.593834150894608 q-3.2041479350111928,-2.593834150894608 -3.2041479350111928,-7.09489927503293 q0,-1.2587724923599737 0.34330158882544737,-4.043329445011409 l1.9072309732437134,-15.448571610824956 h7.209333024294921 l-1.9072309732437134,15.448571610824956 q-0.11443385583682675,0.915470846694614 -0.11443385583682675,2.1742432822146753 q0,4.691788266934623 4.920655765458605,4.691788266934623 q2.593834150894608,0 3.8144619464874268,-1.3350616585346344 q1.2206277955928186,-1.3732063553017895 1.6020739675055964,-4.653643683847292 l1.9835201394183741,-16.325897931272152 z" style="font-style:normal;font-variant:normal;font-weight:normal;font-stretch:normal;font-size:medium;line-height:25px;font-family:'C+BoldItal';-inkscape-font-specification:'C+BoldItal';letter-spacing:0px;word-spacing:0px;fill:none;fill-opacity:1;stroke:#469dcd;stroke-width:1px;stroke-linecap:butt;stroke-linejoin:miter;stroke-opacity:1" id="path1024" inkscape:connector-curvature="0" stroke-width="0" class=""/><path d="m481.45086386636467,128.41880887787556 l-3.1660033519238624,5.492825421207158 q-2.86084645986557,-2.136098699127345 -5.035089969439895,-2.136098699127345 q-1.4494955214764502,0 -2.326821841923646,0.6866031776508947 q-0.8773262636072836,0.6866031776508947 -0.8773262636072836,1.830941693389228 q0,0.6103138977964093 0.2670123373909181,1.1061939326510029 q0.5340246747818362,0.9536154866218567 3.3567264947201636,2.288677258836316 q3.585594220603795,1.6783632473600818 4.958800348545935,3.471160471341804 q1.3732063553017895,1.7546525272145672 1.3732063553017895,4.577354517672632 q0,4.31034198134202 -3.0515696026618713,7.056754691945599 q-3.0515696026618713,2.746412710603579 -7.857791391498836,2.746412710603579 q-2.593834150894608,0 -4.691788266934623,-0.6866031776508947 q-2.0979541160400146,-0.6866031776508947 -4.958800348545935,-2.4794001742729677 l3.2422927454581725,-5.492825421207158 q3.471160471341804,2.3649664250109765 6.064994622236412,2.3649664250109765 q1.7165078304474122,0 2.746412710603579,-0.8010369837527982 q1.0680493495636725,-0.8010369837527982 1.0680493495636725,-2.0979541160400146 q0,-0.9536154866218567 -0.6866031776508947,-1.6020739675055964 q-0.648458537723652,-0.648458537723652 -2.6319787339819385,-1.6402186642727514 q-3.852606529574757,-1.9453755563310438 -5.263957467963877,-3.661883386778456 q-1.3732063553017895,-1.7546525272145672 -1.3732063553017895,-4.653643683847292 q0,-3.8907511126620875 2.975280209127561,-6.446440907829015 q3.013425019574541,-2.5556895678072777 7.552634726800193,-2.5556895678072777 q4.2340528151673595,0 8.315527297985398,2.6319787339819385 z" style="font-style:normal;font-variant:normal;font-weight:normal;font-stretch:normal;font-size:medium;line-height:25px;font-family:'C+BoldItal';-inkscape-font-specification:'C+BoldItal';letter-spacing:0px;word-spacing:0px;fill:none;fill-opacity:1;stroke:#469dcd;stroke-width:1px;stroke-linecap:butt;stroke-linejoin:miter;stroke-opacity:1" id="path1026" inkscape:connector-curvature="0" stroke-width="0" class=""/><path d="m268.06566029787064,136.2003173828125 q0.1525784730911255,-2.937135696411133 0.877326250076294,-4.653643608093262 q1.2969170808792114,-3.01342511177063 3.9670403003692627,-4.691788196563721 q2.670123338699341,-1.6783632040023804 6.217573165893555,-1.6783632040023804 q4.806221961975098,0 7.895936012268066,2.898991107940674 q3.127858877182007,2.898991107940674 3.127858877182007,7.323766708374023 q0,2.36496639251709 -0.9154708385467529,4.310341835021973 q-0.9154708385467529,1.9072309732437134 -3.3185818195343018,4.501064777374268 l-4.119618892669678,4.462920188903809 h8.658828735351562 v6.293862342834473 h-22.924917221069336 l7.2474775314331055,-7.5907793045043945 q1.7165077924728394,-1.7927970886230469 3.242292642593384,-3.70002818107605 q1.7927970886230469,-2.212387800216675 2.7082679271698,-3.5855941772460938 q1.7165077924728394,-2.517544984817505 1.7165077924728394,-4.882511138916016 q0,-1.5639294385910034 -0.9917600750923157,-2.631978750228882 q-0.9536154866218567,-1.1061939001083374 -2.36496639251709,-1.1061939001083374 q-2.059809446334839,0 -2.860846519470215,1.8309416770935059 q-0.4195908010005951,0.9154708385467529 -0.45773541927337646,2.898991107940674 z" style="font-style:normal;font-variant:normal;font-weight:normal;font-stretch:normal;font-size:40px;line-height:25px;font-family:'C+BoldItal';-inkscape-font-specification:'C+BoldItal';letter-spacing:0px;word-spacing:0px;fill:url(#linearGradient4855);fill-opacity:1;stroke:none;stroke-width:1px;stroke-linecap:butt;stroke-linejoin:miter;stroke-opacity:1" id="path1076" inkscape:connector-curvature="0" stroke-width="0" class=""/><path d="m305.0655955841203,125.29095124583728 q5.492825421207158,0 8.811406878120692,4.2340528151673595 q3.3567264947201636,4.2340528151673595 3.3567264947201636,11.214518340938298 q0,6.866031321789649 -3.3567264947201636,11.100084591676307 q-3.3185819116328332,4.195908232080029 -8.735117711946032,4.195908232080029 q-5.454680383400529,0 -8.811406878120692,-4.195908232080029 q-3.3185819116328332,-4.2340528151673595 -3.3185819116328332,-11.138229174763637 q0,-6.866031321789649 3.3185819116328332,-11.138229174763637 q3.3567264947201636,-4.27219739825469 8.735117711946032,-4.27219739825469 zm0.11443385583682675,6.6371638232656665 q-2.288677258836316,0 -3.547449637516465,2.288677258836316 q-1.2206277955928186,2.288677258836316 -1.2206277955928186,6.484585490916345 q0,4.157763648992699 1.2587724923599737,6.484585490916345 q1.2587724923599737,2.326821841923646 3.471160471341804,2.326821841923646 q2.250532448389336,0 3.471160471341804,-2.288677258836316 q1.2206277955928186,-2.288677258836316 1.2206277955928186,-6.522730074003675 q0,-4.195908232080029 -1.2206277955928186,-6.484585490916345 q-1.2206277955928186,-2.288677258836316 -3.4330156608948244,-2.288677258836316 z" style="font-style:normal;font-variant:normal;font-weight:normal;font-stretch:normal;font-size:40px;line-height:25px;font-family:'C+BoldItal';-inkscape-font-specification:'C+BoldItal';letter-spacing:0px;word-spacing:0px;fill:url(#linearGradient1402);fill-opacity:1;stroke:none;stroke-width:1px;stroke-linecap:butt;stroke-linejoin:miter;stroke-opacity:1" id="path1078" inkscape:connector-curvature="0" stroke-width="0" class=""/><path d="m331.439023886006,125.29095124583728 q5.492825421207158,0 8.811406878120692,4.2340528151673595 q3.3567264947201636,4.2340528151673595 3.3567264947201636,11.214518340938298 q0,6.866031321789649 -3.3567264947201636,11.100084591676307 q-3.3185819116328332,4.195908232080029 -8.735117711946032,4.195908232080029 q-5.454680383400529,0 -8.811406878120692,-4.195908232080029 q-3.3185819116328332,-4.2340528151673595 -3.3185819116328332,-11.138229174763637 q0,-6.866031321789649 3.3185819116328332,-11.138229174763637 q3.3567264947201636,-4.27219739825469 8.735117711946032,-4.27219739825469 zm0.11443385583682675,6.6371638232656665 q-2.288677258836316,0 -3.547449637516465,2.288677258836316 q-1.2206277955928186,2.288677258836316 -1.2206277955928186,6.484585490916345 q0,4.157763648992699 1.2587724923599737,6.484585490916345 q1.2587724923599737,2.326821841923646 3.471160471341804,2.326821841923646 q2.250532448389336,0 3.471160471341804,-2.288677258836316 q1.2206277955928186,-2.288677258836316 1.2206277955928186,-6.522730074003675 q0,-4.195908232080029 -1.2206277955928186,-6.484585490916345 q-1.2206277955928186,-2.288677258836316 -3.4330156608948244,-2.288677258836316 z" style="font-style:normal;font-variant:normal;font-weight:normal;font-stretch:normal;font-size:40px;line-height:25px;font-family:'C+BoldItal';-inkscape-font-specification:'C+BoldItal';letter-spacing:0px;word-spacing:0px;fill:url(#linearGradient4859);fill-opacity:1;stroke:none;stroke-width:1px;stroke-linecap:butt;stroke-linejoin:miter;stroke-opacity:1" id="path1080" inkscape:connector-curvature="0" stroke-width="0" class=""/><path d="m355.860673725605,142.37974548339844 v-4.996944904327393 h0.4195908010005951 q3.6237387657165527,0 3.6237387657165527,-2.975280284881592 q0,-3.051569700241089 -2.898991107940674,-3.051569700241089 q-2.975280284881592,0 -3.166003465652466,3.3567264080047607 h-6.827886581420898 q0.3814462125301361,-2.784557342529297 1.2587724924087524,-4.42477560043335 q2.631978750228882,-4.958800315856934 9.116564750671387,-4.958800315856934 q4.234052658081055,0 6.7897419929504395,2.288677215576172 q2.593834161758423,2.288677215576172 2.593834161758423,6.064994812011719 q0,2.479400157928467 -1.373206377029419,4.310341835021973 q-0.572169303894043,0.7628924250602722 -1.7165077924728394,1.5257848501205444 q1.5639294385910034,0.5340246558189392 2.36496639251709,1.3350616693496704 q2.326821804046631,2.288677215576172 2.326821804046631,5.988705635070801 q0,4.195908069610596 -3.127858877182007,6.7897419929504395 q-3.089714288711548,2.593834161758423 -8.124804496765137,2.593834161758423 q-4.005184650421143,0 -7.6289238929748535,-2.517544984817505 q-1.9835201501846313,-1.373206377029419 -2.898991107940674,-3.204148054122925 q-0.49588003754615784,-1.0299047231674194 -0.8391816020011902,-2.479400157928467 q-0.19072310626506805,-0.9154708385467529 -0.305156946182251,-2.212387800216675 h7.5907793045043945 q0.2670123279094696,2.097954034805298 1.2587724924087524,3.01342511177063 q1.220627784729004,1.144338607788086 2.898991107940674,1.144338607788086 q1.6402186155319214,0 2.670123338699341,-1.1061939001083374 q1.0680493116378784,-1.144338607788086 1.0680493116378784,-2.860846519470215 q0,-3.6618833541870117 -4.386631011962891,-3.6618833541870117 q-0.3814462125301361,0 -0.6866031885147095,0.03814461827278137 z" style="font-style:normal;font-variant:normal;font-weight:normal;font-stretch:normal;font-size:40px;line-height:25px;font-family:'C+BoldItal';-inkscape-font-specification:'C+BoldItal';letter-spacing:0px;word-spacing:0px;fill:url(#linearGradient4861);fill-opacity:1;stroke:none;stroke-width:1px;stroke-linecap:butt;stroke-linejoin:miter;stroke-opacity:1" id="path1082" inkscape:connector-curvature="0" stroke-width="0" class=""/><path d="m387.5837409880651,126.35899593452814 h9.650588615480558 q4.958800348545935,0 7.361911356644242,1.7165078304474122 q3.280437328545503,2.326821841923646 3.280437328545503,7.09489927503293 q0,4.462920313691342 -2.937135626040231,7.552634726800193 q-1.5257848013309356,1.6020739675055964 -3.585594220603795,2.288677258836316 q-2.0216647225057045,0.648458537723652 -5.340246634138538,0.648458537723652 h-3.5093050544291344 l-1.1824832125054883,9.307287367694585 h-7.247477607382251 zm6.522730074003675,5.72169291973114 l-0.8773262636072836,7.2856221904695815 h2.288677258836316 q4.920655765458605,0 4.920655765458605,-3.928895695749418 q0,-1.7927971103018976 -1.029904766476342,-2.5556895678072777 q-0.9917600697091871,-0.8010369837527982 -3.280437328545503,-0.8010369837527982 z" style="font-style:normal;font-variant:normal;font-weight:normal;font-stretch:normal;font-size:40px;line-height:25px;font-family:'C+BoldItal';-inkscape-font-specification:'C+BoldItal';letter-spacing:0px;word-spacing:0px;fill:url(#linearGradient4863);fill-opacity:1;stroke:none;stroke-width:1px;stroke-linecap:butt;stroke-linejoin:miter;stroke-opacity:1" id="path1084" inkscape:connector-curvature="0" stroke-width="0" class=""/><path d="m420.60864312954527,126.35899593452814 l-2.746412710603579,22.314602023176008 h9.116564452257933 l-0.7628924006654678,6.293862120760394 h-16.364041604920885 l3.5093050544291344,-28.6084645986557 z" style="font-style:normal;font-variant:normal;font-weight:normal;font-stretch:normal;font-size:40px;line-height:25px;font-family:'C+BoldItal';-inkscape-font-specification:'C+BoldItal';letter-spacing:0px;word-spacing:0px;fill:url(#linearGradient4865);fill-opacity:1;stroke:none;stroke-width:1px;stroke-linecap:butt;stroke-linejoin:miter;stroke-opacity:1" id="path1086" inkscape:connector-curvature="0" stroke-width="0" class=""/><path d="m458.3414105934835,126.35899593452814 l-2.0216647225057045,16.554765429796134 q-0.49588003485459353,4.043329445011409 -1.2206277955928186,6.026850039149082 q-0.6866031776508947,1.9835201394183741 -2.059809532952684,3.3567264947201636 q-3.3185819116328332,3.2422927454581725 -9.726877781655219,3.2422927454581725 q-5.569114587381819,0 -8.773262295033362,-2.593834150894608 q-3.2041479350111928,-2.593834150894608 -3.2041479350111928,-7.09489927503293 q0,-1.2587724923599737 0.34330158882544737,-4.043329445011409 l1.9072309732437134,-15.448571610824956 h7.209333024294921 l-1.9072309732437134,15.448571610824956 q-0.11443385583682675,0.915470846694614 -0.11443385583682675,2.1742432822146753 q0,4.691788266934623 4.920655765458605,4.691788266934623 q2.593834150894608,0 3.8144619464874268,-1.3350616585346344 q1.2206277955928186,-1.3732063553017895 1.6020739675055964,-4.653643683847292 l1.9835201394183741,-16.325897931272152 z" style="font-style:normal;font-variant:normal;font-weight:normal;font-stretch:normal;font-size:40px;line-height:25px;font-family:'C+BoldItal';-inkscape-font-specification:'C+BoldItal';letter-spacing:0px;word-spacing:0px;fill:url(#linearGradient4867);fill-opacity:1;stroke:none;stroke-width:1px;stroke-linecap:butt;stroke-linejoin:miter;stroke-opacity:1" id="path1088" inkscape:connector-curvature="0" stroke-width="0" class=""/><path d="m481.45086386636467,128.41880887787556 l-3.1660033519238624,5.492825421207158 q-2.86084645986557,-2.136098699127345 -5.035089969439895,-2.136098699127345 q-1.4494955214764502,0 -2.326821841923646,0.6866031776508947 q-0.8773262636072836,0.6866031776508947 -0.8773262636072836,1.830941693389228 q0,0.6103138977964093 0.2670123373909181,1.1061939326510029 q0.5340246747818362,0.9536154866218567 3.3567264947201636,2.288677258836316 q3.585594220603795,1.6783632473600818 4.958800348545935,3.471160471341804 q1.3732063553017895,1.7546525272145672 1.3732063553017895,4.577354517672632 q0,4.31034198134202 -3.0515696026618713,7.056754691945599 q-3.0515696026618713,2.746412710603579 -7.857791391498836,2.746412710603579 q-2.593834150894608,0 -4.691788266934623,-0.6866031776508947 q-2.0979541160400146,-0.6866031776508947 -4.958800348545935,-2.4794001742729677 l3.2422927454581725,-5.492825421207158 q3.471160471341804,2.3649664250109765 6.064994622236412,2.3649664250109765 q1.7165078304474122,0 2.746412710603579,-0.8010369837527982 q1.0680493495636725,-0.8010369837527982 1.0680493495636725,-2.0979541160400146 q0,-0.9536154866218567 -0.6866031776508947,-1.6020739675055964 q-0.648458537723652,-0.648458537723652 -2.6319787339819385,-1.6402186642727514 q-3.852606529574757,-1.9453755563310438 -5.263957467963877,-3.661883386778456 q-1.3732063553017895,-1.7546525272145672 -1.3732063553017895,-4.653643683847292 q0,-3.8907511126620875 2.975280209127561,-6.446440907829015 q3.013425019574541,-2.5556895678072777 7.552634726800193,-2.5556895678072777 q4.2340528151673595,0 8.315527297985398,2.6319787339819385 z" style="font-style:normal;font-variant:normal;font-weight:normal;font-stretch:normal;font-size:40px;line-height:25px;font-family:'C+BoldItal';-inkscape-font-specification:'C+BoldItal';letter-spacing:0px;word-spacing:0px;fill:url(#linearGradient4869);fill-opacity:1;stroke:none;stroke-width:1px;stroke-linecap:butt;stroke-linejoin:miter;stroke-opacity:1" id="path1090" inkscape:connector-curvature="0" stroke-width="0" class=""/></g></svg>