<svg version="1.1" xmlns:x="http://ns.adobe.com/Extensibility/1.0/" xmlns:i="http://ns.adobe.com/AdobeIllustrator/10.0/" xmlns:graph="http://ns.adobe.com/Graphs/1.0/" xmlns="http://www.w3.org/2000/svg" xmlns:xlink="http://www.w3.org/1999/xlink" xmlns:a="http://ns.adobe.com/AdobeSVGViewerExtensions/3.0/" width="290.5" height="85.789" enable-background="new 23.577 0 290.5 85.789" xml:space="preserve" style=""><rect id="backgroundrect" width="100%" height="100%" x="0" y="0" fill="none" stroke="none"/>
<metadata>
	<sfw xmlns="http://ns.adobe.com/SaveForWeb/1.0/">
		<slices/>
		<sliceSourceBounds x="816.781" y="517.325" width="285.603" height="85.789" bottomLeftOrigin="true"/>
	</sfw>
</metadata>


<g class="currentLayer" style=""><title>Layer 1</title><g id="svg_1" class="">
	<path fill="#D61616" d="M252.9931944012642,70.4520034790039 H37.843566715717316 c-19.42300033569336,0 -35.22800064086914,-15.803999900817871 -35.22800064086914,-35.22800064086914 S18.42256909608841,0 37.843566715717316,0 h215.14599609375 c19.426000595092773,0 35.229000091552734,15.802000045776367 35.229000091552734,35.22600173950195 C288.2193143963814,54.64899826049805 272.4183195233345,70.4520034790039 252.9931944012642,70.4520034790039 zM37.843566715717316,8.333000183105469 c-14.829000473022461,0 -26.895000457763672,12.062999725341797 -26.895000457763672,26.895000457763672 c0,14.82800006866455 12.064000129699707,26.895000457763672 26.895000457763672,26.895000457763672 h215.14599609375 c14.826000213623047,0 26.895999908447266,-12.0649995803833 26.895999908447266,-26.895000457763672 c0,-14.829999923706055 -12.067999839782715,-26.895000457763672 -26.895999908447266,-26.895000457763672 H37.843566715717316 z" id="svg_2"/>
	<path fill="#D61616" d="M65.475570499897,51.5620002746582 V19.047000885009766 H55.697570621967316 v22.735000610351562 L41.2735670208931,19.047000885009766 H30.761569797992706 v32.51499938964844 h9.779000282287598 V28.093000411987305 l15.154000282287598,23.4689998626709 H65.475570499897 z" id="svg_3"/>
	<path fill="#D61616" d="M81.36756879091263,51.5620002746582 V29.559999465942383 h-9.777999877929688 v22.00200080871582 H81.36756879091263 z" id="svg_4"/>
	<path fill="#D61616" d="M81.36756879091263,24.913999557495117 v-5.867000102996826 h-9.777999877929688 v5.867000102996826 H81.36756879091263 z" id="svg_5"/>
	<path id="_x33_162" fill="#D61616" d="M115.59156781435013,51.5620002746582 V36.40299987792969 c0,-3.177999973297119 -6.111999988555908,-7.577000141143799 -9.288999557495117,-7.577000141143799 h-2.934999942779541 c-2.1989998817443848,0 -4.645999908447266,1.9559999704360962 -6.8460001945495605,2.934000015258789 V29.559999465942383 h-9.777999877929688 v22.00200080871582 h9.777999877929688 V36.40299987792969 c0,-1.4670000076293945 3.421999931335449,-3.177999973297119 4.890999794006348,-3.177999973297119 c1.4670000076293945,0 4.1539998054504395,1.7109999656677246 4.1539998054504395,3.177999973297119 v15.157999992370605 L115.59156781435013,51.5620002746582 L115.59156781435013,51.5620002746582 z"/>
	<path id="_x33_162_1_" fill="#D61616" d="M197.41256695985794,52.319000244140625 V37.1619987487793 c0,-3.180000066757202 -6.109000205993652,-7.578000068664551 -9.293000221252441,-7.578000068664551 h-2.931999921798706 c-2.2009999752044678,0 -4.645999908447266,1.9559999704360962 -6.848999977111816,2.933000087738037 v-2.1989998817443848 h-9.776000022888184 V52.31999969482422 h9.776000022888184 V37.1619987487793 c0,-1.4670000076293945 3.424999952316284,-3.180000066757202 4.892000198364258,-3.180000066757202 s4.1539998054504395,1.7130000591278076 4.1539998054504395,3.180000066757202 v15.156000137329102 H197.41256695985794 z"/>
	<path fill="#D61616" d="M131.4825742840767,51.5620002746582 V29.559999465942383 h5.135000228881836 v-2.934000015258789 h-5.135000228881836 v-4.645999908447266 h-10.020999908447266 v4.645999908447266 h-5.135000228881836 v2.934000015258789 h5.135000228881836 v22.00200080871582 H131.4825742840767 z" id="svg_6"/>
	<path fill="#D61616" d="M150.30656415224075,28.826000213623047 c-7.822999954223633,0 -14.42300033569336,5.377999782562256 -14.42300033569336,11.979000091552734 c0,6.8460001945495605 6.599999904632568,12.222999572753906 14.42300033569336,12.222999572753906 c6.8460001945495605,0 12.468999862670898,-3.9100000858306885 13.935999870300293,-9.045000076293945 h-10.020999908447266 v2.934999942779541 c0,2.444000005722046 -1.7089999914169312,3.180000066757202 -3.9100000858306885,3.180000066757202 c-2.1989998817443848,0 -3.6679999828338623,-0.734000027179718 -3.6679999828338623,-3.180000066757202 v-6.111000061035156 h18.0939998626709 C164.7325742840767,34.20500183105469 158.3765714764595,28.826000213623047 150.30656415224075,28.826000213623047 zM150.30656415224075,31.025999069213867 c2.2009999752044678,0 3.9119999408721924,1.468000054359436 3.9119999408721924,3.9119999408721924 v2.1989998817443848 h-7.578000068664551 v-2.1989998817443848 C146.64056378602982,32.49300003051758 148.1075742840767,31.025999069213867 150.30656415224075,31.025999069213867 z" id="svg_7"/>
	<path fill="#D61616" d="M246.63301068544388,28.826000213623047 c-8.069999694824219,0 -14.427000045776367,5.377999782562256 -14.427000045776367,11.979000091552734 c0,6.8460001945495605 6.354000091552734,12.222999572753906 14.427000045776367,12.222999572753906 c7.816999912261963,0 14.42199993133545,-5.376999855041504 14.42199993133545,-12.222999572753906 C261.05131512880325,34.20500183105469 254.45223981142044,28.826000213623047 246.63301068544388,28.826000213623047 zM246.63301068544388,31.025999069213867 c2.194000005722046,0 3.6659998893737793,1.468000054359436 3.6659998893737793,3.9119999408721924 v11.979000091552734 c0,2.443000078201294 -1.472000002861023,3.178999900817871 -3.6659998893737793,3.178999900817871 c-2.444999933242798,0 -3.9140000343322754,-0.734000027179718 -3.9140000343322754,-3.178999900817871 V34.9379997253418 C242.7169035077095,32.49300003051758 244.1859434247017,31.025999069213867 246.63301068544388,31.025999069213867 z" id="svg_8"/>
	<path fill="#D61616" d="M218.51556378602982,19.047000885009766 v11.979000091552734 c0,0 -2.937000036239624,-2.1989998817443848 -6.848999977111816,-2.1989998817443848 c-6.110000133514404,0 -11.244000434875488,5.377999782562256 -11.244000434875488,11.246000289916992 c0,6.111000061035156 5.136000156402588,12.223999977111816 11.244000434875488,12.223999977111816 c3.9119999408721924,0 6.848999977111816,-1.4670000076293945 6.848999977111816,-1.4670000076293945 v0.7310000061988831 h9.777999877929688 V19.047000885009766 H218.51556378602982 zM214.8475645184517,32.49300003051758 c2.197999954223633,0 3.6679999828338623,1.7120000123977661 3.6679999828338623,3.9119999408721924 v9.045000076293945 c0,2.200000047683716 -1.4700000286102295,2.934000015258789 -3.6679999828338623,2.934000015258789 c-2.443000078201294,0 -3.9119999408721924,-0.7319999933242798 -3.9119999408721924,-2.934000015258789 v-9.045000076293945 C210.93556195497513,34.20500183105469 212.4045713543892,32.49300003051758 214.8475645184517,32.49300003051758 z" id="svg_9"/>
	<g id="svg_10">
		<path fill="#D61616" d="M262.2743070721626,29.215999603271484 c-2.7730000019073486,0 -5.034999847412109,-2.257999897003174 -5.034999847412109,-5.034999847412109 c0,-2.9590001106262207 2.2130000591278076,-5.28000020980835 5.034999847412109,-5.28000020980835 c2.7290000915527344,0 5.0370001792907715,2.4170000553131104 5.0370001792907715,5.28000020980835 C267.31132489442825,26.86199951171875 264.9613187909126,29.215999603271484 262.2743070721626,29.215999603271484 zM262.2743070721626,19.683000564575195 c-2.4260001182556152,0 -4.251999855041504,1.934999942779541 -4.251999855041504,4.5 c0,2.3440001010894775 1.9079999923706055,4.254000186920166 4.251999855041504,4.254000186920166 c2.2290000915527344,0 4.254000186920166,-2.0269999504089355 4.254000186920166,-4.254000186920166 C266.528304874897,21.784000396728516 264.5453031659126,19.683000564575195 262.2743070721626,19.683000564575195 zM263.1593168377876,26.329999923706055 l-0.8629999756813049,-1.5160000324249268 h-1.0959999561309814 v1.3209999799728394 h-0.7789999842643738 V21.59000015258789 h2.1040000915527344 c0.9789999723434448,0 1.4880000352859497,0.8130000233650208 1.4880000352859497,1.6130000352859497 c0,0.6140000224113464 -0.30300000309944153,1.2369999885559082 -0.8849999904632568,1.4910000562667847 l0.7110000252723694,1.2480000257492065 L263.1593168377876,26.329999923706055 zM261.2003019452095,24.035999298095703 h1.3200000524520874 c0.22100000083446503,0 0.3959999978542328,-0.07900000363588333 0.5210000276565552,-0.23499999940395355 c0.11900000274181366,-0.14900000393390656 0.18799999356269836,-0.36800000071525574 0.18799999356269836,-0.597000002861023 c0,-0.31200000643730164 -0.15000000596046448,-0.8320000171661377 -0.7089999914169312,-0.8320000171661377 h-1.3200000524520874 V24.035999298095703 L261.2003019452095,24.035999298095703 z" id="svg_11"/>
	</g>
</g><g id="svg_12" class="" fill="#000000" fill-opacity="1">
	<path fill="#000000" d="M23.828567326068878,85.78900146484375 h-9.102999687194824 c-2.6010000705718994,0 -3.9010000228881836,-1.3009999990463257 -3.9010000228881836,-3.9010000228881836 v-7.802999973297119 h13.003999710083008 v2.6019999980926514 H13.424567997455597 v1.9500000476837158 h10.402999877929688 v2.6010000705718994 H13.424567997455597 v0.6499999761581421 c0,0.8669999837875366 0.4339999854564667,1.3009999990463257 1.3009999990463257,1.3009999990463257 h9.102999687194824 V85.78900146484375 z" id="svg_13" fill-opacity="1"/>
	<path fill="#000000" d="M25.129569828510284,85.78900146484375 V74.08499908447266 h9.102999687194824 c2.6010000705718994,0 3.9010000228881836,1.3009999990463257 3.9010000228881836,3.9010000228881836 v7.802999973297119 h-2.6010000705718994 v-7.802999973297119 c0,-0.8659999966621399 -0.4339999854564667,-1.2999999523162842 -1.2999999523162842,-1.2999999523162842 h-6.501999855041504 v9.102999687194824 H25.129569828510284 z" id="svg_14" fill-opacity="1"/>
	<path fill="#000000" d="M39.433566868305206,74.08499908447266 H52.43756848573685 v2.6019999980926514 h-5.202000141143799 v9.102999687194824 h-2.6010000705718994 v-9.102999687194824 h-5.202000141143799 V74.08499908447266 z" id="svg_15" fill-opacity="1"/>
	<path fill="#000000" d="M66.74156934022903,85.78900146484375 h-9.102999687194824 c-2.6010000705718994,0 -3.9010000228881836,-1.3009999990463257 -3.9010000228881836,-3.9010000228881836 v-7.802999973297119 h13.003999710083008 v2.6019999980926514 H56.33856946229935 v1.9500000476837158 h10.402999877929688 v2.6010000705718994 H56.33856946229935 v0.6499999761581421 c0,0.8669999837875366 0.4339999854564667,1.3009999990463257 1.3009999990463257,1.3009999990463257 h9.102999687194824 V85.78900146484375 z" id="svg_16" fill-opacity="1"/>
	<path fill="#000000" d="M70.64356976747513,81.23799896240234 v4.552000045776367 h-2.6010000705718994 V74.08499908447266 h9.102999687194824 c2.6010000705718994,0 3.9010000228881836,1.187999963760376 3.9010000228881836,3.562999963760376 c0,1.1269999742507935 -0.18700000643730164,1.9550000429153442 -0.5590000152587891,2.4830000400543213 c0.37299999594688416,0.6159999966621399 0.5590000152587891,1.4179999828338623 0.5590000152587891,2.4059998989105225 v3.250999927520752 h-2.6010000705718994 v-3.250999927520752 c0,-0.8669999837875366 -0.4339999854564667,-1.3009999990463257 -1.2999999523162842,-1.3009999990463257 H70.64356976747513 zM70.64356976747513,78.63700103759766 h7.802999973297119 v-1.9500000476837158 h-7.802999973297119 V78.63700103759766 z" id="svg_17" fill-opacity="1"/>
	<path fill="#000000" d="M82.3465650677681,74.08499908447266 h13.003999710083008 v2.6019999980926514 h-5.202000141143799 v9.102999687194824 h-2.6010000705718994 v-9.102999687194824 h-5.202000141143799 V74.08499908447266 z" id="svg_18" fill-opacity="1"/>
	<path fill="#000000" d="M99.2525709271431,82.53800201416016 v3.250999927520752 h-2.6010000705718994 v-7.802999973297119 c0,-2.6010000705718994 1.2999999523162842,-3.9010000228881836 3.9010000228881836,-3.9010000228881836 h5.202000141143799 c2.6010000705718994,0 3.9010000228881836,1.3009999990463257 3.9010000228881836,3.9010000228881836 v7.802999973297119 h-2.6010000705718994 v-3.250999927520752 H99.2525709271431 zM107.05456525087357,79.93800354003906 v-1.9509999752044678 c0,-0.8659999966621399 -0.4339999854564667,-1.2999999523162842 -1.2999999523162842,-1.2999999523162842 h-5.202000141143799 c-0.8669999837875366,0 -1.3009999990463257,0.4339999854564667 -1.3009999990463257,1.2999999523162842 v1.9509999752044678 H107.05456525087357 z" id="svg_19" fill-opacity="1"/>
	<path fill="#000000" d="M110.95657330751419,85.78900146484375 V74.08499908447266 h2.6010000705718994 v11.704000473022461 H110.95657330751419 z" id="svg_20" fill-opacity="1"/>
	<path fill="#000000" d="M114.85757428407669,85.78900146484375 V74.08499908447266 h9.102999687194824 c2.6010000705718994,0 3.9010000228881836,1.3009999990463257 3.9010000228881836,3.9010000228881836 v7.802999973297119 h-2.6010000705718994 v-7.802999973297119 c0,-0.8659999966621399 -0.4339999854564667,-1.2999999523162842 -1.2999999523162842,-1.2999999523162842 h-6.501999855041504 v9.102999687194824 H114.85757428407669 z" id="svg_21" fill-opacity="1"/>
	<path fill="#000000" d="M129.16157513856888,85.78900146484375 V74.08499908447266 h10.402999877929688 c2.6019999980926514,0 3.9010000228881836,1.3009999990463257 3.9010000228881836,3.9010000228881836 v7.802999973297119 h-2.6010000705718994 v-7.802999973297119 c0,-0.8659999966621399 -0.4339999854564667,-1.2999999523162842 -1.3009999990463257,-1.2999999523162842 h-1.9500000476837158 v9.102999687194824 h-2.6010000705718994 v-9.102999687194824 h-3.250999927520752 v9.102999687194824 H129.16157513856888 z" id="svg_22" fill-opacity="1"/>
	<path fill="#000000" d="M157.77056866884232,85.78900146484375 h-9.102999687194824 c-2.6010000705718994,0 -3.9010000228881836,-1.3009999990463257 -3.9010000228881836,-3.9010000228881836 v-7.802999973297119 h13.003999710083008 v2.6019999980926514 H147.36756879091263 v1.9500000476837158 h10.402999877929688 v2.6010000705718994 H147.36756879091263 v0.6499999761581421 c0,0.8669999837875366 0.4339999854564667,1.3009999990463257 1.3009999990463257,1.3009999990463257 h9.102999687194824 V85.78900146484375 z" id="svg_23" fill-opacity="1"/>
	<path fill="#000000" d="M159.0715635418892,85.78900146484375 V74.08499908447266 h9.102999687194824 c2.6019999980926514,0 3.9010000228881836,1.3009999990463257 3.9010000228881836,3.9010000228881836 v7.802999973297119 h-2.6010000705718994 v-7.802999973297119 c0,-0.8659999966621399 -0.4339999854564667,-1.2999999523162842 -1.3009999990463257,-1.2999999523162842 h-6.501999855041504 v9.102999687194824 H159.0715635418892 z" id="svg_24" fill-opacity="1"/>
	<path fill="#000000" d="M173.3765714764595,74.08499908447266 h13.003999710083008 v2.6019999980926514 h-5.201000213623047 v9.102999687194824 h-2.6019999980926514 v-9.102999687194824 h-5.201000213623047 V74.08499908447266 z" id="svg_25" fill-opacity="1"/>
	<path fill="#000000" d="M192.88256818056107,83.18900299072266 h10.402999877929688 v-1.9509999752044678 h-6.501999855041504 c-2.6010000705718994,0 -3.9010000228881836,-1.1749999523162842 -3.9010000228881836,-3.5230000019073486 c0,-2.4189999103546143 1.3009999990463257,-3.628999948501587 3.9010000228881836,-3.628999948501587 h9.102999687194824 v2.6019999980926514 h-10.402999877929688 v1.9500000476837158 h6.501999855041504 c2.6019999980926514,0 3.9010000228881836,1.1920000314712524 3.9010000228881836,3.5759999752044678 s-1.2999999523162842,3.5759999752044678 -3.9010000228881836,3.5759999752044678 h-9.102999687194824 V83.18900299072266 z" id="svg_26" fill-opacity="1"/>
	<path fill="#000000" d="M212.38757306337357,81.23799896240234 h-1.2999999523162842 c-2.6010000705718994,0 -3.9010000228881836,-1.2999999523162842 -3.9010000228881836,-3.9010000228881836 v-3.250999927520752 h2.6010000705718994 v3.250999927520752 c0,0.8669999837875366 0.4339999854564667,1.3009999990463257 1.3009999990463257,1.3009999990463257 h5.201000213623047 c0.8669999837875366,0 1.3009999990463257,-0.4339999854564667 1.3009999990463257,-1.3009999990463257 v-3.250999927520752 h2.6010000705718994 v3.250999927520752 c0,2.6019999980926514 -1.2999999523162842,3.9010000228881836 -3.9010000228881836,3.9010000228881836 h-1.2999999523162842 v4.552000045776367 h-2.6019999980926514 V81.23799896240234 z" id="svg_27" fill-opacity="1"/>
	<path fill="#000000" d="M221.4915617108345,83.18900299072266 h10.402999877929688 v-1.9509999752044678 h-6.501999855041504 c-2.6010000705718994,0 -3.9010000228881836,-1.1749999523162842 -3.9010000228881836,-3.5230000019073486 c0,-2.4189999103546143 1.3009999990463257,-3.628999948501587 3.9010000228881836,-3.628999948501587 h9.102999687194824 v2.6019999980926514 h-10.402999877929688 v1.9500000476837158 h6.501999855041504 c2.6019999980926514,0 3.9010000228881836,1.1920000314712524 3.9010000228881836,3.5759999752044678 s-1.2999999523162842,3.5759999752044678 -3.9010000228881836,3.5759999752044678 h-9.102999687194824 V83.18900299072266 z" id="svg_28" fill-opacity="1"/>
	<path fill="#000000" d="M235.79667645692825,74.08499908447266 h13.003999710083008 v2.6019999980926514 h-5.201000213623047 v9.102999687194824 h-2.6019999980926514 v-9.102999687194824 h-5.201000213623047 V74.08499908447266 z" id="svg_29" fill-opacity="1"/>
	<path fill="#000000" d="M263.1043241620064,85.78900146484375 h-9.102999687194824 c-2.6010000705718994,0 -3.9010000228881836,-1.3009999990463257 -3.9010000228881836,-3.9010000228881836 v-7.802999973297119 h13.003999710083008 v2.6019999980926514 h-10.402999877929688 v1.9500000476837158 h10.402999877929688 v2.6010000705718994 h-10.402999877929688 v0.6499999761581421 c0,0.8669999837875366 0.4339999854564667,1.3009999990463257 1.3009999990463257,1.3009999990463257 h9.102999687194824 V85.78900146484375 z" id="svg_30" fill-opacity="1"/>
	<path fill="#000000" d="M264.40531903505325,85.78900146484375 V74.08499908447266 h10.402999877929688 c2.6010000705718994,0 3.9010000228881836,1.3009999990463257 3.9010000228881836,3.9010000228881836 v7.802999973297119 h-2.6010000705718994 v-7.802999973297119 c0,-0.8659999966621399 -0.4339999854564667,-1.2999999523162842 -1.3009999990463257,-1.2999999523162842 h-1.9500000476837158 v9.102999687194824 h-2.6019999980926514 v-9.102999687194824 h-3.250999927520752 v9.102999687194824 H264.40531903505325 z" id="svg_31" fill-opacity="1"/>
</g></g></svg>