<svg version="1.1" xmlns="http://www.w3.org/2000/svg" xmlns:xlink="http://www.w3.org/1999/xlink" width="782.7853877544403" height="194.91324198246002" enable-background="new 0 0 566.929 194.629" xml:space="preserve" style=""><rect id="backgroundrect" width="100%" height="100%" x="0" y="0" fill="none" stroke="none" style="" class=""/>

<g class="currentLayer" style=""><title>Layer 1</title><g id="svg_1" class="">
	<rect fill="#FFE607" width="566.9290161132812" height="56.319000244140625" id="svg_2" y="0" x="111.41552186012268"/>
	<path d="M347.05214101076126,28.607999801635742 c0,4.249000072479248 0.023000000044703484,8.496999740600586 -0.008999999612569809,12.744999885559082 c-0.01899999938905239,2.430999994277954 -0.39100000262260437,2.7790000438690186 -2.7780001163482666,2.8580000400543213 c-0.7540000081062317,0.026000000536441803 -1.5180000066757202,-0.061000000685453415 -2.2639999389648438,0.017000000923871994 c-2.1710000038146973,0.22699999809265137 -3.759999990463257,-0.6819999814033508 -5.208000183105469,-2.246000051498413 c-6.146999835968018,-6.638999938964844 -12.359000205993652,-13.217000007629395 -18.54800033569336,-19.816999435424805 c-0.25699999928474426,-0.27399998903274536 -0.4950000047683716,-0.5770000219345093 -0.7900000214576721,-0.8040000200271606 c-0.4860000014305115,-0.375 -0.8970000147819519,-0.28700000047683716 -0.9660000205039978,0.37299999594688416 c-0.06700000166893005,0.6539999842643738 -0.03999999910593033,1.319000005722046 -0.03999999910593033,1.9800000190734863 c-0.0020000000949949026,5.757999897003174 0.010999999940395355,11.517000198364258 -0.006000000052154064,17.274999618530273 c-0.008999999612569809,2.930000066757202 -0.2930000126361847,3.187000036239624 -3.2679998874664307,3.2269999980926514 c-4.515999794006348,0.061000000685453415 -4.517000198364258,0.061000000685453415 -4.51800012588501,-4.5320000648498535 c0,-7.741000175476074 0,-15.482000350952148 0,-23.222999572753906 c0,-0.6610000133514404 -0.004999999888241291,-1.3220000267028809 0.017000000923871994,-1.9819999933242798 c0.03200000151991844,-0.984000027179718 0.5,-1.656000018119812 1.5269999504089355,-1.6749999523162842 c2.1689999103546143,-0.041999999433755875 4.353000164031982,-0.14499999582767487 6.502999782562256,0.05999999865889549 c0.8109999895095825,0.07800000160932541 1.6640000343322754,0.8220000267028809 2.2950000762939453,1.4630000591278076 c3.1089999675750732,3.1570000648498535 6.175000190734863,6.355999946594238 9.206999778747559,9.588000297546387 c3.2230000495910645,3.436000108718872 6.380000114440918,6.934000015258789 9.595000267028809,10.378000259399414 c0.35100001096725464,0.37599998712539673 0.8859999775886536,0.5799999833106995 1.3359999656677246,0.8629999756813049 c0.08399999886751175,-0.5360000133514404 0.23999999463558197,-1.0709999799728394 0.24199999868869781,-1.6069999933242798 c0.017999999225139618,-5.568999767303467 0.009999999776482582,-11.138999938964844 0.010999999940395355,-16.708999633789062 c0,-0.6610000133514404 -0.041999999433755875,-1.3259999752044678 0.019999999552965164,-1.9809999465942383 c0.14300000667572021,-1.5219999551773071 0.5920000076293945,-2.055000066757202 2.1050000190734863,-2.0820000171661377 c6.50600004196167,-0.11400000005960464 5.48799991607666,-0.3269999921321869 5.5320000648498535,5.068999767303467 C347.0761278271675,21.43400001525879 347.05311757326126,25.020999908447266 347.05214101076126,28.607999801635742 z" id="svg_3"/>
	<path d="M176.53810292482376,26.364999771118164 c2.1689999103546143,0 4.339000225067139,0 6.508999824523926,0 c1.2740000486373901,0 1.906000018119812,0.6309999823570251 1.9049999713897705,1.909000039100647 c-0.003000000026077032,3.7730000019073486 0.0020000000949949026,7.546000003814697 0,11.319999694824219 c-0.0010000000474974513,1.4609999656677246 -0.7409999966621399,2.062999963760376 -2.1760001182556152,2.492000102996826 c-1.434999942779541,0.4300000071525574 -5.863999843597412,1.3370000123977661 -10.829000473022461,1.7710000276565552 c-4.965000152587891,0.4339999854564667 -8.795000076293945,-0.17299999296665192 -13.031000137329102,-1.3869999647140503 c-1.9529999494552612,-0.5600000023841858 -3.819999933242798,-1.5729999542236328 -5.579999923706055,-2.627000093460083 c-8.72599983215332,-5.223999977111816 -9.135000228881836,-17.32699966430664 0.057999998331069946,-23.45800018310547 c3.5920000076293945,-2.3959999084472656 7.572000026702881,-3.568000078201294 11.829000473022461,-4.267000198364258 c4.734000205993652,-0.777999997138977 9.369000434875488,-0.2709999978542328 14.039999961853027,0.1889999955892563 c0.8339999914169312,0.0820000022649765 1.6720000505447388,0.28999999165534973 2.4700000286102295,0.5529999732971191 c1.5390000343322754,0.5080000162124634 1.899999976158142,1.0570000410079956 1.9620000123977661,2.696000099182129 c0.08699999749660492,2.319000005722046 -0.5709999799728394,2.805000066757202 -2.865999937057495,2.174999952316284 c-5.25600004196167,-1.444000005722046 -10.581000328063965,-1.7050000429153442 -15.906999588012695,-0.5619999766349792 c-2.693000078201294,0.578000009059906 -5.140999794006348,1.815000057220459 -7.146999835968018,3.799999952316284 c-4.565999984741211,4.51800012588501 -3.8340001106262207,12.206999778747559 1.559000015258789,15.690999984741211 c2.246000051498413,1.4509999752044678 4.702000141143799,2.1389999389648438 7.446000099182129,2.2980000972747803 c2.740000009536743,0.1589999943971634 3.197000026702881,0.1589999943971634 5.941999912261963,-0.028999999165534973 c0.9259999990463257,-0.06300000101327896 1.8450000286102295,-0.2939999997615814 2.7720000743865967,-0.41200000047683716 c1.284999966621399,-0.16500000655651093 1.7059999704360962,-0.9070000052452087 1.687999963760376,-2.1470000743865967 c-0.0949999988079071,-6.195000171661377 0.7089999914169312,-5.073999881744385 -4.998000144958496,-5.188000202178955 c-0.7540000081062317,-0.014999999664723873 -1.5160000324249268,0.05400000140070915 -2.26200008392334,-0.028999999165534973 c-1.906999945640564,-0.210999995470047 -2.864000082015991,-2.0329999923706055 -2.0260000228881836,-3.753000020980835 c0.4440000057220459,-0.9110000133514404 1.2419999837875366,-1.0509999990463257 2.134000062942505,-1.0460000038146973 c2.1700000762939453,0.009999999776482582 4.339000225067139,0.003000000026077032 6.508999824523926,0.003000000026077032 C176.53810292482376,26.358999252319336 176.53810292482376,26.36199951171875 176.53810292482376,26.364999771118164 z" id="svg_4"/>
	<path d="M233.9731004834175,28.121000289916992 c0,-3.9660000801086426 -0.009999999776482582,-7.934000015258789 0.0020000000949949026,-11.899999618530273 c0.010999999940395355,-3.257999897003174 0.19300000369548798,-3.4579999446868896 3.309999942779541,-3.4660000801086426 c6.232999801635742,-0.014999999664723873 12.467000007629395,-0.024000000208616257 18.700000762939453,0.006000000052154064 c2.302999973297119,0.010999999940395355 2.6050000190734863,0.328000009059906 2.6510000228881836,2.308000087738037 c0.05000000074505806,2.187000036239624 -0.3199999928474426,2.6040000915527344 -2.615999937057495,2.625999927520752 c-3.7769999504089355,0.03700000047683716 -7.556000232696533,-0.004000000189989805 -11.333000183105469,0.01600000075995922 c-2.562000036239624,0.014999999664723873 -2.569000005722046,0.03700000047683716 -2.6110000610351562,2.4749999046325684 c-0.019999999552965164,1.1330000162124634 -0.028999999165534973,2.2679998874664307 0.003000000026077032,3.4000000953674316 c0.05900000035762787,2.0920000076293945 0.11800000071525574,2.1700000762939453 2.322999954223633,2.190000057220459 c3.49399995803833,0.03099999949336052 6.988999843597412,-0.019999999552965164 10.482999801635742,0.019999999552965164 c2.3480000495910645,0.026000000536441803 3.4200000762939453,1.8519999980926514 2.431999921798706,4.017000198364258 c-0.44999998807907104,0.984000027179718 -1.340999960899353,0.9169999957084656 -2.180999994277954,0.9210000038146973 c-2.927999973297119,0.01600000075995922 -5.855999946594238,0.00800000037997961 -8.784000396728516,0.00800000037997961 c-0.6610000133514404,0 -1.3229999542236328,-0.014999999664723873 -1.9830000400543213,0.003000000026077032 c-2.184999942779541,0.05999999865889549 -2.239000082015991,0.10100000351667404 -2.2909998893737793,2.2279999256134033 c-0.032999999821186066,1.3209999799728394 -0.032999999821186066,2.6449999809265137 0,3.9660000801086426 c0.04699999839067459,1.9529999494552612 0.06400000303983688,1.9880000352859497 2.132999897003174,2.003000020980835 c3.7780001163482666,0.027000000700354576 7.554999828338623,0.007000000216066837 11.333000183105469,0.007000000216066837 c0.5659999847412109,0 1.1339999437332153,-0.024000000208616257 1.7000000476837158,0.007000000216066837 c2.0290000438690186,0.10999999940395355 2.5,0.5950000286102295 2.5230000019073486,2.552000045776367 c0.024000000208616257,2.124000072479248 -0.44600000977516174,2.680000066757202 -2.6579999923706055,2.691999912261963 c-6.704999923706055,0.039000000804662704 -13.41100025177002,0.03799999877810478 -20.117000579833984,0.0010000000474974513 c-2.4059998989105225,-0.013000000268220901 -2.9860000610351562,-0.6140000224113464 -3.009000062942505,-3.0480000972747803 C233.94410878419876,36.81100082397461 233.9731004834175,32.465999603271484 233.9731004834175,28.121000289916992 z" id="svg_5"/>
	<path d="M398.89979726076126,28.149999618530273 c0,-4.15500020980835 -0.024000000208616257,-8.312000274658203 0.008999999612569809,-12.467000007629395 c0.020999999716877937,-2.555000066757202 0.39100000262260437,-2.9159998893737793 2.992000102996826,-2.924999952316284 c6.327000141143799,-0.023000000044703484 12.654999732971191,-0.027000000700354576 18.98200035095215,0.003000000026077032 c2.4140000343322754,0.010999999940395355 3.4549999237060547,1.7109999656677246 2.5209999084472656,3.9590001106262207 c-0.41600000858306885,1.003000020980835 -1.2929999828338623,0.9789999723434448 -2.1440000534057617,0.9789999723434448 c-3.3989999294281006,0.012000000104308128 -6.801000118255615,0.0020000000949949026 -10.199999809265137,0.00800000037997961 c-4.5269999504089355,0.008999999612569809 -4.046000003814697,-0.38499999046325684 -4.056000232696533,4.150000095367432 c-0.013000000268220901,4.317999839782715 -0.3540000021457672,3.9170000553131104 3.99399995803833,3.927000045776367 c3.0209999084472656,0.006000000052154064 6.045000076293945,-0.006000000052154064 9.0649995803833,0.008999999612569809 c0.8410000205039978,0.004000000189989805 1.9329999685287476,-0.10300000011920929 2.125999927520752,0.9340000152587891 c0.20000000298023224,1.065000057220459 0.1679999977350235,2.2639999389648438 -0.14300000667572021,3.2899999618530273 c-0.12099999934434891,0.4000000059604645 -1.2699999809265137,0.671999990940094 -1.9589999914169312,0.6899999976158142 c-2.8299999237060547,0.07699999958276749 -5.665999889373779,0.03400000184774399 -8.498000144958496,0.03500000014901161 c-0.5649999976158142,0 -1.1349999904632568,-0.004000000189989805 -1.6990000009536743,0 c-2.8610000610351562,0.02199999988079071 -2.865999937057495,0.02199999988079071 -2.8929998874664307,2.7669999599456787 c-0.010999999940395355,1.2280000448226929 -0.03500000014901161,2.4570000171661377 0.00800000037997961,3.684000015258789 c0.06199999898672104,1.6649999618530273 0.09300000220537186,1.7280000448226929 1.8170000314712524,1.74399995803833 c3.9660000801086426,0.03700000047683716 7.933000087738037,0.010999999940395355 11.89900016784668,0.013000000268220901 c0.6600000262260437,0 1.3279999494552612,-0.04800000041723251 1.9800000190734863,0.028999999165534973 c1.6069999933242798,0.1889999955892563 2.0380001068115234,0.824999988079071 1.9850000143051147,2.7839999198913574 c-0.04699999839067459,1.7280000448226929 -0.4779999852180481,2.309000015258789 -2.062999963760376,2.4189999103546143 c-1.409999966621399,0.0989999994635582 -2.8320000171661377,0.032999999821186066 -4.248000144958496,0.032999999821186066 c-5.385000228881836,0.0020000000949949026 -10.769000053405762,0.01899999938905239 -16.14900016784668,-0.007000000216066837 c-2.7799999713897705,-0.014000000432133675 -3.309999942779541,-0.5419999957084656 -3.3259999752044678,-3.308000087738037 C398.87681752443314,36.650001525878906 398.89979726076126,32.400001525878906 398.89979726076126,28.149999618530273 z" id="svg_6"/>
	<path d="M504.6088121533394,15.428999900817871 c-0.03500000014901161,1.9889999628067017 -0.527999997138977,2.503000020980835 -2.380000114440918,1.9320000410079956 c-3.6040000915527344,-1.1130000352859497 -7.263999938964844,-1.024999976158142 -10.928000450134277,-0.7519999742507935 c-1.277999997138977,0.09600000083446503 -2.6110000610351562,0.47099998593330383 -3.76200008392334,1.0390000343322754 c-2.3910000324249268,1.180999994277954 -2.4790000915527344,3.760999917984009 -0.17599999904632568,5.0970001220703125 c1.4550000429153442,0.843999981880188 3.072000026702881,1.4129999876022339 4.638999938964844,2.055999994277954 c3.13100004196167,1.2869999408721924 6.298999786376953,2.4800000190734863 9.395999908447266,3.8389999866485596 c1.1019999980926514,0.4830000102519989 2.171999931335449,1.1990000009536743 3.0230000019073486,2.0429999828338623 c3.2309999465942383,3.2039999961853027 2.752000093460083,7.135000228881836 -0.5590000152587891,9.75 c-2.615000009536743,2.066999912261963 -5.75,2.75600004196167 -8.928999900817871,3.190999984741211 c-4.485000133514404,0.6129999756813049 -8.968000411987305,0.35600000619888306 -13.418000221252441,-0.44200000166893005 c-0.6460000276565552,-0.11599999666213989 -1.2860000133514404,-0.2840000092983246 -1.9110000133514404,-0.48399999737739563 c-1.850000023841858,-0.593999981880188 -2.7009999752044678,-2.4179999828338623 -1.9040000438690186,-4.203999996185303 c0.15199999511241913,-0.34200000762939453 0.6880000233650208,-0.7229999899864197 1.0429999828338623,-0.722000002861023 c0.7310000061988831,0.0020000000949949026 1.468999981880188,0.22499999403953552 2.191999912261963,0.4020000100135803 c4.229000091552734,1.0369999408721924 8.473999977111816,1.7740000486373901 12.824999809265137,0.7770000100135803 c0.18400000035762787,-0.041999999433755875 0.38199999928474426,-0.020999999716877937 0.5630000233650208,-0.07100000232458115 c1.753999948501587,-0.4860000014305115 3.74399995803833,-0.9819999933242798 4.021999835968018,-3.0429999828338623 c0.25999999046325684,-1.9249999523162842 -1.3509999513626099,-2.98799991607666 -2.9539999961853027,-3.691999912261963 c-1.7130000591278076,-0.753000020980835 -3.4619998931884766,-1.444000005722046 -5.239999771118164,-2.0280001163482666 c-3.2269999980926514,-1.0609999895095825 -6.48199987411499,-2.1040000915527344 -9.229000091552734,-4.139999866485596 c-1.2369999885559082,-0.9169999957084656 -2.361999988555908,-2.2300000190734863 -3.0369999408721924,-3.6089999675750732 c-1.1180000305175781,-2.2850000858306885 -0.11800000071525574,-5.136000156402588 2.003000020980835,-6.809999942779541 c2.115999937057495,-1.6699999570846558 4.553999900817871,-2.700000047683716 7.171999931335449,-3.1670000553131104 c5.035999774932861,-0.8970000147819519 10.098999977111816,-0.9869999885559082 15.154999732971191,-0.07999999821186066 C504.188798725605,12.663999557495117 504.64781361818314,13.24899959564209 504.6088121533394,15.428999900817871 z" id="svg_7"/>
	<path d="M641.393388569355,15.428999900817871 c-0.03500000014901161,1.9889999628067017 -0.5270000100135803,2.503000020980835 -2.38100004196167,1.9320000410079956 c-3.6019999980926514,-1.1130000352859497 -7.26200008392334,-1.024999976158142 -10.928000450134277,-0.7519999742507935 c-1.2769999504089355,0.09600000083446503 -2.6089999675750732,0.47099998593330383 -3.759999990463257,1.0390000343322754 c-2.3910000324249268,1.180999994277954 -2.4800000190734863,3.760999917984009 -0.17599999904632568,5.0970001220703125 c1.4550000429153442,0.843999981880188 3.069999933242798,1.4129999876022339 4.638999938964844,2.055999994277954 c3.128999948501587,1.2869999408721924 6.298999786376953,2.4800000190734863 9.395000457763672,3.8389999866485596 c1.1019999980926514,0.4830000102519989 2.1740000247955322,1.1990000009536743 3.0230000019073486,2.0429999828338623 c3.2320001125335693,3.2039999961853027 2.753999948501587,7.135000228881836 -0.5569999814033508,9.75 c-2.617000102996826,2.066999912261963 -5.75,2.75600004196167 -8.930000305175781,3.190999984741211 c-4.484000205993652,0.6129999756813049 -8.968999862670898,0.35600000619888306 -13.418000221252441,-0.44200000166893005 c-0.6460000276565552,-0.11599999666213989 -1.284999966621399,-0.2840000092983246 -1.909999966621399,-0.48399999737739563 c-1.850000023841858,-0.593999981880188 -2.7009999752044678,-2.4179999828338623 -1.9040000438690186,-4.203999996185303 c0.15000000596046448,-0.34200000762939453 0.6859999895095825,-0.7229999899864197 1.0429999828338623,-0.722000002861023 c0.7300000190734863,0.0020000000949949026 1.468999981880188,0.22499999403953552 2.190999984741211,0.4020000100135803 c4.229000091552734,1.0369999408721924 8.475000381469727,1.7740000486373901 12.826000213623047,0.7770000100135803 c0.18400000035762787,-0.041999999433755875 0.38100001215934753,-0.020999999716877937 0.5609999895095825,-0.07100000232458115 c1.753999948501587,-0.4860000014305115 3.746000051498413,-0.9819999933242798 4.0229997634887695,-3.0429999828338623 c0.2619999945163727,-1.9249999523162842 -1.3519999980926514,-2.98799991607666 -2.953000068664551,-3.691999912261963 c-1.7130000591278076,-0.753000020980835 -3.4630000591278076,-1.444000005722046 -5.239999771118164,-2.0280001163482666 c-3.2290000915527344,-1.0609999895095825 -6.484000205993652,-2.1040000915527344 -9.229000091552734,-4.139999866485596 c-1.2380000352859497,-0.9169999957084656 -2.36299991607666,-2.2300000190734863 -3.0369999408721924,-3.6089999675750732 c-1.1169999837875366,-2.2850000858306885 -0.11900000274181366,-5.136000156402588 2.002000093460083,-6.809999942779541 c2.117000102996826,-1.6699999570846558 4.554999828338623,-2.700000047683716 7.171999931335449,-3.1670000553131104 c5.0370001792907715,-0.8970000147819519 10.100000381469727,-0.9869999885559082 15.157999992370605,-0.07999999821186066 C640.9734056591988,12.663999557495117 641.4323900341988,13.24899959564209 641.393388569355,15.428999900817871 z" id="svg_8"/>
	<path d="M564.290361225605,12.765999794006348 c1.9800000190734863,0 3.9649999141693115,-0.06499999761581421 5.940999984741211,0.020999999716877937 c1.4160000085830688,0.06199999898672104 1.75600004196167,0.5329999923706055 1.812999963760376,1.9789999723434448 c0.06400000303983688,1.6160000562667847 -0.29100000858306885,2.0969998836517334 -1.7300000190734863,2.3550000190734863 c-2.3259999752044678,0.4169999957084656 -2.3499999046325684,0.4169999957084656 -2.3550000190734863,2.749000072479248 c-0.012000000104308128,5.754000186920166 -0.012000000104308128,11.508999824523926 0.0020000000949949026,17.26300048828125 c0.004000000189989805,2.0360000133514404 0.028999999165534973,2.0360000133514404 2.0350000858306885,2.3959999084472656 c1.6519999504089355,0.29600000381469727 2.0899999141693115,0.8180000185966492 2.046999931335449,2.443000078201294 c-0.04100000113248825,1.5670000314712524 -0.5609999895095825,2.187000036239624 -2.2639999389648438,2.2160000801086426 c-3.7709999084472656,0.06599999964237213 -7.546999931335449,0.06499999761581421 -11.317999839782715,-0.00800000037997961 c-1.5449999570846558,-0.029999999329447746 -2.0390000343322754,-0.6340000033378601 -2.128999948501587,-2.062000036239624 c-0.10199999809265137,-1.6360000371932983 0.328000009059906,-2.2230000495910645 1.8980000019073486,-2.5840001106262207 c2.0199999809265137,-0.46399998664855957 2.0510001182556152,-0.46399998664855957 2.056999921798706,-2.4679999351501465 c0.017999999225139618,-5.848999977111816 0.017999999225139618,-11.696999549865723 0,-17.54599952697754 c-0.00800000037997961,-2.003999948501587 -0.0430000014603138,-2.003999948501587 -2.1459999084472656,-2.3959999084472656 c-1.5329999923706055,-0.28600001335144043 -1.8519999980926514,-0.6819999814033508 -1.8109999895095825,-2.2809998989105225 c0.03700000047683716,-1.5679999589920044 0.3959999978542328,-2.006999969482422 2.0179998874664307,-2.066999912261963 c1.9800000190734863,-0.07199999690055847 3.9649999141693115,-0.017000000923871994 5.942999839782715,-0.017000000923871994 C564.290361225605,12.76200008392334 564.290361225605,12.763999938964844 564.290361225605,12.765999794006348 z" id="svg_9"/>
	<path fill="#0084E2" d="M452.7917955517769,193.96800231933594 c-2.259999990463257,-2.384999990463257 -8.34000015258789,-2.5999999046325684 -9.28499984741211,-2.5999999046325684 c-42.5880012512207,0 -85.17400360107422,-0.0020000000949949026 -127.76499938964844,0.0020000000949949026 c-4.328999996185303,0 -5.107999801635742,0.5320000052452087 -4.578000068664551,-4.956999778747559 c0.8679999709129333,-8.979000091552734 4.166999816894531,-17.32200050354004 10.687999725341797,-23.764999389648438 c1.2489999532699585,-1.2710000276565552 1.6660000085830688,-1.7000000476837158 4.519999980926514,-4.2870001792907715 c12.092000007629395,-10.956999778747559 36.18199920654297,-19.743000030517578 36.18199920654297,-19.743000030517578 s20.159000396728516,-7.442999839782715 31.479000091552734,-11.89799976348877 c5.085000038146973,-2 10.050000190734863,-4.309000015258789 14.57800006866455,-7.443999767303467 c16.420000076293945,-12.944000244140625 7.894000053405762,-25.788999557495117 -13.755000114440918,-28.781999588012695 c-15.163000106811523,-2.1700000762939453 -28.97800064086914,1.5329999923706055 -41.74800109863281,9.677000045776367 c-1.6670000553131104,1.0640000104904175 -3.0739998817443848,2.125 -4.684000015258789,3.2809998989105225 c-2.8559999465942383,2.4140000343322754 -5.307000160217285,5.229000091552734 -5.835999965667725,8.34000015258789 c-0.28600001335144043,1.6799999475479126 -0.013000000268220901,2.8380000591278076 0.020999999716877937,3.111999988555908 c0.1080000028014183,0.8709999918937683 0.375,2.250999927520752 -0.2720000147819519,2.884000062942505 c-0.777999997138977,0.7599999904632568 -2.3940000534057617,-0.0020000000949949026 -3.1110000610351562,-0.6809999942779541 c-6.579999923706055,-6.218999862670898 -13.17199993133545,-12.423999786376953 -19.759000778198242,-18.63599967956543 c-0.41200000047683716,-0.3889999985694885 -1.1729999780654907,-1.2209999561309814 -1.1729999780654907,-1.2209999561309814 s-0.7200000286102295,-0.8339999914169312 -0.7450000047683716,-1.406000018119812 c-0.028999999165534973,-0.6439999938011169 0.6039999723434448,-1.2489999532699585 1.3600000143051147,-1.4850000143051147 c3.5889999866485596,-0.6610000133514404 5.244999885559082,-0.8730000257492065 7.39900016784668,-2.447999954223633 c5.796999931335449,-4.236999988555908 11.854999542236328,-8.024999618530273 18.325000762939453,-11.180000305175781 c8.651000022888184,-4.218999862670898 17.746999740600586,-6.72599983215332 27.27199935913086,-8.010000228881836 c7.324999809265137,-0.9879999756813049 28.84000015258789,-4.3379998207092285 53.972999572753906,6.836999893188477 c6.629000186920166,2.9070000648498535 12.312999725341797,7.02400016784668 16.597000122070312,12.831000328063965 c2.5360000133514404,3.437000036239624 12.095000267028809,22.2810001373291 -7.381999969482422,37.33300018310547 c-6.9629998207092285,5.5879998207092285 -15.274999618530273,9.038999557495117 -23.673999786376953,11.972000122070312 c-7.188000202178955,2.509999990463257 -12.46500015258789,4.395999908447266 -24.226999282836914,7.794000148773193 c-8.930999755859375,2.6579999923706055 -15.342000007629395,4.736000061035156 -25.562999725341797,9.585000038146973 c-8.128999710083008,3.8559999465942383 -13.46500015258789,8.543000221252441 -13.46500015258789,8.543000221252441 s-2.6619999408721924,2.052999973297119 -2.1470000743865967,3.6589999198913574 c0.44600000977516174,1.3940000534057617 2.6679999828338623,1.253999948501587 3.9749999046325684,1.2569999694824219 c31.44499969482422,0.019999999552965164 62.891998291015625,0.014000000432133675 94.33699798583984,0.01600000075995922 c3.253999948501587,0 6.4079999923706055,-0.2290000021457672 8.892999649047852,-2.7839999198913574 c0.3610000014305115,-0.37299999594688416 1.3179999589920044,-0.5740000009536743 1.75,-0.3569999933242798 c0.414000004529953,0.2070000022649765 0.703000009059906,1.0609999895095825 0.7070000171661377,1.6330000162124634 c0.04899999871850014,7.364999771118164 0.050999999046325684,14.892999649047852 0.00800000037997961,22.257999420166016 c-0.006000000052154064,0.7149999737739563 -0.2409999966621399,0.9710000157356262 -0.5960000157356262,1.1779999732971191 C454.55281239748,194.78900146484375 453.4127977490425,194.6230010986328 452.7917955517769,193.96800231933594 z" id="svg_10"/>
	<path fill="#0084E2" d="M218.51510792970657,193.04200744628906 c-5.158999919891357,-0.3149999976158142 -10.331999778747559,-0.9789999723434448 -15.427000045776367,-1.878999948501587 c-20.73900032043457,-3.6559998989105225 -30.385000228881836,-8.553999900817871 -36.17399978637695,-10.826000213623047 c-2.7660000324249268,-1.0859999656677246 -5.46999979019165,-2.114000082015991 -8.47599983215332,-1.0119999647140503 c-0.34299999475479126,0.12700000405311584 -0.7450000047683716,0.11999999731779099 -1.121000051498413,0.12700000405311584 c-1.9110000133514404,0.020999999716877937 -2.496000051498413,-0.722000002861023 -1.6660000085830688,-2.427000045776367 c0.9890000224113464,-2.0320000648498535 2.1480000019073486,-3.984999895095825 3.316999912261963,-5.926000118255615 c3.1670000553131104,-5.251999855041504 6.375999927520752,-10.479000091552734 9.569999694824219,-15.717000007629395 c0.1469999998807907,-0.23999999463558197 0.3149999976158142,-0.47099998593330383 0.46000000834465027,-0.7149999737739563 c0.6510000228881836,-1.090000033378601 1.3660000562667847,-2.0999999046325684 2.8580000400543213,-1.8910000324249268 c1.402999997138977,0.19699999690055847 1.7059999704360962,1.3539999723434448 2,2.4509999752044678 c0.6420000195503235,2.38700008392334 2.0989999771118164,4.165999889373779 4.015999794006348,5.646999835968018 c4.535999774932861,3.510999917984009 9.659000396728516,5.873000144958496 15.032999992370605,7.748000144958496 c6.968999862670898,2.430999994277954 14.142999649047852,3.953000068664551 21.429000854492188,5.0970001220703125 c8.626999855041504,1.3539999723434448 17.298999786376953,1.5260000228881836 25.961000442504883,1.0240000486373901 c7.3420000076293945,-0.4269999861717224 14.576000213623047,-1.7519999742507935 21.49799919128418,-4.456999778747559 c4.2129998207092285,-1.6460000276565552 7.408999919891357,-4.552000045776367 9.968000411987305,-8.102999687194824 c3.3949999809265137,-4.710999965667725 2.003999948501587,-11.187999725341797 -2.621999979019165,-14.871000289916992 c-6.283999919891357,-5.001999855041504 -13.592000007629395,-6.979000091552734 -21.33300018310547,-8.309000015258789 c-6.960000038146973,-1.1929999589920044 -13.911999702453613,-1.065000057220459 -20.878999710083008,-0.9750000238418579 c-3.2709999084472656,0.0430000014603138 -11.09000015258789,0.3540000021457672 -14.086999893188477,3.134999990463257 c-1.1039999723434448,0.972000002861023 -1.9789999723434448,1.0449999570846558 -2.503999948501587,0.5720000267028809 c-0.5249999761581421,-0.47600001096725464 -0.5479999780654907,-1.2280000448226929 -0.5540000200271606,-1.8860000371932983 c-0.05900000035762787,-6.800000190734863 -0.06599999964237213,-13.602999687194824 -0.020999999716877937,-20.400999069213867 c0.014999999664723873,-2.2269999980926514 1.0540000200271606,-2.9019999504089355 2.7799999713897705,-1.6929999589920044 c2.180000066757202,1.5269999504089355 4.598999977111816,2.194999933242798 7.125,2.5190000534057617 c4.196000099182129,0.5389999747276306 17.892000198364258,0.06300000101327896 20.690000534057617,-0.30300000309944153 c7.480999946594238,-0.9779999852180481 6.828000068664551,-0.8600000143051147 11.194000244140625,-2.0299999713897705 c4.672999858856201,-1.2510000467300415 9.130999565124512,-4.531000137329102 11.458000183105469,-7.242000102996826 c0.03799999877810478,-0.0430000014603138 0.07599999755620956,-0.08799999952316284 0.11299999803304672,-0.13300000131130219 c3.24399995803833,-3.9079999923706055 2.1540000438690186,-8.406000137329102 -0.8640000224113464,-11.62600040435791 c-2.8980000019073486,-3.0910000801086426 -6.540999889373779,-5.070000171661377 -10.597000122070312,-6.267000198364258 c-6.646999835968018,-1.9600000381469727 -13.456000328063965,-3.0320000648498535 -20.364999771118164,-2.7070000171661377 c-12.506999969482422,0.5879999995231628 -24.77400016784668,2.496999979019165 -36.08300018310547,8.315999984741211 c-2.5889999866485596,1.3320000171661377 -5.015999794006348,3.007999897003174 -7.4070000648498535,4.685999870300293 c-2.0420000553131104,1.4320000410079956 -3.069999933242798,3.5309998989105225 -3.128000020980835,6.056000232696533 c-0.029999999329447746,1.312999963760376 0.18000000715255737,2.815000057220459 -1.378999948501587,3.388000011444092 c-1.5729999542236328,0.578000009059906 -2.388000011444092,-0.7910000085830688 -3.2850000858306885,-1.7009999752044678 c-5.760000228881836,-5.8520002365112305 -11.496000289916992,-11.72700023651123 -17.238000869750977,-17.597999572753906 c-0.33000001311302185,-0.3370000123977661 -0.6980000138282776,-0.6579999923706055 -0.9419999718666077,-1.0529999732971191 c-0.6940000057220459,-1.1230000257492065 -0.2669999897480011,-2.053999900817871 1.062999963760376,-2.2079999446868896 c1.4880000352859497,-0.1720000058412552 3.0820000171661377,0.06300000101327896 4.464000225067139,-0.3869999945163727 c2.0420000553131104,-0.6650000214576721 3.9519999027252197,-1.753000020980835 5.894999980926514,-2.7070000171661377 c5.164999961853027,-2.5329999923706055 10.194999694824219,-5.386000156402588 15.501999855041504,-7.570000171661377 c8.404999732971191,-3.4579999446868896 17.25,-5.315999984741211 26.28499984741211,-6.436999797821045 c8.64799976348877,-1.0729999542236328 23.9060001373291,-1.5190000534057617 34.944000244140625,0.11100000143051147 c7.377999782562256,1.1150000095367432 14.690999984741211,2.5969998836517334 21.538999557495117,5.64900016784668 c6.040999889373779,2.691999912261963 11.9399995803833,5.697999954223633 16.450000762939453,10.779000282287598 c3.259999990463257,3.671999931335449 5.448999881744385,7.775000095367432 6.183000087738037,12.75100040435791 c0.7039999961853027,4.769999980926514 -0.08100000023841858,9.126999855041504 -2.119999885559082,13.406000137329102 c-1.4040000438690186,2.947000026702881 -3.503999948501587,4.855999946594238 -6.39300012588501,6.5879998207092285 c-5.668000221252441,3.3989999294281006 -9.02400016784668,4.248000144958496 -9.741000175476074,4.684999942779541 c-1.1399999856948853,0.6940000057220459 -1.190000057220459,1.6180000305175781 -0.027000000700354576,2.2839999198913574 c1.0460000038146973,0.5989999771118164 2.247999906539917,0.953000009059906 3.4130001068115234,1.315999984741211 c6.821000099182129,2.128999948501587 12.678999900817871,5.873000144958496 17.562999725341797,11.001999855041504 c3.566999912261963,3.744999885559082 5.679999828338623,8.230999946594238 6.389999866485596,13.53600025177002 c0.7260000109672546,5.433000087738037 -0.5490000247955322,10.236000061035156 -2.8959999084472656,14.956999778747559 c-1.8270000219345093,3.674999952316284 -4.855999946594238,6.261000156402588 -8.043000221252441,8.604999542236328 c-6.443999767303467,4.74399995803833 -13.621999740600586,7.954999923706055 -21.31599998474121,10.232000350952148 c-5.7270002365112305,1.6929999589920044 -11.531000137329102,2.8420000076293945 -17.409000396728516,3.61899995803833 C233.4831102490425,194.46800231933594 223.21811085939407,193.3300018310547 218.51510792970657,193.04200744628906 z" id="svg_11"/>
	<path fill="#E50000" d="M495.3328111767769,72.78800201416016 c6.704999923706055,0 13.40999984741211,0 20.115999221801758,0.0010000000474974513 c0.6600000262260437,0 1.3279999494552612,-0.05000000074505806 1.9809999465942383,0.02800000086426735 c1.49399995803833,0.17800000309944153 1.725000023841858,0.8100000023841858 0.7870000004768372,2.0320000648498535 c-1.6759999990463257,2.181999921798706 -1.6619999408721924,2.4170000553131104 0.2460000067949295,4.434999942779541 c0.06300000101327896,0.0689999982714653 0.13300000131130219,0.1340000033378601 0.19900000095367432,0.20100000500679016 c9.355999946594238,9.46500015258789 18.71500015258789,18.930999755859375 28.073999404907227,28.395999908447266 c0.4650000035762787,0.4699999988079071 0.9020000100135803,0.9800000190734863 1.437999963760376,1.3609999418258667 c0.9390000104904175,0.6759999990463257 1.9450000524520874,0.6899999976158142 2.86899995803833,-0.05400000140070915 c0.5139999985694885,-0.41200000047683716 0.968999981880188,-0.8989999890327454 1.434000015258789,-1.36899995803833 c9.239999771118164,-9.319000244140625 18.479999542236328,-18.639999389648438 27.7189998626709,-27.961999893188477 c0.33399999141693115,-0.33500000834465027 0.6819999814033508,-0.6589999794960022 0.9769999980926514,-1.0260000228881836 c1.2319999933242798,-1.531000018119812 1.2029999494552612,-2.072999954223633 0.05299999937415123,-3.7139999866485596 c-1.034999966621399,-1.3980000019073486 -1.034999966621399,-2.249000072479248 1.0759999752044678,-2.302000045776367 c0.460999995470047,-0.012000000104308128 0.9390000104904175,-0.026000000536441803 1.4119999408721924,-0.026000000536441803 c13.600000381469727,0 27.198999404907227,-0.003000000026077032 40.79899978637695,0.004999999888241291 c0.843999981880188,0 1.7109999656677246,-0.009999999776482582 2.5250000953674316,0.16899999976158142 c0.3479999899864197,0.07599999755620956 0.7710000276565552,0.6000000238418579 0.8299999833106995,0.9710000157356262 c0.05700000002980232,0.367000013589859 -0.19900000095367432,1.0099999904632568 -0.5040000081062317,1.1619999408721924 c-0.9179999828338623,0.460999995470047 -1.9019999504089355,0.8550000190734863 -2.9059998989105225,1.0750000476837158 c-3.806999921798706,0.8320000171661377 -6.9079999923706055,2.7119998931884766 -9.65999984741211,5.515999794006348 c-11.838000297546387,12.062999725341797 -23.798999786376953,24.0049991607666 -35.69499969482422,36.012001037597656 c-2.9839999675750732,3.0160000324249268 -5.918000221252441,6.0920000076293945 -8.842000007629395,9.170000076293945 c-1.850000023841858,1.9459999799728394 -1.8550000190734863,2.86299991607666 0.020999999716877937,4.7820000648498535 c3.2950000762939453,3.359999895095825 6.679999828338623,6.631999969482422 9.958999633789062,10.006999969482422 c2.430000066757202,2.5 4.688000202178955,5.170000076293945 7.13700008392334,7.6479997634887695 c6.507999897003174,6.581999778747559 13.095999717712402,13.081999778747559 19.613000869750977,19.652999877929688 c4.38700008392334,4.421999931335449 8.736000061035156,8.880999565124512 13.04699993133545,13.376999855041504 c2.4820001125335693,2.5929999351501465 5.373000144958496,4.401000022888184 8.861000061035156,5.293000221252441 c1.2710000276565552,0.32199999690055847 2.5139999389648438,0.8059999942779541 3.7149999141693115,1.3380000591278076 c0.32600000500679016,0.1459999978542328 0.6660000085830688,0.7630000114440918 0.6169999837875366,1.1089999675750732 c-0.050999999046325684,0.35600000619888306 -0.515999972820282,0.8130000233650208 -0.890999972820282,0.9319999814033508 c-0.6129999756813049,0.19300000369548798 -1.3009999990463257,0.19499999284744263 -1.9550000429153442,0.19499999284744263 c-13.883000373840332,0.009999999776482582 -27.766000747680664,0.00800000037997961 -41.64799880981445,0.0020000000949949026 c-0.5630000233650208,0 -1.149999976158142,0.012000000104308128 -1.684000015258789,-0.14000000059604645 c-0.8830000162124634,-0.25200000405311584 -1.2170000076293945,-0.7839999794960022 -0.6700000166893005,-1.7000000476837158 c0.45899999141693115,-0.7710000276565552 1.1859999895095825,-1.6480000019073486 1.1019999980926514,-2.4019999504089355 c-0.09200000017881393,-0.8009999990463257 -0.9139999747276306,-1.5880000591278076 -1.559000015258789,-2.243000030517578 c-10.767999649047852,-10.989999771118164 -21.55699920654297,-21.959999084472656 -32.34199905395508,-32.93299865722656 c-0.3959999978542328,-0.40400001406669617 -0.7950000166893005,-0.8080000281333923 -1.2029999494552612,-1.2009999752044678 c-2.382999897003174,-2.302999973297119 -3.25600004196167,-2.3320000171661377 -5.64300012588501,0.0430000014603138 c-6.895999908447266,6.857999801635742 -13.798999786376953,13.71500015258789 -20.631000518798828,20.639999389648438 c-4.438000202178955,4.498000144958496 -8.763999938964844,9.107999801635742 -13.128999710083008,13.678999900817871 c-1.6460000276565552,1.722000002861023 -1.6449999809265137,1.8309999704360962 -0.3959999978542328,4.113999843597412 c0.7129999995231628,1.3049999475479126 0.4449999928474426,1.878999948501587 -1.0449999570846558,2.0920000076293945 c-0.6460000276565552,0.09399999678134918 -1.315999984741211,0.05700000002980232 -1.9789999723434448,0.05700000002980232 c-13.40999984741211,0.0020000000949949026 -26.81999969482422,0.017999999225139618 -40.22999954223633,-0.023000000044703484 c-1.2050000429153442,-0.004000000189989805 -3.2219998836517334,0.3240000009536743 -3.3259999752044678,-1.1430000066757202 c-0.210999995470047,-1.5329999923706055 1.6410000324249268,-1.6109999418258667 2.7290000915527344,-1.8669999837875366 c4.882999897003174,-1.1430000066757202 8.612000465393066,-3.927999973297119 12.0649995803833,-7.4710001945495605 c11.008000373840332,-11.291000366210938 22.198999404907227,-22.398000717163086 33.27899932861328,-33.61899948120117 c3.438999891281128,-3.4839999675750732 6.729000091552734,-7.11899995803833 10.126999855041504,-10.645000457763672 c1.3109999895095825,-1.3550000190734863 2.7639999389648438,-2.568000078201294 4.104000091552734,-3.8959999084472656 c2.7990000247955322,-2.7780001163482666 2.809999942779541,-3.5169999599456787 0.11699999868869781,-6.236999988555908 c-8.166000366210938,-8.258999824523926 -16.347999572753906,-16.49799919128418 -24.507999420166016,-24.76099967956543 c-6.632999897003174,-6.715000152587891 -13.291000366210938,-13.407999992370605 -19.84000015258789,-20.204999923706055 c-2.5209999084472656,-2.617000102996826 -5.48199987411499,-4.24399995803833 -8.967000007629395,-5.059000015258789 c-0.6430000066757202,-0.15000000596046448 -1.2730000019073486,-0.3490000069141388 -1.9040000438690186,-0.5440000295639038 c-0.8960000276565552,-0.2770000100135803 -2.003999948501587,-0.48899999260902405 -1.88100004196167,-1.7100000381469727 c0.125,-1.2430000305175781 1.2170000076293945,-1.2430000305175781 2.187999963760376,-1.2410000562667847 c0.5680000185966492,0.0010000000474974513 1.1349999904632568,-0.0020000000949949026 1.7009999752044678,-0.0020000000949949026 C481.91981679201126,72.78800201416016 488.62681752443314,72.78800201416016 495.3328111767769,72.78800201416016 z" id="svg_12"/>
	<polygon fill="#FFFFFF" points="633.65339833498,37.7400016784668 633.7353685498238,37.56700134277344 633.61238270998,37.696998596191406 " id="svg_13"/>
	<polygon fill="#FFFFFF" points="633.61238270998,37.696998596191406 633.4713914990425,37.821998596191406 633.65339833498,37.7400016784668 " id="svg_14"/>
</g></g></svg>