<!DOCTYPE svg PUBLIC "-//W3C//DTD SVG 20010904//EN" "http://www.w3.org/TR/2001/REC-SVG-20010904/DTD/svg10.dtd">
<svg version="1.0" xmlns="http://www.w3.org/2000/svg" width="600px" height="142px" viewBox="0 0 6000 1420" preserveAspectRatio="xMidYMid meet">
<g id="layer101" fill="#000000" stroke="none">
<path d="M307 527 c-36 -21 -38 -24 -33 -62 7 -53 -29 -115 -76 -131 -31 -10 -33 -14 -36 -62 l-3 -51 39 -11 c50 -16 85 -76 76 -132 -6 -36 -5 -38 40 -59 l46 -23 23 22 c33 31 121 31 154 0 l24 -22 45 24 c47 26 45 21 31 90 -1 3 10 24 23 47 17 29 36 46 58 54 31 10 32 13 32 64 0 53 -1 54 -33 60 -26 5 -38 16 -57 53 -14 26 -24 49 -24 52 17 63 16 65 -32 88 l-47 23 -23 -22 c-35 -32 -117 -33 -146 -2 -26 28 -33 28 -81 0z m201 -215 c20 -25 15 -69 -10 -86 -50 -35 -102 -5 -96 55 5 55 72 74 106 31z"/>
</g>
<g id="layer102" fill="#ff8426" stroke="none">
<path d="M162 1401 c-61 -21 -104 -58 -135 -116 -20 -37 -22 -58 -25 -250 -3 -135 0 -228 8 -262 16 -74 57 -125 127 -159 l58 -29 265 0 c255 0 267 1 315 23 61 28 90 55 118 107 20 37 22 58 25 250 2 116 1 233 -3 262 -9 73 -53 135 -117 167 -52 26 -52 26 -317 26 -231 -1 -273 -3 -319 -19z m524 -225 c22 -30 20 -328 -2 -350 -13 -14 -48 -16 -223 -16 -182 0 -210 2 -222 17 -10 11 -15 56 -17 153 -4 160 4 201 39 211 13 4 111 7 217 6 179 -2 195 -3 208 -21z"/>
<path d="M960 999 l0 -420 368 3 368 3 59 30 c74 38 111 88 127 173 23 126 -22 243 -112 289 -69 35 -135 43 -366 43 l-214 0 0 150 0 150 -115 0 -115 0 0 -421z m700 -134 l0 -55 -235 0 -235 0 0 55 0 55 235 0 235 0 0 -55z"/>
<path d="M2270 1115 l0 -305 -172 -2 -173 -3 0 -110 0 -110 463 -3 462 -2 0 115 0 115 -175 0 -175 0 0 305 0 305 -115 0 -115 0 0 -305z"/>
<path d="M2890 1000 l0 -420 110 0 110 0 0 420 0 420 -110 0 -110 0 0 -420z"/>
<path d="M3320 1405 c-60 -19 -110 -62 -140 -121 -24 -48 -25 -54 -25 -274 0 -252 5 -277 64 -343 70 -78 89 -82 396 -82 263 0 271 1 317 24 54 26 100 74 125 129 15 31 17 71 18 267 0 228 0 231 -26 286 -28 59 -71 98 -128 118 -52 17 -543 14 -601 -4z m500 -218 c25 -13 25 -13 28 -181 2 -116 -1 -173 -9 -182 -15 -19 -428 -21 -447 -2 -13 13 -17 334 -4 354 12 19 39 22 227 23 127 0 187 -3 205 -12z"/>
<path d="M4110 999 l0 -420 368 3 367 3 58 28 c62 31 95 70 122 146 12 36 15 100 15 352 l0 309 -109 0 -110 0 -3 -288 c-2 -227 -6 -293 -17 -305 -12 -15 -41 -17 -237 -17 l-224 0 0 305 0 305 -115 0 -115 0 0 -421z"/>
<path d="M5080 1310 l0 -110 350 0 350 0 0 -40 0 -40 -213 0 c-292 0 -366 -16 -435 -94 -38 -43 -52 -91 -52 -176 0 -97 15 -138 68 -190 75 -72 80 -73 490 -77 l362 -4 0 115 0 116 -350 0 -350 0 0 39 0 40 263 3 262 3 52 27 c95 50 128 120 121 255 -5 98 -29 151 -88 193 -65 46 -100 50 -477 50 l-353 0 0 -110z"/>
</g>
<g id="layer103" fill="#ffb026" stroke="none">
<path d="M162 1401 c-61 -21 -104 -58 -135 -116 -19 -36 -22 -59 -25 -232 l-4 -193 110 0 110 0 4 155 c2 109 7 158 16 167 10 10 64 13 223 13 197 0 212 -1 225 -19 11 -15 14 -56 14 -168 l0 -148 110 0 110 0 0 178 c0 97 -4 194 -9 215 -14 60 -57 113 -114 142 -51 25 -52 25 -316 25 -231 -1 -273 -3 -319 -19z"/>
<path d="M960 1140 l0 -280 115 0 115 0 0 30 0 30 235 0 235 0 0 -30 0 -30 116 0 116 0 -7 43 c-10 61 -42 124 -79 152 -69 53 -102 58 -368 63 l-248 4 0 149 0 149 -115 0 -115 0 0 -280z"/>
<path d="M2270 1140 l0 -280 115 0 115 0 0 280 0 280 -115 0 -115 0 0 -280z"/>
<path d="M2890 1140 l0 -280 110 0 110 0 0 280 0 280 -110 0 -110 0 0 -280z"/>
<path d="M3320 1405 c-60 -19 -110 -62 -140 -121 -24 -46 -25 -60 -28 -236 l-4 -188 116 0 116 0 0 153 c0 83 5 159 10 167 13 21 418 22 443 1 15 -11 17 -36 17 -167 l0 -154 116 0 116 0 -4 188 c-4 175 -6 190 -30 243 -27 59 -69 98 -127 118 -52 17 -543 14 -601 -4z"/>
<path d="M4110 1140 l0 -280 115 0 115 0 0 280 0 280 -115 0 -115 0 0 -280z"/>
<path d="M4818 1140 l-3 -280 113 0 112 0 0 280 0 280 -110 0 -109 0 -3 -280z"/>
<path d="M5080 1310 l0 -110 350 0 350 0 0 -40 0 -40 -213 0 c-223 0 -307 -9 -368 -40 -70 -36 -119 -115 -119 -192 l0 -28 110 0 c89 0 110 3 110 14 0 12 43 15 263 18 l262 3 52 27 c95 50 128 120 121 255 -5 98 -29 151 -88 193 -65 46 -100 50 -477 50 l-353 0 0 -110z"/>
</g>
<g id="layer104" fill="#ffe826" stroke="none">
<path d="M162 1401 c-96 -33 -148 -105 -159 -216 l-6 -65 111 0 111 0 9 32 c5 22 16 35 33 39 38 11 375 10 404 -1 17 -6 27 -20 31 -40 l7 -30 108 0 109 0 0 48 c-1 111 -41 186 -123 227 -51 25 -52 25 -316 25 -231 -1 -273 -3 -319 -19z"/>
<path d="M960 1270 l0 -150 115 0 115 0 0 150 0 150 -115 0 -115 0 0 -150z"/>
<path d="M2270 1270 l0 -150 115 0 115 0 0 150 0 150 -115 0 -115 0 0 -150z"/>
<path d="M2890 1270 l0 -150 110 0 110 0 0 150 0 150 -110 0 -110 0 0 -150z"/>
<path d="M3320 1405 c-94 -30 -155 -111 -166 -224 l-7 -61 117 0 c114 0 116 0 116 23 1 51 5 52 217 55 219 3 246 -3 251 -51 l3 -27 116 0 115 0 -7 63 c-13 118 -66 196 -154 226 -52 17 -543 14 -601 -4z"/>
<path d="M4110 1270 l0 -150 115 0 115 0 0 150 0 150 -115 0 -115 0 0 -150z"/>
<path d="M4820 1270 l0 -150 110 0 110 0 0 150 0 150 -110 0 -110 0 0 -150z"/>
<path d="M5080 1310 l0 -110 350 0 350 0 0 -40 0 -40 111 0 112 0 -5 73 c-5 81 -33 138 -88 177 -65 46 -100 50 -477 50 l-353 0 0 -110z"/>
</g>
<g id="layer105" fill="#ffffff" stroke="none">
<path d="M1004 451 c-42 -26 -54 -66 -54 -178 0 -169 27 -193 217 -193 179 0 212 24 221 165 6 96 -12 179 -45 205 -23 18 -40 20 -167 20 -121 0 -145 -3 -172 -19z m260 -94 c14 -10 16 -25 14 -87 l-3 -75 -107 -3 -108 -3 0 85 c0 98 -6 93 111 95 47 1 82 -4 93 -12z"/>
<path d="M1400 276 l0 -196 165 0 c254 0 269 12 263 211 -3 114 -4 120 -31 146 l-27 28 -185 3 -185 3 0 -195z m314 78 c11 -10 16 -34 16 -74 0 -92 3 -90 -116 -90 l-104 0 0 90 0 90 94 0 c73 0 98 -4 110 -16z"/>
<path d="M1850 275 l0 -195 168 0 c182 0 224 10 248 58 7 14 12 85 12 177 l1 155 -54 0 -55 0 0 -70 0 -70 -110 0 -110 0 0 70 0 70 -50 0 -50 0 0 -195z m320 -60 l0 -25 -110 0 -110 0 0 25 0 25 110 0 110 0 0 -25z"/>
<path d="M2364 460 c-12 -4 -31 -21 -43 -36 -19 -24 -21 -39 -21 -148 0 -179 18 -196 216 -196 194 0 218 24 212 213 l-3 119 -33 29 -32 29 -138 -1 c-75 0 -147 -4 -158 -9z m240 -96 c13 -5 16 -23 16 -90 l0 -85 -107 3 -108 3 -3 75 c-2 62 0 77 14 87 18 13 158 18 188 7z"/>
<path d="M2750 275 l0 -195 50 0 50 0 0 195 0 195 -50 0 -50 0 0 -195z"/>
<path d="M2870 275 l0 -195 166 0 c245 0 264 14 264 195 0 182 -17 195 -260 195 l-170 0 0 -195z m304 89 c13 -5 16 -23 16 -90 l0 -84 -110 0 -110 0 0 90 0 90 94 0 c52 0 101 -3 110 -6z"/>
</g>


</svg>