<?xml version="1.0" encoding="UTF-8" ?>
<!DOCTYPE svg PUBLIC "-//W3C//DTD SVG 1.1//EN" "http://www.w3.org/Graphics/SVG/1.1/DTD/svg11.dtd">
<svg width="1980pt" height="400pt" viewBox="0 0 1980 400" version="1.1" xmlns="http://www.w3.org/2000/svg">
<g id="#ffffffff">
<path fill="#ffffff" opacity="1.00" d=" M 1365.83 27.82 C 1392.88 8.69 1444.17 19.18 1446.94 57.01 C 1446.94 147.22 1447.25 237.48 1446.78 327.67 C 1441.59 332.71 1432.69 328.75 1426.00 330.01 C 1421.51 329.80 1413.15 331.75 1413.04 324.96 C 1412.93 260.65 1413.05 196.33 1412.99 132.02 C 1402.66 131.98 1392.33 131.99 1382.01 132.02 C 1381.84 197.23 1382.30 262.48 1381.79 327.67 C 1377.22 332.57 1369.05 328.86 1363.00 329.99 C 1357.92 329.62 1348.98 332.20 1348.03 324.96 C 1347.95 260.66 1348.03 196.35 1347.99 132.04 C 1332.01 135.12 1334.31 114.33 1329.39 104.61 C 1326.18 93.30 1341.02 94.64 1347.98 95.00 C 1348.31 72.05 1343.38 42.54 1365.83 27.82 M 1381.95 69.99 C 1382.06 78.32 1381.95 86.65 1382.01 94.98 C 1392.33 95.02 1402.66 95.01 1412.99 94.99 C 1412.81 84.12 1413.41 73.20 1412.72 62.37 C 1405.14 51.90 1379.58 53.64 1381.95 69.99 Z" />
<path fill="#ffffff" opacity="1.00" d=" M 1136.18 20.77 C 1173.60 19.70 1210.22 37.38 1235.27 64.74 C 1296.29 128.16 1291.66 241.16 1224.73 298.73 C 1200.83 319.17 1169.88 333.17 1137.99 331.99 C 1097.80 333.83 1058.64 313.19 1033.28 282.72 C 982.66 223.43 983.38 128.14 1034.24 69.24 C 1059.12 39.64 1097.12 20.05 1136.18 20.77 M 1129.41 58.41 C 1071.89 62.61 1029.15 119.34 1029.99 175.00 C 1028.55 216.59 1049.63 258.66 1085.04 280.94 C 1114.42 299.83 1154.30 301.18 1184.58 283.57 C 1219.99 263.51 1242.50 223.56 1243.19 183.10 C 1249.32 120.14 1196.04 51.88 1129.41 58.41 Z" />
<path fill="#ffffff" opacity="1.00" d=" M 1751.23 22.64 C 1761.12 24.17 1755.59 37.19 1757.00 44.00 C 1756.48 48.99 1759.19 56.90 1752.84 58.89 C 1733.48 58.78 1713.97 63.14 1697.41 73.42 C 1638.80 111.51 1630.58 200.93 1670.87 255.13 C 1689.50 280.41 1720.68 294.97 1751.96 294.04 C 1760.66 296.06 1755.74 307.60 1756.99 314.00 C 1756.14 319.02 1759.50 327.09 1753.66 329.71 C 1710.65 333.05 1667.26 311.64 1642.26 276.73 C 1595.73 210.92 1601.72 109.51 1662.26 54.26 C 1686.66 33.10 1719.06 22.02 1751.23 22.64 Z" />
<path fill="#ffffff" opacity="1.00" d=" M 469.21 27.32 C 477.93 20.86 490.71 24.67 500.97 24.99 C 539.43 23.54 574.06 51.12 588.47 85.57 C 597.37 104.15 602.36 124.51 604.04 144.99 C 605.56 190.05 582.57 239.61 539.78 258.38 C 556.00 278.87 574.15 297.94 591.25 317.75 C 595.37 320.58 597.53 327.52 591.67 329.72 C 579.96 330.18 568.09 330.23 556.39 329.70 C 538.66 310.71 521.42 290.98 504.77 271.04 C 504.08 271.02 502.71 270.99 502.02 270.98 C 501.76 289.53 502.43 308.15 501.71 326.66 C 498.22 333.01 488.93 328.81 483.00 330.00 C 478.30 329.40 468.67 332.59 468.98 325.02 C 469.17 225.79 468.71 126.53 469.21 27.32 M 502.01 59.03 C 502.01 116.70 501.97 174.37 502.03 232.03 C 529.11 233.06 552.65 212.31 563.88 188.88 C 581.12 148.77 567.57 99.23 535.75 70.25 C 526.68 62.02 514.21 57.80 502.01 59.03 Z" />
<path fill="#ffffff" opacity="1.00" d=" M 636.98 30.98 C 636.62 26.44 641.92 23.56 645.97 23.96 C 667.59 24.15 689.23 23.78 710.84 24.13 C 720.21 26.16 716.23 37.20 716.99 44.00 C 716.59 49.32 719.22 58.45 711.85 59.87 C 698.25 60.22 684.62 59.87 671.01 60.01 C 670.99 71.67 670.99 83.33 671.01 94.99 C 685.34 96.06 700.43 92.84 714.26 96.72 C 718.80 104.95 721.06 114.69 724.42 123.62 C 726.35 127.37 723.10 132.11 718.96 131.96 C 702.98 132.09 686.99 131.93 671.01 132.01 C 670.99 186.00 670.99 239.99 671.01 293.99 C 684.62 294.15 698.25 293.76 711.85 294.13 C 719.86 295.99 716.24 306.14 716.99 312.00 C 716.00 317.81 719.99 327.18 712.83 329.88 C 689.56 330.18 666.26 329.90 642.97 330.01 C 639.70 330.42 636.56 327.29 636.99 324.02 C 637.02 260.03 637.00 196.04 636.99 132.04 C 621.01 135.12 623.31 114.33 618.39 104.61 C 615.18 93.30 630.03 94.65 636.99 95.00 C 637.01 73.66 637.01 52.32 636.98 30.98 Z" />
<path fill="#ffffff" opacity="1.00" d=" M 737.97 50.00 C 740.09 41.65 732.42 25.28 745.06 24.08 C 771.35 23.92 797.66 23.99 823.96 24.04 C 830.54 24.28 831.82 31.79 831.03 37.01 C 830.10 44.45 833.13 53.21 828.71 59.73 C 819.95 62.62 810.17 60.21 801.01 61.01 C 800.89 148.95 801.19 236.91 800.86 324.84 C 798.73 333.88 787.67 330.35 781.01 331.02 C 776.39 330.88 767.92 332.15 767.02 325.97 C 766.96 237.65 767.03 149.33 766.99 61.01 C 757.02 59.19 734.92 67.35 737.97 50.00 Z" />
<path fill="#ffffff" opacity="1.00" d=" M 848.20 27.32 C 856.92 20.86 869.71 24.67 879.97 24.99 C 918.43 23.54 953.06 51.11 967.47 85.57 C 976.37 104.14 981.36 124.51 983.04 144.99 C 984.56 190.04 961.57 239.61 918.78 258.37 C 936.35 281.51 958.25 301.53 975.21 325.06 C 971.16 334.79 959.02 329.82 951.00 331.00 C 944.59 330.63 936.59 332.96 932.18 326.81 C 916.22 308.08 899.27 290.14 883.77 271.07 C 883.08 271.04 881.71 271.00 881.02 270.98 C 880.76 289.53 881.42 308.15 880.71 326.67 C 876.88 333.58 867.42 330.21 861.00 331.03 C 856.44 331.09 847.65 331.64 847.98 325.02 C 848.16 225.79 847.71 126.53 848.20 27.32 M 881.01 59.03 C 881.00 116.70 880.97 174.36 881.03 232.03 C 908.11 233.06 931.65 212.31 942.88 188.89 C 960.12 148.77 946.56 99.24 914.75 70.25 C 905.68 62.03 893.21 57.79 881.01 59.03 Z" />
<path fill="#ffffff" opacity="1.00" d=" M 1463.21 27.32 C 1471.92 20.86 1484.71 24.67 1494.97 24.99 C 1533.42 23.54 1568.06 51.11 1582.47 85.57 C 1591.37 104.14 1596.36 124.51 1598.04 144.98 C 1599.56 190.05 1576.56 239.61 1533.78 258.38 C 1551.00 280.20 1570.57 300.29 1588.42 321.63 C 1591.20 324.77 1587.93 330.19 1583.97 329.96 C 1572.73 330.03 1561.49 330.08 1550.26 329.90 C 1532.88 310.49 1515.33 291.11 1498.78 271.04 C 1498.09 271.03 1496.71 271.00 1496.02 270.98 C 1495.75 289.53 1496.43 308.15 1495.71 326.66 C 1491.92 333.15 1482.24 328.70 1476.00 330.00 C 1471.53 329.60 1462.51 332.22 1462.98 325.02 C 1463.17 225.79 1462.71 126.53 1463.21 27.32 M 1496.02 59.03 C 1496.00 116.70 1495.97 174.37 1496.03 232.04 C 1523.11 233.05 1546.65 212.31 1557.88 188.88 C 1575.11 148.76 1561.56 99.24 1529.75 70.25 C 1520.68 62.03 1508.21 57.80 1496.02 59.03 Z" />
<path fill="#ffffff" opacity="1.00" d=" M 1812.95 26.97 C 1821.71 22.06 1835.34 22.49 1844.34 26.70 C 1845.91 49.14 1844.53 72.28 1845.01 94.99 C 1857.67 95.01 1870.33 95.01 1882.99 94.99 C 1883.19 72.78 1882.66 50.53 1883.24 28.35 C 1888.12 21.11 1897.79 24.95 1905.00 23.96 C 1909.99 23.11 1916.78 24.99 1916.96 31.04 C 1917.01 128.34 1917.07 225.65 1916.92 322.94 C 1917.10 333.09 1905.48 329.47 1899.00 329.99 C 1893.74 329.32 1885.32 332.48 1883.12 325.83 C 1882.84 261.24 1883.09 196.62 1882.99 132.01 C 1870.33 131.99 1857.67 131.99 1845.01 132.02 C 1844.84 197.23 1845.29 262.48 1844.79 327.67 C 1840.21 332.56 1832.05 328.87 1826.00 330.00 C 1821.28 329.62 1812.32 332.14 1812.04 324.96 C 1811.94 260.65 1812.04 196.33 1811.99 132.02 C 1795.36 135.88 1797.06 114.79 1792.39 104.61 C 1789.25 92.80 1804.83 94.87 1811.99 94.99 C 1812.66 72.38 1810.71 49.28 1812.95 26.97 Z" />
</g>
<g id="#030303ff">
<path fill="#030303" opacity="1.00" d=" M 145.70 74.10 C 154.67 74.08 163.70 73.65 172.64 74.25 C 183.09 85.47 192.51 97.88 203.40 108.67 C 222.08 109.27 240.94 109.14 259.65 108.74 C 270.11 97.53 279.51 85.08 290.43 74.32 C 299.32 73.56 308.35 74.12 317.29 74.11 C 309.02 86.33 298.50 96.97 289.87 108.98 C 310.42 109.24 331.00 108.56 351.53 109.32 C 355.32 126.95 360.51 144.27 364.24 161.92 C 378.55 162.08 392.87 162.03 407.18 161.93 C 403.82 144.15 397.76 126.90 394.84 109.05 C 403.83 108.97 412.82 108.93 421.80 109.09 C 429.83 141.72 438.21 174.28 446.15 206.94 C 422.72 207.13 399.28 206.87 375.85 207.07 C 378.34 218.75 382.04 230.18 384.17 241.94 C 362.75 242.09 341.32 241.96 319.90 242.00 C 334.49 260.06 350.78 276.83 365.36 294.85 C 352.57 295.18 339.77 294.92 326.98 295.02 C 323.54 295.58 321.91 292.13 320.08 289.91 C 307.36 273.93 294.10 258.35 281.60 242.19 C 248.20 241.91 214.74 241.80 181.36 242.24 C 167.14 259.75 152.68 277.17 138.74 294.91 C 125.05 295.03 111.35 295.13 97.66 294.86 C 111.94 276.56 128.02 259.64 143.21 242.06 C 121.46 241.89 99.71 242.08 77.96 241.98 C 81.03 230.32 83.70 218.56 86.88 206.94 C 63.53 207.03 40.18 207.06 16.83 206.93 C 24.36 174.18 32.90 141.63 41.10 109.03 C 50.12 108.98 59.13 108.94 68.15 109.06 C 63.91 126.73 59.41 144.35 54.95 161.97 C 69.26 162.02 83.58 162.03 97.89 161.97 C 102.55 144.40 106.78 126.72 111.19 109.09 C 131.84 108.86 152.50 109.10 173.15 108.97 C 164.10 97.29 153.70 86.51 145.70 74.10 M 137.02 137.02 C 136.98 151.34 136.98 165.66 137.03 179.98 C 151.34 180.02 165.66 180.01 179.98 179.98 C 180.02 165.66 180.01 151.34 179.98 137.02 C 165.66 136.97 151.34 136.99 137.02 137.02 M 282.02 137.02 C 281.98 151.34 281.98 165.66 282.02 179.98 C 296.34 180.01 310.66 180.03 324.98 179.97 C 325.02 165.66 325.02 151.34 324.97 137.03 C 310.66 136.97 296.34 136.99 282.02 137.02 Z" />
</g>
</svg>
