<?xml version="1.0" encoding="UTF-8" ?>
<!DOCTYPE svg PUBLIC "-//W3C//DTD SVG 1.1//EN" "http://www.w3.org/Graphics/SVG/1.1/DTD/svg11.dtd">
<svg width="1980pt" height="400pt" viewBox="0 0 1980 400" version="1.1" xmlns="http://www.w3.org/2000/svg">
<g id="#000000ff">
<path fill="#000000" opacity="1.00" d=" M 1366.71 27.73 C 1387.32 14.69 1417.06 16.06 1435.41 32.59 C 1444.43 41.09 1447.03 54.07 1447.01 66.00 C 1446.93 152.01 1447.11 238.04 1446.92 324.05 C 1445.83 333.99 1432.66 328.67 1426.01 330.04 C 1421.60 329.99 1413.94 330.98 1413.41 324.81 C 1413.04 260.51 1413.67 196.16 1413.10 131.86 C 1402.77 131.51 1392.40 131.47 1382.07 131.87 C 1381.74 195.90 1382.17 259.94 1381.86 323.97 C 1381.50 332.56 1370.64 329.48 1365.00 330.01 C 1359.48 329.57 1350.11 332.19 1348.45 324.77 C 1348.09 260.51 1348.72 196.21 1348.14 131.95 C 1332.27 134.24 1334.58 114.07 1329.81 104.18 C 1326.95 93.08 1341.64 96.32 1348.12 95.89 C 1349.04 72.59 1343.56 42.53 1366.71 27.73 M 1357.16 46.16 C 1349.97 63.44 1354.95 82.69 1353.10 100.81 C 1346.75 101.00 1340.41 100.58 1334.08 101.00 C 1336.21 109.62 1338.94 118.09 1341.39 126.63 C 1345.30 126.67 1349.23 126.67 1353.16 126.84 C 1353.57 192.82 1353.29 258.82 1353.29 324.81 C 1361.16 325.18 1369.04 325.03 1376.92 324.93 C 1377.10 258.91 1376.82 192.88 1377.06 126.87 C 1390.71 126.54 1404.40 126.55 1418.06 126.86 C 1418.40 192.86 1418.11 258.88 1418.20 324.88 C 1426.10 325.12 1434.02 325.04 1441.94 324.94 C 1442.09 239.30 1441.94 153.65 1442.02 68.01 C 1442.89 54.65 1439.13 39.42 1426.93 32.08 C 1405.28 18.12 1369.43 21.14 1357.16 46.16 Z" />
<path fill="#000000" opacity="1.00" d=" M 1125.42 21.46 C 1162.17 17.97 1199.48 31.63 1226.50 56.51 C 1277.39 102.52 1291.60 181.87 1263.92 243.97 C 1240.41 300.91 1177.91 341.78 1115.69 330.31 C 1078.17 324.27 1044.57 300.71 1023.80 269.21 C 986.80 215.09 986.95 138.76 1023.45 84.43 C 1045.87 49.82 1083.93 24.81 1125.42 21.46 M 1123.42 26.53 C 1089.71 29.83 1058.62 48.31 1037.13 74.10 C 994.84 124.62 989.03 201.79 1022.71 258.30 C 1045.94 299.19 1091.09 328.89 1139.00 326.99 C 1177.52 327.02 1214.18 306.68 1238.11 277.10 C 1281.91 223.91 1284.47 142.09 1245.35 85.63 C 1219.10 46.11 1171.20 20.81 1123.42 26.53 Z" />
<path fill="#000000" opacity="1.00" d=" M 1738.43 23.50 C 1745.52 22.78 1758.86 20.57 1756.89 31.94 C 1755.15 40.65 1762.27 59.16 1748.07 58.72 C 1716.16 58.32 1685.33 75.29 1667.53 101.56 C 1637.95 146.07 1638.11 208.48 1668.38 252.61 C 1686.42 278.55 1717.30 294.90 1749.01 294.32 C 1760.67 293.96 1755.91 308.74 1756.86 315.99 C 1756.60 320.67 1758.56 328.98 1751.85 329.75 C 1715.41 330.95 1678.38 316.41 1653.52 289.48 C 1606.62 238.52 1600.47 158.17 1630.19 97.05 C 1649.89 55.47 1692.42 26.28 1738.43 23.50 M 1640.94 87.94 C 1604.78 148.07 1608.85 232.63 1656.44 285.55 C 1680.53 311.80 1716.38 326.12 1751.88 324.93 C 1751.90 316.40 1752.04 307.86 1751.78 299.33 C 1716.69 300.44 1682.03 282.60 1662.85 253.18 C 1639.50 217.30 1634.48 170.62 1648.22 130.22 C 1661.06 85.49 1704.66 51.50 1751.77 53.67 C 1752.04 45.14 1751.90 36.60 1751.88 28.07 C 1707.68 26.33 1663.43 49.66 1640.94 87.94 Z" />
<path fill="#000000" opacity="1.00" d=" M 469.02 32.93 C 468.96 29.96 469.66 25.86 473.19 25.27 C 499.10 24.04 527.34 24.10 549.58 39.45 C 587.10 64.46 602.83 111.83 603.84 155.10 C 601.43 197.39 578.51 240.72 538.91 258.88 C 557.05 280.09 575.83 300.79 594.04 321.94 C 597.81 329.35 587.05 330.95 581.99 330.04 C 571.75 328.49 557.92 334.35 551.19 323.82 C 534.59 306.24 520.20 285.47 502.13 269.97 C 500.80 288.71 502.54 307.64 501.29 326.36 C 497.06 332.90 487.49 328.90 480.99 330.04 C 476.44 330.28 468.83 330.46 469.14 323.97 C 468.89 226.97 469.13 129.94 469.02 32.93 M 474.09 29.97 C 473.98 128.29 474.00 226.61 474.08 324.93 C 481.65 325.06 489.23 325.12 496.81 324.88 C 497.02 305.03 496.36 285.14 497.12 265.31 C 500.51 265.63 504.70 264.23 507.54 266.52 C 524.60 285.76 541.30 305.37 558.49 324.47 C 568.87 325.69 579.54 324.74 590.02 324.92 C 570.50 301.99 550.15 279.76 530.63 256.84 C 581.39 237.76 608.10 176.40 595.82 125.08 C 588.92 89.78 570.44 53.38 536.37 37.64 C 516.93 28.55 494.98 29.68 474.09 29.97 Z" />
<path fill="#000000" opacity="1.00" d=" M 637.38 32.10 C 637.24 28.83 639.05 24.62 642.96 25.04 C 665.64 24.88 688.35 24.88 711.04 25.04 C 718.49 25.39 716.41 34.98 716.66 40.00 C 715.80 46.03 718.99 54.39 713.60 58.70 C 699.29 60.23 684.72 58.93 670.30 59.31 C 670.15 71.48 670.30 83.66 670.22 95.83 C 684.54 96.66 699.13 94.77 713.28 96.76 C 718.41 102.75 718.90 111.56 722.30 118.63 C 723.94 122.59 726.39 130.51 719.91 131.15 C 703.40 131.68 686.84 131.26 670.31 131.31 C 670.21 185.77 670.21 240.23 670.31 294.69 C 684.73 294.99 699.29 293.80 713.62 295.25 C 718.99 299.54 715.80 307.97 716.65 314.00 C 716.28 319.34 718.87 329.16 710.97 329.81 C 688.97 330.24 666.93 329.90 644.92 329.99 C 641.33 330.33 637.25 327.85 637.36 323.93 C 637.20 259.94 637.67 195.93 637.14 131.95 C 621.26 134.23 623.59 114.06 618.82 104.18 C 615.95 93.08 630.65 96.33 637.12 95.89 C 637.72 74.64 637.15 53.36 637.38 32.10 M 642.31 30.13 C 642.21 53.68 642.68 77.27 642.09 100.81 C 635.75 101.00 629.41 100.57 623.09 101.00 C 625.22 109.62 627.95 118.09 630.38 126.63 C 634.31 126.67 638.23 126.67 642.16 126.84 C 642.56 192.82 642.28 258.82 642.30 324.81 C 665.43 325.14 688.59 325.11 711.72 324.82 C 711.66 316.32 711.71 307.82 711.68 299.32 C 696.22 299.06 680.72 299.83 665.30 298.96 C 665.35 241.65 665.35 184.34 665.30 127.03 C 683.35 125.87 701.58 127.56 719.60 126.22 C 716.76 117.78 714.05 109.28 710.87 100.96 C 695.85 100.60 680.83 100.97 665.81 100.82 C 665.25 85.51 665.43 70.14 665.72 54.81 C 681.03 54.38 696.35 54.74 711.67 54.67 C 711.72 46.48 711.67 38.29 711.71 30.11 C 688.59 29.66 665.42 29.61 642.31 30.13 Z" />
<path fill="#000000" opacity="1.00" d=" M 741.41 25.48 C 768.20 24.21 795.19 25.35 822.06 24.91 C 835.27 23.74 828.69 41.12 830.29 49.00 C 833.29 66.87 810.66 58.56 800.35 60.34 C 800.31 148.24 800.45 236.15 800.28 324.04 C 799.85 333.79 787.26 328.89 781.01 330.07 C 775.97 330.09 767.04 331.47 767.14 323.98 C 766.83 236.29 767.25 148.57 766.93 60.87 C 757.47 58.43 737.20 66.91 738.00 51.06 C 739.52 42.87 734.60 31.57 741.41 25.48 M 743.09 29.97 C 743.01 38.55 742.86 47.14 743.19 55.71 C 752.77 55.82 762.37 55.38 771.94 55.87 C 772.19 145.58 771.89 235.31 772.09 325.03 C 779.95 325.22 787.84 325.46 795.69 324.86 C 795.68 235.20 795.41 145.52 795.82 55.86 C 805.53 55.39 815.26 55.83 824.97 55.70 C 825.69 47.16 825.37 38.53 825.14 29.96 C 797.79 29.74 770.43 29.72 743.09 29.97 Z" />
<path fill="#000000" opacity="1.00" d=" M 848.02 32.93 C 847.63 29.24 849.57 24.63 853.96 25.04 C 868.89 25.01 884.03 24.11 898.74 27.27 C 952.62 38.08 979.15 95.93 982.78 145.99 C 983.92 191.31 960.16 239.31 917.92 258.89 C 935.94 279.87 954.41 300.50 972.61 321.32 C 975.46 324.31 973.75 330.56 969.05 329.95 C 957.88 329.85 946.56 330.74 935.48 329.47 C 916.74 310.40 901.03 287.28 881.12 269.97 C 879.79 288.70 881.55 307.63 880.28 326.35 C 876.95 332.93 867.87 329.00 862.01 330.07 C 856.98 330.08 848.03 331.48 848.14 323.98 C 847.89 226.97 848.13 129.95 848.02 32.93 M 853.09 29.97 C 852.99 128.32 852.99 226.68 853.09 325.03 C 860.65 325.27 868.23 325.35 875.79 324.97 C 876.04 305.09 875.35 285.18 876.12 265.32 C 879.88 265.66 884.88 263.90 887.50 267.50 C 902.03 284.28 916.72 300.92 931.33 317.64 C 939.02 330.98 956.50 323.22 969.02 325.00 C 949.59 301.98 929.14 279.80 909.62 256.85 C 960.39 237.76 987.10 176.40 974.82 125.08 C 967.93 89.78 949.43 53.38 915.37 37.64 C 895.93 28.55 873.98 29.68 853.09 29.97 Z" />
<path fill="#000000" opacity="1.00" d=" M 1463.02 32.93 C 1462.95 29.96 1463.65 25.86 1467.19 25.27 C 1493.09 24.05 1521.34 24.09 1543.58 39.45 C 1581.10 64.46 1596.83 111.83 1597.85 155.09 C 1595.44 197.40 1572.49 240.70 1532.92 258.89 C 1551.16 280.33 1570.29 301.08 1588.43 322.58 C 1590.87 330.42 1580.04 330.50 1574.99 330.03 C 1565.04 328.63 1551.65 334.14 1545.19 323.82 C 1528.58 306.24 1514.20 285.47 1496.12 269.96 C 1494.80 288.71 1496.54 307.64 1495.29 326.36 C 1490.76 333.04 1480.79 328.81 1473.98 330.05 C 1469.62 330.39 1462.75 329.96 1463.14 323.97 C 1462.90 226.96 1463.13 129.94 1463.02 32.93 M 1468.09 29.97 C 1467.98 128.29 1468.00 226.61 1468.08 324.92 C 1475.65 325.06 1483.23 325.11 1490.80 324.88 C 1491.03 305.03 1490.35 285.15 1491.12 265.32 C 1494.51 265.64 1498.70 264.22 1501.54 266.52 C 1518.60 285.77 1535.31 305.37 1552.50 324.47 C 1562.87 325.69 1573.54 324.75 1584.03 324.91 C 1564.50 302.00 1544.16 279.76 1524.63 256.85 C 1575.39 237.76 1602.10 176.40 1589.82 125.08 C 1582.93 89.77 1564.43 53.38 1530.36 37.64 C 1510.93 28.55 1488.98 29.68 1468.09 29.97 Z" />
<path fill="#000000" opacity="1.00" d=" M 1812.38 30.18 C 1813.31 22.61 1822.77 25.44 1828.00 24.94 C 1833.49 25.65 1843.54 22.25 1844.76 30.14 C 1845.34 52.03 1844.63 73.98 1845.08 95.89 C 1857.75 95.99 1870.42 96.01 1883.10 95.88 C 1883.88 73.80 1882.75 51.63 1883.64 29.56 C 1886.34 21.30 1897.52 26.31 1903.99 24.92 C 1908.58 24.80 1916.93 23.84 1916.02 30.92 C 1916.04 128.62 1916.14 226.34 1915.97 324.04 C 1915.95 331.97 1906.19 329.77 1901.00 330.02 C 1895.30 329.29 1885.01 332.67 1883.44 324.80 C 1883.06 260.50 1883.68 196.16 1883.14 131.86 C 1870.45 131.51 1857.74 131.48 1845.07 131.87 C 1844.74 195.90 1845.17 259.95 1844.86 323.97 C 1844.51 332.57 1833.64 329.47 1828.01 330.02 C 1822.65 329.70 1812.43 332.05 1812.29 323.95 C 1812.03 259.95 1812.55 195.93 1812.03 131.94 C 1795.53 134.86 1797.48 114.50 1792.81 104.18 C 1790.01 92.67 1805.38 96.54 1812.04 95.90 C 1812.62 74.00 1811.89 52.07 1812.38 30.18 M 1817.17 30.01 C 1816.98 53.61 1817.43 77.22 1816.96 100.81 C 1810.33 101.01 1803.69 100.56 1797.08 101.00 C 1799.17 109.63 1801.92 118.10 1804.38 126.63 C 1808.59 126.71 1812.80 126.62 1817.02 126.85 C 1817.33 192.86 1817.04 258.88 1817.16 324.89 C 1824.74 325.10 1832.33 325.06 1839.92 324.93 C 1840.11 258.91 1839.81 192.89 1840.06 126.87 C 1856.07 126.54 1872.11 126.55 1888.12 126.87 C 1888.52 192.85 1888.22 258.85 1888.27 324.84 C 1895.84 325.15 1903.44 325.04 1911.04 324.93 C 1911.26 226.62 1911.26 128.28 1911.04 29.97 C 1903.45 29.76 1895.85 29.60 1888.28 30.08 C 1888.14 53.66 1888.63 77.25 1888.05 100.81 C 1872.07 100.85 1856.08 100.83 1840.10 100.82 C 1839.74 77.21 1840.16 53.59 1839.91 29.97 C 1832.33 29.72 1824.74 29.67 1817.17 30.01 Z" />
<path fill="#000000" opacity="1.00" d=" M 1377.96 59.91 C 1385.98 47.25 1410.13 47.21 1417.47 60.56 C 1419.01 73.84 1418.02 87.43 1417.99 100.81 C 1404.36 100.85 1390.73 100.84 1377.10 100.82 C 1377.39 87.22 1375.80 73.32 1377.96 59.91 M 1382.60 61.57 C 1381.17 72.88 1382.20 84.48 1382.08 95.89 C 1392.40 96.00 1402.74 96.00 1413.08 95.89 C 1413.14 84.48 1414.18 72.81 1412.55 61.55 C 1405.53 53.31 1389.60 53.39 1382.60 61.57 Z" />
<path fill="#000000" opacity="1.00" d=" M 1125.39 53.45 C 1156.24 49.52 1188.03 61.23 1210.09 82.89 C 1240.17 111.75 1253.61 155.67 1247.59 196.62 C 1241.61 242.59 1208.83 286.08 1163.02 298.05 C 1118.23 310.63 1069.02 287.66 1045.30 248.70 C 1022.14 213.19 1018.25 166.31 1034.10 127.13 C 1048.92 89.04 1083.98 57.85 1125.39 53.45 M 1124.38 58.47 C 1090.14 62.75 1060.15 86.36 1044.47 116.60 C 1026.45 149.52 1024.59 190.64 1038.65 225.32 C 1056.59 273.91 1111.54 308.37 1163.02 293.07 C 1227.84 274.87 1259.59 195.80 1237.19 134.84 C 1222.41 88.07 1174.73 50.71 1124.38 58.47 Z" />
<path fill="#000000" opacity="1.00" d=" M 497.00 54.11 C 520.54 49.52 542.22 64.46 554.70 83.28 C 572.34 108.97 581.44 141.69 574.61 172.58 C 568.00 207.73 534.68 241.65 497.21 236.72 C 496.39 175.89 496.80 114.96 497.00 54.11 M 501.87 58.87 C 501.63 116.87 501.42 174.92 501.97 232.92 C 531.05 232.94 556.24 210.49 566.26 184.20 C 579.51 148.24 568.74 106.37 544.13 77.89 C 533.91 65.72 518.28 56.14 501.87 58.87 Z" />
<path fill="#000000" opacity="1.00" d=" M 875.99 54.11 C 899.54 49.51 921.22 64.45 933.70 83.28 C 951.34 108.97 960.45 141.69 953.61 172.57 C 947.00 207.72 913.68 241.65 876.21 236.72 C 875.38 175.89 875.82 114.96 875.99 54.11 M 880.87 58.87 C 880.63 116.88 880.42 174.93 880.97 232.92 C 910.05 232.94 935.24 210.49 945.26 184.20 C 958.51 148.24 947.74 106.37 923.13 77.88 C 912.91 65.72 897.28 56.14 880.87 58.87 Z" />
<path fill="#000000" opacity="1.00" d=" M 1491.00 54.11 C 1514.54 49.52 1536.22 64.46 1548.70 83.29 C 1566.34 108.97 1575.44 141.69 1568.61 172.58 C 1562.00 207.73 1528.67 241.65 1491.21 236.72 C 1490.39 175.89 1490.80 114.96 1491.00 54.11 M 1495.86 58.87 C 1495.63 116.88 1495.42 174.93 1495.97 232.92 C 1525.05 232.95 1550.24 210.49 1560.27 184.19 C 1573.51 148.24 1562.74 106.37 1538.13 77.89 C 1527.91 65.72 1512.28 56.13 1495.86 58.87 Z" />
<path fill="#000000" opacity="1.00" d=" M 146.79 74.88 C 156.92 76.14 170.97 70.07 177.41 80.56 C 186.15 90.12 194.06 100.64 203.38 109.56 C 222.07 109.86 240.87 109.96 259.56 109.51 C 270.34 98.58 279.66 86.16 290.35 75.14 C 298.82 74.10 307.52 74.74 316.07 74.87 C 307.22 86.87 297.24 98.02 288.12 109.82 C 309.03 109.82 329.97 109.51 350.87 109.96 C 355.64 127.43 359.45 145.16 364.31 162.60 C 378.85 162.64 393.40 162.58 407.94 162.63 C 404.57 144.89 399.23 127.54 395.24 109.91 C 403.82 109.62 412.41 109.71 420.98 109.83 C 429.31 141.99 437.82 174.22 444.96 206.64 C 421.85 206.71 398.72 206.36 375.61 206.80 C 377.51 218.59 381.39 229.96 383.84 241.64 C 362.19 241.85 340.53 241.37 318.90 241.87 C 333.42 259.72 349.37 276.41 364.01 294.17 C 350.84 294.23 337.43 295.02 324.40 293.80 C 309.78 276.92 296.44 258.83 281.70 242.05 C 249.18 241.14 216.52 241.94 183.94 241.65 C 179.66 241.16 177.88 245.82 175.39 248.42 C 162.79 263.57 150.89 279.41 137.82 294.10 C 124.86 294.61 111.82 294.45 98.85 294.15 C 113.04 276.21 129.53 260.03 143.42 241.89 C 121.98 241.36 100.52 241.82 79.08 241.68 C 81.09 229.92 85.13 218.59 87.19 206.84 C 63.89 206.34 40.56 206.66 17.25 206.69 C 25.10 174.47 33.30 142.32 41.31 110.13 C 49.90 109.37 58.58 109.72 67.20 109.95 C 63.43 127.64 58.52 145.09 54.27 162.68 C 69.03 162.49 83.80 162.70 98.57 162.58 C 103.11 145.02 106.99 127.25 112.01 109.83 C 132.70 109.60 153.40 109.88 174.09 109.71 C 165.70 97.59 155.13 87.05 146.79 74.88 M 137.04 136.24 C 136.60 150.82 136.77 165.44 136.96 180.03 C 151.55 180.21 166.17 180.37 180.76 179.94 C 180.72 165.38 180.79 150.83 180.72 136.28 C 166.16 136.19 151.60 136.27 137.04 136.24 M 282.13 136.22 C 281.82 150.82 281.94 165.43 282.06 180.03 C 296.65 180.24 311.26 180.30 325.85 179.99 C 325.88 165.41 325.99 150.83 325.79 136.25 C 311.24 136.21 296.68 136.27 282.13 136.22 Z" />
</g>
<g id="#ffffffff">
<path fill="#ffffff" opacity="1.00" d=" M 1357.16 46.16 C 1369.43 21.14 1405.28 18.12 1426.93 32.08 C 1439.13 39.42 1442.89 54.65 1442.02 68.01 C 1441.94 153.65 1442.09 239.30 1441.94 324.94 C 1434.02 325.04 1426.10 325.12 1418.20 324.88 C 1418.11 258.88 1418.40 192.86 1418.06 126.86 C 1404.40 126.55 1390.71 126.54 1377.06 126.87 C 1376.82 192.88 1377.10 258.91 1376.92 324.93 C 1369.04 325.03 1361.16 325.18 1353.29 324.81 C 1353.29 258.82 1353.57 192.82 1353.16 126.84 C 1349.23 126.67 1345.30 126.67 1341.39 126.63 C 1338.94 118.09 1336.21 109.62 1334.08 101.00 C 1340.41 100.58 1346.75 101.00 1353.10 100.81 C 1354.95 82.69 1349.97 63.44 1357.16 46.16 M 1377.96 59.91 C 1375.80 73.32 1377.39 87.22 1377.10 100.82 C 1390.73 100.84 1404.36 100.85 1417.99 100.81 C 1418.02 87.43 1419.01 73.84 1417.47 60.56 C 1410.13 47.21 1385.98 47.25 1377.96 59.91 Z" />
<path fill="#ffffff" opacity="1.00" d=" M 1123.42 26.53 C 1171.20 20.81 1219.10 46.11 1245.35 85.63 C 1284.47 142.09 1281.91 223.91 1238.11 277.10 C 1214.18 306.68 1177.52 327.02 1139.00 326.99 C 1091.09 328.89 1045.94 299.19 1022.71 258.30 C 989.03 201.79 994.84 124.62 1037.13 74.10 C 1058.62 48.31 1089.71 29.83 1123.42 26.53 M 1125.39 53.45 C 1083.98 57.85 1048.92 89.04 1034.10 127.13 C 1018.25 166.31 1022.14 213.19 1045.30 248.70 C 1069.02 287.66 1118.23 310.63 1163.02 298.05 C 1208.83 286.08 1241.61 242.59 1247.59 196.62 C 1253.61 155.67 1240.17 111.75 1210.09 82.89 C 1188.03 61.23 1156.24 49.52 1125.39 53.45 Z" />
<path fill="#ffffff" opacity="1.00" d=" M 1640.94 87.94 C 1663.43 49.66 1707.68 26.33 1751.88 28.07 C 1751.90 36.60 1752.04 45.14 1751.77 53.67 C 1704.66 51.50 1661.06 85.49 1648.22 130.22 C 1634.48 170.62 1639.50 217.30 1662.85 253.18 C 1682.03 282.60 1716.69 300.44 1751.78 299.33 C 1752.04 307.86 1751.90 316.40 1751.88 324.93 C 1716.38 326.12 1680.53 311.80 1656.44 285.55 C 1608.85 232.63 1604.78 148.07 1640.94 87.94 Z" />
<path fill="#ffffff" opacity="1.00" d=" M 474.09 29.97 C 494.98 29.68 516.93 28.55 536.37 37.64 C 570.44 53.38 588.92 89.78 595.82 125.08 C 608.10 176.40 581.39 237.76 530.63 256.84 C 550.15 279.76 570.50 301.99 590.02 324.92 C 579.54 324.74 568.87 325.69 558.49 324.47 C 541.30 305.37 524.60 285.76 507.54 266.52 C 504.70 264.23 500.51 265.63 497.12 265.31 C 496.36 285.14 497.02 305.03 496.81 324.88 C 489.23 325.12 481.65 325.06 474.08 324.93 C 474.00 226.61 473.98 128.29 474.09 29.97 M 497.00 54.11 C 496.80 114.96 496.39 175.89 497.21 236.72 C 534.68 241.65 568.00 207.73 574.61 172.58 C 581.44 141.69 572.34 108.97 554.70 83.28 C 542.22 64.46 520.54 49.52 497.00 54.11 Z" />
<path fill="#ffffff" opacity="1.00" d=" M 642.31 30.13 C 665.42 29.61 688.59 29.66 711.71 30.11 C 711.67 38.29 711.72 46.48 711.67 54.67 C 696.35 54.74 681.03 54.38 665.72 54.81 C 665.43 70.14 665.25 85.51 665.81 100.82 C 680.83 100.97 695.85 100.60 710.87 100.96 C 714.05 109.28 716.76 117.78 719.60 126.22 C 701.58 127.56 683.35 125.87 665.30 127.03 C 665.35 184.34 665.35 241.65 665.30 298.96 C 680.72 299.83 696.22 299.06 711.68 299.32 C 711.71 307.82 711.66 316.32 711.72 324.82 C 688.59 325.11 665.43 325.14 642.30 324.81 C 642.28 258.82 642.56 192.82 642.16 126.84 C 638.23 126.67 634.31 126.67 630.38 126.63 C 627.95 118.09 625.22 109.62 623.09 101.00 C 629.41 100.57 635.75 101.00 642.09 100.81 C 642.68 77.27 642.21 53.68 642.31 30.13 Z" />
<path fill="#ffffff" opacity="1.00" d=" M 743.09 29.97 C 770.43 29.72 797.79 29.74 825.14 29.96 C 825.37 38.53 825.69 47.16 824.97 55.70 C 815.26 55.83 805.53 55.39 795.82 55.86 C 795.41 145.52 795.68 235.20 795.69 324.86 C 787.84 325.46 779.95 325.22 772.09 325.03 C 771.89 235.31 772.19 145.58 771.94 55.87 C 762.37 55.38 752.77 55.82 743.19 55.71 C 742.86 47.14 743.01 38.55 743.09 29.97 Z" />
<path fill="#ffffff" opacity="1.00" d=" M 853.09 29.97 C 873.98 29.68 895.93 28.55 915.37 37.64 C 949.43 53.38 967.93 89.78 974.82 125.08 C 987.10 176.40 960.39 237.76 909.62 256.85 C 929.14 279.80 949.59 301.98 969.02 325.00 C 956.50 323.22 939.02 330.98 931.33 317.64 C 916.72 300.92 902.03 284.28 887.50 267.50 C 884.88 263.90 879.88 265.66 876.12 265.32 C 875.35 285.18 876.04 305.09 875.79 324.97 C 868.23 325.35 860.65 325.27 853.09 325.03 C 852.99 226.68 852.99 128.32 853.09 29.97 M 875.99 54.11 C 875.82 114.96 875.38 175.89 876.21 236.72 C 913.68 241.65 947.00 207.72 953.61 172.57 C 960.45 141.69 951.34 108.97 933.70 83.28 C 921.22 64.45 899.54 49.51 875.99 54.11 Z" />
<path fill="#ffffff" opacity="1.00" d=" M 1468.09 29.97 C 1488.98 29.68 1510.93 28.55 1530.36 37.64 C 1564.43 53.38 1582.93 89.77 1589.82 125.08 C 1602.10 176.40 1575.39 237.76 1524.63 256.85 C 1544.16 279.76 1564.50 302.00 1584.03 324.91 C 1573.54 324.75 1562.87 325.69 1552.50 324.47 C 1535.31 305.37 1518.60 285.77 1501.54 266.52 C 1498.70 264.22 1494.51 265.64 1491.12 265.32 C 1490.35 285.15 1491.03 305.03 1490.80 324.88 C 1483.23 325.11 1475.65 325.06 1468.08 324.92 C 1468.00 226.61 1467.98 128.29 1468.09 29.97 M 1491.00 54.11 C 1490.80 114.96 1490.39 175.89 1491.21 236.72 C 1528.67 241.65 1562.00 207.73 1568.61 172.58 C 1575.44 141.69 1566.34 108.97 1548.70 83.29 C 1536.22 64.46 1514.54 49.52 1491.00 54.11 Z" />
<path fill="#ffffff" opacity="1.00" d=" M 1817.17 30.01 C 1824.74 29.67 1832.33 29.72 1839.91 29.97 C 1840.16 53.59 1839.74 77.21 1840.10 100.82 C 1856.08 100.83 1872.07 100.85 1888.05 100.81 C 1888.63 77.25 1888.14 53.66 1888.28 30.08 C 1895.85 29.60 1903.45 29.76 1911.04 29.97 C 1911.26 128.28 1911.26 226.62 1911.04 324.93 C 1903.44 325.04 1895.84 325.15 1888.27 324.84 C 1888.22 258.85 1888.52 192.85 1888.12 126.87 C 1872.11 126.55 1856.07 126.54 1840.06 126.87 C 1839.81 192.89 1840.11 258.91 1839.92 324.93 C 1832.33 325.06 1824.74 325.10 1817.16 324.89 C 1817.04 258.88 1817.33 192.86 1817.02 126.85 C 1812.80 126.62 1808.59 126.71 1804.38 126.63 C 1801.92 118.10 1799.17 109.63 1797.08 101.00 C 1803.69 100.56 1810.33 101.01 1816.96 100.81 C 1817.43 77.22 1816.98 53.61 1817.17 30.01 Z" />
<path fill="#ffffff" opacity="1.00" d=" M 127.97 65.98 C 143.90 65.84 159.89 65.57 175.80 66.10 C 186.98 76.90 196.14 89.90 207.23 100.81 C 223.33 101.23 239.57 101.33 255.66 100.76 C 266.31 89.67 275.77 77.39 286.40 66.27 C 302.49 65.33 318.76 65.97 334.91 65.98 C 325.71 77.75 315.80 88.98 306.87 100.96 C 323.84 101.34 340.82 100.80 357.79 101.21 C 362.42 118.68 366.30 136.35 371.17 153.74 C 379.75 153.80 388.33 153.80 396.91 153.73 C 393.04 136.10 388.04 118.73 384.07 101.12 C 398.69 101.05 413.30 101.02 427.92 101.13 C 437.54 139.04 447.59 176.93 456.10 215.07 C 432.85 215.54 409.58 215.28 386.32 215.18 C 389.13 226.86 392.37 238.45 394.93 250.19 C 375.97 250.73 356.98 250.23 338.00 250.42 C 352.56 268.36 368.81 284.97 383.22 303.04 C 362.29 303.19 341.23 303.71 320.37 302.80 C 305.76 285.67 291.99 267.78 277.52 250.50 C 246.85 250.39 216.14 250.26 185.48 250.56 C 170.27 267.40 157.09 286.26 141.82 303.00 C 120.93 303.45 99.96 303.30 79.05 303.07 C 94.16 285.32 109.91 268.12 124.90 250.27 C 105.87 250.41 86.82 250.65 67.80 250.18 C 69.94 238.42 73.88 227.06 75.98 215.30 C 52.70 215.13 29.40 215.59 6.13 215.09 C 15.31 177.10 25.14 139.27 34.39 101.30 C 49.15 100.79 63.95 101.20 78.73 101.09 C 74.60 118.67 69.49 136.04 65.93 153.73 C 74.51 153.77 83.09 153.90 91.67 153.65 C 96.27 136.16 100.08 118.44 105.09 101.08 C 122.05 100.98 139.01 101.25 155.97 100.97 C 146.89 89.11 136.93 77.93 127.97 65.98 M 146.79 74.88 C 155.13 87.05 165.70 97.59 174.09 109.71 C 153.40 109.88 132.70 109.60 112.01 109.83 C 106.99 127.25 103.11 145.02 98.57 162.58 C 83.80 162.70 69.03 162.49 54.27 162.68 C 58.52 145.09 63.43 127.64 67.20 109.95 C 58.58 109.72 49.90 109.37 41.31 110.13 C 33.30 142.32 25.10 174.47 17.25 206.69 C 40.56 206.66 63.89 206.34 87.19 206.84 C 85.13 218.59 81.09 229.92 79.08 241.68 C 100.52 241.82 121.98 241.36 143.42 241.89 C 129.53 260.03 113.04 276.21 98.85 294.15 C 111.82 294.45 124.86 294.61 137.82 294.10 C 150.89 279.41 162.79 263.57 175.39 248.42 C 177.88 245.82 179.66 241.16 183.94 241.65 C 216.52 241.94 249.18 241.14 281.70 242.05 C 296.44 258.83 309.78 276.92 324.40 293.80 C 337.43 295.02 350.84 294.23 364.01 294.17 C 349.37 276.41 333.42 259.72 318.90 241.87 C 340.53 241.37 362.19 241.85 383.84 241.64 C 381.39 229.96 377.51 218.59 375.61 206.80 C 398.72 206.36 421.85 206.71 444.96 206.64 C 437.82 174.22 429.31 141.99 420.98 109.83 C 412.41 109.71 403.82 109.62 395.24 109.91 C 399.23 127.54 404.57 144.89 407.94 162.63 C 393.40 162.58 378.85 162.64 364.31 162.60 C 359.45 145.16 355.64 127.43 350.87 109.96 C 329.97 109.51 309.03 109.82 288.12 109.82 C 297.24 98.02 307.22 86.87 316.07 74.87 C 307.52 74.74 298.82 74.10 290.35 75.14 C 279.66 86.16 270.34 98.58 259.56 109.51 C 240.87 109.96 222.07 109.86 203.38 109.56 C 194.06 100.64 186.15 90.12 177.41 80.56 C 170.97 70.07 156.92 76.14 146.79 74.88 Z" />
<path fill="#ffffff" opacity="1.00" d=" M 137.04 136.24 C 151.60 136.27 166.16 136.19 180.72 136.28 C 180.79 150.83 180.72 165.38 180.76 179.94 C 166.17 180.37 151.55 180.21 136.96 180.03 C 136.77 165.44 136.60 150.82 137.04 136.24 M 145.83 145.06 C 145.51 153.75 145.52 162.47 145.83 171.16 C 154.53 171.46 163.24 171.47 171.94 171.15 C 172.07 162.46 172.06 153.75 171.94 145.06 C 163.24 144.95 154.53 144.94 145.83 145.06 Z" />
<path fill="#ffffff" opacity="1.00" d=" M 282.13 136.22 C 296.68 136.27 311.24 136.21 325.79 136.25 C 325.99 150.83 325.88 165.41 325.85 179.99 C 311.26 180.30 296.65 180.24 282.06 180.03 C 281.94 165.43 281.82 150.82 282.13 136.22 M 290.88 145.07 C 290.58 153.75 290.59 162.46 290.88 171.15 C 299.59 171.46 308.32 171.47 317.03 171.15 C 317.23 162.46 317.23 153.76 317.02 145.07 C 308.31 144.93 299.59 144.94 290.88 145.07 Z" />
</g>
</svg>
