<svg xmlns="http://www.w3.org/2000/svg" width="186" height="38"><rect id="backgroundrect" width="88.01643685118793" height="88.01643685118793" x="0" y="-0.456620991230011" fill="none" stroke="none" style="" class=""/><head xmlns=""/><g class="currentLayer" style=""><title>Layer 1</title><g class=""><path d="M33.06656855344772,34.79234313964844 V1.184213399887085 H27.480549037456512 l0.09200000017881393,21.61199951171875 L1.7485472559928894,1.459216594696045 l0.09099999815225601,33.70000076293945 h4.854000091552734 V13.364263534545898 l26.37299919128418,21.42799949645996 zM36.63856714963913,35.341346740722656 l4.303999900817871,-7.326000213623047 h-3.937999963760376 v-5.126999855041504 h6.501999855041504 l11.812999725341797,-21.429000854492188 l18.864999771118164,33.88199996948242 h-6.684999942779541 l-3.8459999561309814,-7.326000213623047 H46.89556711912155 l-4.0289998054504395,7.326000213623047 h-6.228000164031982 zm12.545999526977539,-12.545000076293945 h12.088000297546387 l-6.044000148773193,-11.081000328063965 l-6.044000148773193,11.081000328063965 zM121.9875699877739,35.341346740722656 h-5.49399995803833 V1.550220012664795 l18.680999755859375,21.702999114990234 l18.86400032043457,-22.15999984741211 v34.24800109863281 h-5.861999988555908 l-0.09000000357627869,-18.4060001373291 l-13.003999710083008,15.65999984741211 l-13.095000267028809,-15.569000244140625 v18.315000534057617 zM164.6615735888481,35.341346740722656 l0.09099999815225601,-34.6150016784668 h5.585999965667725 l-0.09099999815225601,34.6150016784668 h-5.585999965667725 zM175.4675733447075,6.404233932495117 v-4.854000091552734 h-1.555999994277954 v-0.9160000085830688 h4.303999900817871 v0.9160000085830688 h-1.649999976158142 v4.854000091552734 h-1.0980000495910645 zM178.48956125974655,6.312238693237305 v-5.677999973297119 h1.555999994277954 l1.6490000486373901,3.572000026702881 l1.555999994277954,-3.572000026702881 h1.1920000314712524 v5.769999980926514 h-1.100000023841858 v-3.755000114440918 l-1.555999994277954,3.755000114440918 l-2.197999954223633,-3.755000114440918 v3.755000114440918 l-1.0989999771118164,-0.09200000017881393 z" id="svg_3" class=""/><path d="M74.00156992673874,18.76728630065918 c0,-10.164999961853027 8.241999626159668,-18.406999588012695 18.408000946044922,-18.406999588012695 c10.163999557495117,0 18.4060001373291,8.241999626159668 18.4060001373291,18.406999588012695 c0,10.163999557495117 -8.241999626159668,18.4060001373291 -18.4060001373291,18.4060001373291 c-10.166000366210938,0 -18.408000946044922,-8.241999626159668 -18.408000946044922,-18.4060001373291 zm18.408000946044922,12.911999702453613 c7.14300012588501,0 12.90999984741211,-5.769999980926514 12.90999984741211,-12.911999702453613 c0,-7.051000118255615 -5.76800012588501,-12.821000099182129 -12.90999984741211,-12.821000099182129 c-7.052000045776367,0 -12.821999549865723,5.769999980926514 -12.821999549865723,12.821000099182129 c0,7.142000198364258 5.769000053405762,12.911999702453613 12.821999549865723,12.911999702453613 z" fill="#cc2229" id="svg_4" class=""/></g></g></svg>