<svg width="183" height="32" xmlns="http://www.w3.org/2000/svg">

 <metadata id="metadata7">image/svg+xml</metadata>
 <g>
  <title>background</title>
  <rect fill="none" id="canvas_background" height="34" width="185" y="-1" x="-1"/>
 </g>
 <g>
  <title>Layer 1</title>
  <g id="layer1">
   <g font-style="normal" font-weight="normal" font-size="40px" font-family="sans-serif" fill="#000000" stroke-width="1px" id="text4136">
    <path id="path4215" d="m28.3004,31.994682l0,-23.919983c0,-4.960021 0.640015,-5.640014 4.400028,-5.760009l0,-1.52002l-10.760014,0l0,1.52002c3.400024,0.119995 3.959961,0.76001 3.959961,6.039977l0,15.76001l-0.160034,0l-17.479981,-23.320006l-7.91992,0l0,1.52002c3.439941,0.160034 4,1.23999 4,5.760009l0,16.23999c0,4.959961 -0.640014,5.640015 -4.400024,5.76001l0,1.52002l10.760008,0l0,-1.52002c-3.400024,-0.119995 -3.960083,-0.76001 -3.960083,-6.040039l0,-17.079956l0.160034,0l19.000001,25.039978l2.400024,0z"/>
   </g>
   <g font-style="normal" font-weight="normal" font-size="40px" font-family="sans-serif" fill="#000000" stroke-width="1px" id="text4136-7">
    <path id="path4212" d="m42.503174,3.216119c0,-0.399963 0.23999,-0.679993 0.680054,-0.679993l5.079956,0c5.439941,0 7.47998,1.079956 8.119995,5.320006l1.400024,0l-0.359985,-7.039977l-23.119995,0l0,1.519959c3.439941,0.159973 4,0.840027 4,4.559997l0,18.640015c0,3.76001 -0.640015,4.440002 -4.400028,4.559998l0,1.519958l24.83997,0l0.599976,-7.880005l-1.52002,0c-1.039917,4.720032 -3.039917,6.160034 -8.679932,6.160034c-5.040039,0 -6.640015,-1.079956 -6.640015,-4.559998l0,-9.039978c6,0.039978 7.560059,1.52002 7.560059,4.719971l1.399902,0l0,-10.919983l-1.399902,0c0,3.23999 -1.800049,4.600037 -7.560059,4.600037l0,-11.480041z"/>
   </g>
   <g font-style="normal" font-weight="normal" font-size="40px" font-family="sans-serif" fill="#000000" stroke-width="1px" id="text4136-8">
    <path id="path4209" d="m73.531494,0.046624c-9.359985,0 -16.640015,6.999999 -16.640015,16.040038c0,8.679932 7.359985,15.559937 16.640015,15.559937c9.280029,0 16.640015,-6.880005 16.640015,-15.559937c0,-9.040039 -7.280029,-16.040038 -16.640015,-16.040038zm0,29.400024c-7.040039,0 -11.439941,-5.119995 -11.439941,-13.23999c0,-8.560059 4.399902,-13.960082 11.439941,-13.960082c7.040039,0 11.439941,5.400023 11.439941,13.960082c0,8.119995 -4.439941,13.23999 -11.439941,13.23999z"/>
   </g>
   <path fill="#000000" stroke="#000000" id="path4166" d="m95.997406,16.594719a2.41071,2.32143 0 0 1 -2.410698,2.321533a2.41071,2.32143 0 0 1 -2.410698,-2.321533a2.41071,2.32143 0 0 1 2.410698,-2.321411a2.41071,2.32143 0 0 1 2.410698,2.321411z"/>
   <g font-style="normal" font-weight="normal" font-size="40px" font-family="sans-serif" fill="#000000" stroke-width="1px" id="text4136-6">
    <path id="path4205" d="m112.094849,32.033012c7.03064,0 10.295654,-0.058167 13.162231,-0.058167l0.157715,-8.141846c0.053101,-2.75946 0.680054,-3.559998 3.280029,-3.559998l0,-1.519958l-11.359985,0l0,1.519958c2.839966,0 4,0.840027 4,3.960022c0,2.959961 -3,5.640015 -8.160034,5.640015c-6.719971,0 -10.439941,-4.800049 -10.439941,-13.359985c0,-8.720032 3.839966,-13.999999 10.319946,-13.999999c4.320068,0 8.560059,2.319946 8.560059,7.519958l1.920044,0l0.519897,-9.200011l-1.399902,0l-0.840088,2.479981c-3.279907,-2.039978 -5.919922,-2.880005 -9.119995,-2.880005c-9.079956,0 -15.319946,6.640014 -15.319946,16.320068c0,9.319946 5.679932,15.279968 14.719971,15.279968z"/>
   </g>
   <g font-style="normal" font-weight="normal" font-size="40px" font-family="sans-serif" fill="#000000" stroke-width="1px" id="text4136-7-0">
    <path id="path4202" d="m135.337646,3.254449c0,-0.399963 0.23999,-0.679993 0.680054,-0.679993l5.079956,0c5.439941,0 7.47998,1.079956 8.119995,5.320006l1.400024,0l-0.359985,-7.039977l-23.119995,0l0,1.519959c3.439941,0.159973 4,0.840027 4,4.559997l0,18.640015c0,3.76001 -0.640015,4.440002 -4.400024,4.559998l0,1.519958l24.839966,0l0.599976,-7.880005l-1.52002,0c-1.039917,4.720032 -3.039917,6.160034 -8.679932,6.160034c-5.040039,0 -6.640015,-1.079956 -6.640015,-4.559998l0,-9.039978c6,0.039978 7.559937,1.52002 7.559937,4.719971l1.400024,0l0,-10.919983l-1.400024,0c0,3.23999 -1.799927,4.600037 -7.559937,4.600037l0,-11.480041z"/>
   </g>
   <g font-style="normal" font-weight="normal" font-size="40px" font-family="sans-serif" fill="#000000" stroke-width="1px" id="text4136-8-2">
    <path id="path4199" d="m166.365845,0.084954c-9.359985,0 -16.640015,6.999999 -16.640015,16.040038c0,8.679932 7.359985,15.559937 16.640015,15.559937c9.280029,0 16.640015,-6.880005 16.640015,-15.559937c0,-9.040039 -7.280029,-16.040038 -16.640015,-16.040038zm0,29.400024c-7.040039,0 -11.440063,-5.119995 -11.440063,-13.23999c0,-8.560059 4.400024,-13.960082 11.440063,-13.960082c7.040039,0 11.439941,5.400023 11.439941,13.960082c0,8.119995 -4.439941,13.23999 -11.439941,13.23999z"/>
   </g>
   <text font-style="normal" font-weight="normal" font-size="2.452294px" font-family="sans-serif" fill="#000000" stroke-width="1px" id="text4217" y="3.290971" x="184.405163" xml:space="preserve">
    <tspan y="3.290971" x="184.405163" id="tspan4219">R</tspan>
   </text>
  </g>
 </g>
</svg>