<svg version="1.1" xmlns="http://www.w3.org/2000/svg" xmlns:xlink="http://www.w3.org/1999/xlink" width="816.1428570747378" height="190" enable-background="new 0 0 566.93 476.302" xml:space="preserve" style=""><rect id="backgroundrect" width="100%" height="100%" x="0" y="0" fill="none" stroke="none" style="" class=""/>

<g class="currentLayer" style=""><title>Layer 1</title>
	
	
	
<path fill="#FF0000" d="M161.93014526367188,52.20146286487579 c1.5450856685638428,-0.11150738596916199 3.107421398162842,-0.16079242527484894 4.688854694366455,-0.16079242527484894 c34.44099426269531,0 63.93192672729492,33.33454895019531 66.14543914794922,50.318172454833984 c0.23533602058887482,1.773029088973999 0.3948962986469269,3.3661680221557617 0.5051715970039368,4.725818634033203 C232.8076171875,60.800477147102356 160.62100219726562,1.290629506111145 102.66311645507812,1.290629506111145 c-44.79454803466797,0 -65.67476654052734,18.137508392333984 -72.56297302246094,38.49961853027344 c-10.26792049407959,25.693519592285156 3.2860796451568604,62.30921936035156 34.98374938964844,88.37237548828125 c3.3174989223480225,2.7242300510406494 6.715701580047607,5.244543552398682 10.175511360168457,7.555395126342773 c-1.5506302118301392,0.10473069548606873 -3.107421398162842,0.1601763516664505 -4.682693958282471,0.1601763516664505 c-34.44038009643555,0 -63.93932342529297,-33.34132385253906 -66.15098571777344,-50.32371139526367 c-0.22917540371418,-1.773029088973999 -0.39612844586372375,-3.3606231212615967 -0.5008591413497925,-4.725818634033203 c0.45773470401763916,46.282955169677734 72.64983367919922,105.79278564453125 130.60348510742188,105.79278564453125 c44.79454803466797,0 65.67476654052734,-18.13134765625 72.56912994384766,-38.49961853027344 c10.261144638061523,-25.692903518676758 -3.2860796451568604,-62.30182647705078 -34.98991012573242,-88.37237548828125 C168.7943115234375,57.02647507190704 165.38998413085938,54.51168930530548 161.93014526367188,52.20146286487579 zM97.37493896484375,129.09534561634064 c-25.507469177246094,-20.967084884643555 -34.09476852416992,-51.78193664550781 -19.638853073120117,-69.22760772705078 c14.474398612976074,-17.469696044921875 47.0056037902832,-15.456401824951172 73.13776397705078,4.892771244049072 c25.927621841430664,20.200702667236328 35.904762268066406,50.86708068847656 22.59225845336914,69.18448638916016 c5.510682582855225,-11.020750045776367 -0.5692421197891235,-27.552797317504883 -14.75901985168457,-38.709693908691406 c-15.388019561767578,-12.095779418945312 -34.54511260986328,-13.294636726379395 -43.07080841064453,-2.909665107727051 c-8.513373374938965,10.372035026550293 -3.4530324935913086,28.683273315429688 11.570277214050293,41.14992141723633 c11.570893287658691,9.599492073059082 25.716930389404297,12.998311996459961 35.781551361083984,9.476896286010742 C145.8370361328125,151.99625504016876 118.96560668945312,146.84961807727814 97.37493896484375,129.09534561634064 z" class="" id="svg_2"/><g id="svg_3" class="">
		<path fill="#F0373F" d="M546.2101440429688,99.98048508167267 c-4.492000102996826,-1.3240000009536743 -9.555999755859375,5.0229997634887695 -13.878999710083008,14.710000038146973 c-3.8510000705718994,16.145999908447266 -12.413999557495117,39.95000076293945 -12.96500015258789,56.375999450683594 c-0.25,7.289999961853027 6.479000091552734,9.425999641418457 11.050999641418457,11.039999961853027 c14.470000267028809,5.104000091552734 22.933000564575195,0.10999999940395355 27.243000030517578,-5.104000091552734 c3.0999999046325684,-3.740000009536743 -0.17900000512599945,-6.859000205993652 -4.019999980926514,-5.715000152587891 c-5.556000232696533,1.6430000066757202 -12.343999862670898,2.757999897003174 -13.746999740600586,-2.6080000400543213 c-1.5440000295639038,-5.914999961853027 6.688000202178955,-30.224000930786133 12.373000144958496,-48.32400131225586 C555.3742065429688,110.47749435901642 558.0021362304688,102.27549850940704 546.2101440429688,99.98048508167267 z" id="svg_4"/>
		<path fill="#F5A023" d="M471.232177734375,128.6185084581375 c-9.795999526977539,1.0130000114440918 -29.26099967956543,6.196000099182129 -29.26099967956543,31.375999450683594 c0,1.184999942779541 -3.549999952316284,28.43000030517578 31.586999893188477,25.270999908447266 c35.14799880981445,-3.1589999198913574 41.06399917602539,-25.270999908447266 41.06399917602539,-25.270999908447266 s8.692999839782715,-29.219999313354492 -12.63599967956543,-28.42799949645996 c-13.015999794006348,0.48100000619888306 -18.95199966430664,6.316999912261963 -18.95199966430664,6.316999912261963 s8.684000015258789,1.7050000429153442 10.559000015258789,7.940999984741211 c3.559999942779541,11.822999954223633 2.246999979019165,31.770000457763672 -16.875999450683594,29.96299934387207 c-19.191999435424805,-1.812999963760376 -9.817000389099121,-27.166000366210938 -3.7699999809265137,-40.020999908447266 C475.0341796875,131.3465052843094 474.52117919921875,128.2785121202469 471.232177734375,128.6185084581375 z" id="svg_5"/>
		<path fill="#7487BF" d="M588.1061401367188,128.6185084581375 c-9.79699993133545,1.0130000114440918 -29.261999130249023,6.196000099182129 -29.261999130249023,31.375999450683594 c0,1.184999942779541 -3.5490000247955322,28.43000030517578 31.586999893188477,25.270999908447266 c35.14699935913086,-3.1589999198913574 41.064998626708984,-25.270999908447266 41.064998626708984,-25.270999908447266 s8.692000389099121,-29.219999313354492 -12.63599967956543,-28.42799949645996 c-13.015999794006348,0.48100000619888306 -18.951000213623047,6.316999912261963 -18.951000213623047,6.316999912261963 s8.682000160217285,1.7050000429153442 10.557000160217285,7.940999984741211 c3.561000108718872,11.822999954223633 2.246999979019165,31.770000457763672 -16.875999450683594,29.96299934387207 c-19.19300079345703,-1.812999963760376 -9.817999839782715,-27.166000366210938 -3.7709999084472656,-40.020999908447266 C591.9081420898438,131.3465052843094 591.3952026367188,128.2785121202469 588.1061401367188,128.6185084581375 z" id="svg_6"/>
		<path fill="#019EE3" d="M356.68536376953125,147.3615199327469 c-1.5740000009536743,-31.19700050354004 41.51499938964844,-45.19499969482422 56.858001708984375,-46.37900161743164 c15.352999687194824,-1.194000005722046 31.58799934387207,2.1549999713897705 31.58799934387207,2.1549999713897705 s-2.367000102996826,30.79599952697754 -9.47700023651123,31.58799934387207 c-7.098999977111816,0.7919999957084656 -5.525000095367432,-23.29599952697754 -18.952999114990234,-22.111000061035156 c-24.58799934387207,2.1659998893737793 -34.45500183105469,28.969999313354492 -34.74700164794922,37.90399932861328 c-0.1289999932050705,4.321000099182129 1.194000005722046,23.684999465942383 18.952999114990234,22.111000061035156 c17.768999099731445,-1.5859999656677246 21.719999313354492,-11.060999870300293 25.270000457763672,-12.63599967956543 c3.559000015258789,-1.5850000381469727 10.368000030517578,-4.703000068664551 9.47599983215332,3.1589999198913574 c-1.965000033378601,17.367000579833984 -34.74599838256836,22.111000061035156 -34.74599838256836,22.111000061035156 S358.73150634765625,187.59049332141876 356.68536376953125,147.3615199327469 z" id="svg_7"/>
		<path fill="#DA72A3" d="M647.2911987304688,182.10648453235626 c-15.003999710083008,0.7919999957084656 -6.710999965667725,-17.378000259399414 -3.1589999198913574,-28.429000854492188 c3.559000015258789,-11.062000274658203 2.9070000648498535,-23.18400001525879 15.793000221252441,-22.110000610351562 c14.24899959564209,1.1740000247955322 3.1579999923706055,18.95199966430664 3.1579999923706055,18.95199966430664 s21.641000747680664,-23.735000610351562 41.0629997253418,-22.110000610351562 c4.743000030517578,0.38999998569488525 -9.47700023651123,31.586000442504883 -9.47700023651123,31.586000442504883 s-3.5510001182556152,-11.451000213623047 -12.633999824523926,-9.475000381469727 C655.9231567382812,156.1955043077469 662.3001708984375,181.3145228624344 647.2911987304688,182.10648453235626 z" id="svg_8"/>
	</g><g id="svg_9" class="">
		<polygon points="247.40997314453125,76.68150436878204 257.02496337890625,36.36747848987579 266.70928955078125,28.68347656726837 276.32171630859375,28.68347656726837 266.70928955078125,68.99649155139923 276.32171630859375,63.243470311164856 284.0390625,34.47348129749298 289.82830810546875,28.68347656726837 303.3729248046875,28.68347656726837 293.7244873046875,68.99649155139923 303.3729248046875,61.34849655628204 309.12823486328125,36.36747848987579 316.88262939453125,28.68347656726837 328.49609375,28.68347656726837 318.84765625,67.10350143909454 307.26812744140625,76.68150436878204 " id="svg_10"/>
		<polygon points="638.3731689453125,76.68150436878204 643.2861938476562,53.66548264026642 652.0202026367188,45.27949631214142 663.2471313476562,45.27949631214142 656.6531372070312,70.57649338245392 666.3351440429688,64.82248032093048 668.7911987304688,51.735474705696106 675.2492065429688,45.27949631214142 688.7211303710938,45.27949631214142 682.1231689453125,70.57649338245392 691.2481689453125,64.4714823961258 693.8441772460938,53.66548264026642 702.2631225585938,45.27949631214142 712.2981567382812,45.27949631214142 706.6841430664062,67.10350143909454 693.5281372070312,76.68150436878204 " id="svg_11"/>
		<path d="M563.045166015625,76.68150436878204 l9.682999610900879,-9.57800006866455 h41.54199981689453 c0,0 3.5759999752044678,1.0529999732971191 5.616000175476074,-3.4730000495910645 c1.8569999933242798,-4.2129998207092285 -1.75600004196167,-4.2129998207092285 -1.75600004196167,-4.2129998207092285 H598.8351440429688 c0,0 -5.543000221252441,-1.2640000581741333 -5.578000068664551,-8.069999694824219 c-0.10400000214576721,-16.732999801635742 13.64799976348877,-21.051000595092773 13.64799976348877,-21.051000595092773 h40.555999755859375 l-8.067000389099121,8.00100040435791 h-21.263999938964844 c0,0 -6.770999908447266,1.9299999475479126 -6.913000106811523,7.578999996185303 c-0.10400000214576721,2.562000036239624 3.052999973297119,2.0360000133514404 3.052999973297119,2.0360000133514404 h17.33099937438965 c0,0 10.034000396728516,1.6829999685287476 7.71999979019165,12.489999771118164 c-3.0209999084472656,14.210000038146973 -13.473999977111816,16.27899932861328 -13.473999977111816,16.27899932861328 L563.045166015625,76.68150436878204 L563.045166015625,76.68150436878204 z" id="svg_12"/>
		<path d="M530.0641479492188,76.68150436878204 h17.329999923706055 l5.264999866485596,-19.92799949645996 c0.6320000290870667,-2.315999984741211 6.736999988555908,-4.945000171661377 5.124000072479248,-4.666999816894531 c-1.5800000429153442,0.2809999883174896 5.543000221252441,-1.0540000200271606 5.543000221252441,-1.0540000200271606 s2.243000030517578,0.6320000290870667 3.368000030517578,2.1760001182556152 c1.1579999923706055,1.5080000162124634 -1.125,3.755000114440918 -1.440000057220459,5.510000228881836 c-0.3140000104904175,1.753000020980835 1.930999994277954,1.9279999732971191 1.930999994277954,1.9279999732971191 h9.682999610900879 c0,0 5.196000099182129,-1.9279999732971191 6.60099983215332,-3.8580000400543213 c1.36899995803833,-1.9630000591278076 3.0840001106262207,-3.999000072479248 3.0840001106262207,-5.718999862670898 c0,-1.718999981880188 -3.8239998817443848,-3.8580000400543213 -3.8239998817443848,-3.8580000400543213 l-3.8959999084472656,-1.8960000276565552 h-28.94499969482422 c0,0 -13.854999542236328,7.932000160217285 -15.470999717712402,9.579999923706055 C533.8531494140625,55.384461522102356 530.0641479492188,76.68150436878204 530.0641479492188,76.68150436878204 z" id="svg_13"/>
		<path d="M327.47607421875,54.68248093128204 c-1.3329999446868896,1.5420000553131104 -5.682000160217285,15.086999893188477 -4.736000061035156,17.29599952697754 c0.9819999933242798,2.1429998874664307 6.349999904632568,4.701000213623047 6.349999904632568,4.701000213623047 h28.20800018310547 c0,0 13.156999588012695,-8.246000289916992 14.173999786376953,-9.404000282287598 c0.9829999804496765,-1.190999984741211 4.702000141143799,-14.350000381469727 4.702000141143799,-15.720000267028809 c0,-1.36899995803833 -3.1579999923706055,-6.2789998054504395 -3.1579999923706055,-6.2789998054504395 h-32.97999954223633 C340.03863525390625,45.27949631214142 328.84814453125,53.138489842414856 327.47607421875,54.68248093128204 zM349.47705078125,51.560486912727356 h8.666999816894531 c0,0 -0.9819999933242798,10.42199993133545 -3.1570000648498535,13.366000175476074 c-2.2100000381469727,2.947999954223633 -7.086999893188477,5.508999824523926 -7.086999893188477,5.508999824523926 s-5.4730000495910645,0.5630000233650208 -6.244999885559082,0 c-0.8069999814033508,-0.6309999823570251 -0.210999995470047,-6.28000020980835 -0.210999995470047,-6.28000020980835 s0.7369999885559082,-6.104000091552734 1.753999948501587,-7.894000053405762 C344.18084716796875,54.50747787952423 349.47705078125,51.560486912727356 349.47705078125,51.560486912727356 z" id="svg_14"/>
		<path d="M432.66619873046875,54.68248093128204 c-1.3329999446868896,1.5420000553131104 -5.683000087738037,15.086999893188477 -4.701000213623047,17.29599952697754 c0.9819999933242798,2.1429998874664307 6.315000057220459,4.701000213623047 6.315000057220459,4.701000213623047 h39.2599983215332 c0,0 1.2990000247955322,-6.244999885559082 2.9140000343322754,-12.562999725341797 c1.5420000553131104,-5.929999828338623 3.368000030517578,-15.04800033569336 3.368000030517578,-15.720000267028809 c0,-1.4040000438690186 9.753999710083008,-13.715999603271484 9.753999710083008,-13.715999603271484 h-17.05299949645996 l-8.628000259399414,10.593000411987305 h-18.66699981689453 C445.26416015625,45.27949631214142 434.0721435546875,53.138489842414856 432.66619873046875,54.68248093128204 zM454.6651611328125,51.560486912727356 h8.630000114440918 c0,0 -0.9490000009536743,10.42199993133545 -3.1589999198913574,13.366000175476074 c-2.1419999599456787,2.947999954223633 -7.052000045776367,5.508999824523926 -7.052000045776367,5.508999824523926 s-5.4730000495910645,0.5630000233650208 -6.281000137329102,0 c-0.7369999885559082,-0.6309999823570251 -0.20900000631809235,-6.28000020980835 -0.20900000631809235,-6.28000020980835 s0.7369999885559082,-6.104000091552734 1.7890000343322754,-7.894000053405762 C449.36614990234375,54.50747787952423 454.6651611328125,51.560486912727356 454.6651611328125,51.560486912727356 z" id="svg_15"/>
		<path d="M371.9700927734375,76.68150436878204 l8.91100025177002,-31.402000427246094 h37.68299865722656 c0,0 4.98199987411499,0.5249999761581421 6.665999889373779,3.3329999446868896 c1.753999948501587,2.809000015258789 1.1929999589920044,7.64900016784668 1.1929999589920044,7.64900016784668 l-5.123000144958496,20.420000076293945 h-15.718999862670898 c0,0 1.8250000476837158,-9.998000144958496 3.5789999961853027,-17.263999938964844 c1.753999948501587,-7.263000011444092 -3.1570000648498535,-7.85699987411499 -3.1570000648498535,-7.85699987411499 h-9.402999877929688 l-5.4029998779296875,18.84000015258789 c0,0 -4.702000141143799,5.4730000495910645 -6.665999889373779,6.281000137329102 H371.9700927734375 z" id="svg_16"/>
		<path d="M758.6796875,76.68150436878204 l10.00100040435791,-31.402000427246094 h37.68299865722656 c0,0 4.946000099182129,0.5249999761581421 6.701000213623047,3.3329999446868896 c1.75600004196167,2.809000015258789 1.194000005722046,7.64900016784668 1.194000005722046,7.64900016784668 l-5.300000190734863,20.420000076293945 h-17.22599983215332 c0,0 2.875,-8.420000076293945 4.701000213623047,-15.720999717712402 c1.7549999952316284,-7.2270002365112305 -2.562999963760376,-9.401000022888184 -2.562999963760376,-9.401000022888184 h-9.437999725341797 l-5.264999866485596,18.839000701904297 c0,0 -4.3480000495910645,5.473999977111816 -6.2779998779296875,6.281000137329102 h-14.211999893188477 V76.68150436878204 z" id="svg_17"/>
		<path d="M484.48614501953125,54.68248093128204 c-1.3700000047683716,1.5420000553131104 -5.646999835968018,15.086999893188477 -4.698999881744385,17.29599952697754 c0.9470000267028809,2.1429998874664307 6.2789998054504395,4.701000213623047 6.2789998054504395,4.701000213623047 h28.2450008392334 c0,0 5.613999843597412,-3.509000062942505 9.791000366210938,-6.281000137329102 c0,0 -24.000999450683594,0.17599999904632568 -25.474000930786133,0 c-0.6650000214576721,-0.07000000029802322 -0.41999998688697815,-2.9790000915527344 -0.3499999940395355,-4.698999881744385 h19.29599952697754 c0,0 3.7190001010894775,-0.8080000281333923 9.26200008392334,-5.40500020980835 c5.617000102996826,-4.593999862670898 6.315000057220459,-5.0879998207092285 6.315000057220459,-8.736000061035156 c0,-3.6110000610351562 -3.1579999923706055,-6.281000137329102 -3.1579999923706055,-6.281000137329102 H497.01519775390625 C497.08319091796875,45.27949631214142 485.857177734375,53.138489842414856 484.48614501953125,54.68248093128204 zM506.52313232421875,51.560486912727356 h12.666000366210938 c0,0 -1.4040000438690186,4.809000015258789 -8.3149995803833,7.85699987411499 h-10.5600004196167 c-1.0190000534057617,-2.7339999675750732 1.4730000495910645,-4.909999847412109 2.875999927520752,-6.104000091552734 C504.66314697265625,51.98048508167267 506.52313232421875,51.560486912727356 506.52313232421875,51.560486912727356 z" id="svg_18"/>
		<path d="M738.2611694335938,76.68150436878204 c0,0 5.333000183105469,-16.875999450683594 7.019000053405762,-22.280000686645508 c0.8420000076293945,-2.946000099182129 -1.1230000257492065,-2.8410000801086426 -4.843999862670898,-2.8410000801086426 s-6.421000003814697,0.8059999942779541 -11.57800006866455,9.401000022888184 c-6.034999847412109,10.03499984741211 8.90999984741211,12.772000312805176 8.90999984741211,12.772000312805176 l-1.0529999732971191,2.944999933242798 h-17.259000778198242 c0,0 -9.4399995803833,0.3869999945163727 -9.4399995803833,-10.979999542236328 c0,-13.96399974822998 17.85700035095215,-20.42300033569336 17.85700035095215,-20.42300033569336 h37.71699905395508 l-10.032999992370605,31.402999877929688 h-17.29599952697754 V76.68150436878204 L738.2611694335938,76.68150436878204 z" id="svg_19"/>
	</g></g></svg>