<svg version="1.2" baseProfile="tiny" xmlns:x="http://ns.adobe.com/Extensibility/1.0/" xmlns:i="http://ns.adobe.com/AdobeIllustrator/10.0/" xmlns:graph="http://ns.adobe.com/Graphs/1.0/" xmlns="http://www.w3.org/2000/svg" xmlns:xlink="http://www.w3.org/1999/xlink" xmlns:a="http://ns.adobe.com/AdobeSVGViewerExtensions/3.0/" width="567.154" height="100.826" xml:space="preserve" style=""><rect id="backgroundrect" width="100%" height="100%" x="0" y="0" fill="none" stroke="none"/>
<metadata>
	<sfw xmlns="http://ns.adobe.com/SaveForWeb/1.0/">
		<slices/>
		<sliceSourceBounds height="100.826" width="567.154" y="496.785" x="676.753" bottomLeftOrigin="true"/>
	</sfw>
</metadata>


















<g class="currentLayer" style=""><title>Layer 1</title><g id="svg_1" class="" fill="#000000" fill-opacity="1">
	<path fill="#000000" d="M161.25943011045456,35.04124450683594 c1.659999966621399,1.149999976158142 2.9059998989105225,2.3959999084472656 3.736999988555908,3.7360000610351562 c0.8939999938011169,1.5980000495910645 1.437000036239624,3.385999917984009 1.628999948501587,5.364999771118164 v44.16899871826172 c0,2.684000015258789 -0.4950000047683716,4.775000095367432 -1.4850000143051147,6.2769999504089355 c-0.9900000095367432,1.5 -2.0929999351501465,2.697000026702881 -3.305999994277954,3.5920000076293945 c-1.4049999713897705,1.0210000276565552 -3.002000093460083,1.725000023841858 -4.789999961853027,2.1070001125335693 h-29.79800033569336 v-67.16500091552734 h26.92300033569336 C157.23643511533737,33.25325012207031 159.59942644834518,33.89125061035156 161.25943011045456,35.04124450683594 zM163.36743181943893,43.95124816894531 c-0.19099999964237213,-1.4040000438690186 -0.6060000061988831,-2.681999921798706 -1.2450000047683716,-3.8320000171661377 c-0.5120000243186951,-0.9580000042915344 -1.309999942779541,-1.8359999656677246 -2.3959999084472656,-2.634999990463257 s-2.555999994277954,-1.1339999437332153 -4.4070000648498535,-1.0069999694824219 l-25.007999420166016,0.09600000083446503 v60.64899826049805 h25.391000747680664 c1.340999960899353,-0.2540000081062317 2.555000066757202,-0.7009999752044678 3.6410000324249268,-1.340000033378601 c0.8949999809265137,-0.5120000243186951 1.7569999694824219,-1.2769999504089355 2.5869998931884766,-2.3010001182556152 c0.8299999833106995,-1.0210000276565552 1.309999942779541,-2.4260001182556152 1.437999963760376,-4.215000152587891 V43.95124816894531 zM149.28343218564987,47.832244873046875 c0.5740000009536743,0.5429999828338623 1.0210000276565552,1.1339999437332153 1.340999960899353,1.7719999551773071 c0.3190000057220459,0.703000009059906 0.5109999775886536,1.5010000467300415 0.574999988079071,2.3949999809265137 v27.785999298095703 c0.06300000101327896,1.5980000495910645 -0.07999999821186066,2.828000068664551 -0.4320000112056732,3.688999891281128 c-0.35199999809265137,0.8629999756813049 -0.7820000052452087,1.4839999675750732 -1.2929999828338623,1.8669999837875366 c-0.574999988079071,0.5120000243186951 -1.2139999866485596,0.7990000247955322 -1.9160000085830688,0.8629999756813049 h-5.749000072479248 l-0.19099999964237213,-39.37900161743164 h5.173999786376953 C147.878433406353,46.954254150390625 148.70843523740768,47.28924560546875 149.28343218564987,47.832244873046875 zM148.13342303037643,51.99925231933594 c-0.12800000607967377,-0.5099999904632568 -0.3190000057220459,-0.925000011920929 -0.5740000009536743,-1.2450000047683716 c-0.574999988079071,-0.7020000219345093 -1.565000057220459,-0.8939999938011169 -2.9709999561309814,-0.574999988079071 v32.95899963378906 c0.5740000009536743,0.19099999964237213 1.1169999837875366,0.25600001215934753 1.628999948501587,0.19099999964237213 c0.44699999690055847,-0.06300000101327896 0.8460000157356262,-0.2540000081062317 1.1970000267028809,-0.5740000009536743 c0.35199999809265137,-0.3179999887943268 0.5910000205039978,-0.9259999990463257 0.718999981880188,-1.8200000524520874 V51.99925231933594 z" id="svg_2" fill-opacity="1"/>
	<path fill="#000000" d="M189.42942827939987,33.41224670410156 v66.68499755859375 h-18.58799934387207 v-66.68499755859375 H189.42942827939987 zM186.17143267393112,37.24424743652344 h-12.263999938964844 v59.21200180053711 h12.263999938964844 V37.24424743652344 z" id="svg_3" fill-opacity="1"/>
	<path fill="#000000" d="M213.86242693662643,55.25724792480469 v-2.7780001163482666 c0.06300000101327896,-1.2769999504089355 -0.2240000069141388,-2.0439999103546143 -0.8619999885559082,-2.299999952316284 c-0.25600001215934753,-0.12700000405311584 -0.6069999933242798,-0.12700000405311584 -1.0540000200271606,0 c-0.5120000243186951,0 -0.8790000081062317,0.1120000034570694 -1.1030000448226929,0.335999995470047 s-0.367000013589859,0.4950000047683716 -0.4309999942779541,0.8140000104904175 c-0.1289999932050705,0.3190000057220459 -0.1289999932050705,0.7020000219345093 0,1.1490000486373901 v3.6410000324249268 l14.755000114440918,9.581999778747559 c1.8519999980926514,1.0210000276565552 3.2730000019073486,2.1070001125335693 4.263999938964844,3.257999897003174 s1.6770000457763672,2.2360000610351562 2.059999942779541,3.257999897003174 c0.44699999690055847,1.149999976158142 0.6710000038146973,2.36299991607666 0.6710000038146973,3.6410000324249268 v14.657999992370605 c-0.12800000607967377,2.1089999675750732 -0.6710000038146973,3.818000078201294 -1.628999948501587,5.126999855041504 c-0.9580000042915344,1.3109999895095825 -2.0439999103546143,2.315999984741211 -3.257999897003174,3.0179998874664307 c-1.4049999713897705,0.8299999833106995 -2.9700000286102295,1.437999963760376 -4.693999767303467,1.8200000524520874 h-19.354000091552734 c-2.427999973297119,-0.06400000303983688 -4.328000068664551,-0.6700000166893005 -5.701000213623047,-1.8200000524520874 c-1.3730000257492065,-1.1480000019073486 -2.378999948501587,-2.36299991607666 -3.0179998874664307,-3.6410000324249268 c-0.7670000195503235,-1.5329999923706055 -1.246000051498413,-3.257999897003174 -1.437999963760376,-5.173999786376953 v-21.84600067138672 l17.437999725341797,10.63700008392334 v3.7360000610351562 c0,0.5740000009536743 0.07900000363588333,1.00600004196167 0.23899999260902405,1.2929999828338623 c0.1589999943971634,0.28700000047683716 0.367000013589859,0.4959999918937683 0.6230000257492065,0.6230000257492065 c0.2549999952316284,0.19099999964237213 0.5740000009536743,0.28700000047683716 0.9580000042915344,0.28700000047683716 c0.9580000042915344,-0.06400000303983688 1.5010000467300415,-0.44699999690055847 1.628999948501587,-1.149999976158142 c0.06300000101327896,-0.2540000081062317 0.03099999949336052,-0.6050000190734863 -0.09600000083446503,-1.0529999732971191 v-4.4079999923706055 l-12.743000030517578,-7.664000034332275 c-2.2360000610351562,-1.2130000591278076 -3.9130001068115234,-2.507999897003174 -5.03000020980835,-3.88100004196167 c-1.1180000305175781,-1.3730000257492065 -1.9329999685287476,-2.6040000915527344 -2.443000078201294,-3.688999891281128 c-0.574999988079071,-1.2769999504089355 -0.8619999885559082,-2.555000066757202 -0.8619999885559082,-3.8320000171661377 v-15.713000297546387 c0.12700000405311584,-2.427000045776367 0.7020000219345093,-4.310999870300293 1.725000023841858,-5.6519999504089355 c1.0210000276565552,-1.3420000076293945 2.171999931335449,-2.3320000171661377 3.4489998817443848,-2.9709999561309814 c1.468999981880188,-0.7020000219345093 3.0980000495910645,-1.1169999837875366 4.88700008392334,-1.2450000047683716 h17.149999618530273 c2.937999963760376,0.12800000607967377 5.204999923706055,0.6710000038146973 6.802999973297119,1.628999948501587 c1.597000002861023,0.9580000042915344 2.811000108718872,2.0439999103546143 3.6410000324249268,3.256999969482422 c0.8949999809265137,1.406000018119812 1.468999981880188,2.9709999561309814 1.725000023841858,4.695000171661377 v24.43199920654297 L213.86242693662643,55.25724792480469 zM212.32843035459518,46.9222412109375 c1.0210000276565552,0.12800000607967377 1.8049999475479126,0.367000013589859 2.3480000495910645,0.718999981880188 s0.9739999771118164,0.75 1.2929999828338623,1.1970000267028809 c0.3190000057220459,0.5120000243186951 0.5429999828338623,1.0859999656677246 0.6710000038146973,1.725000023841858 v2.7780001163482666 l12.456000328063965,7.4730000495910645 l-0.19200000166893005,-16.382999420166016 c0.06300000101327896,-1.659999966621399 -0.30399999022483826,-3.0179998874664307 -1.1019999980926514,-4.072000026702881 c-0.7990000247955322,-1.0540000200271606 -1.6770000457763672,-1.8680000305175781 -2.634999990463257,-2.443000078201294 c-1.149999976158142,-0.7020000219345093 -2.4600000381469727,-1.1490000486373901 -3.928999900817871,-1.3420000076293945 h-18.586999893188477 c-1.4700000286102295,0.1289999932050705 -2.619999885559082,0.527999997138977 -3.450000047683716,1.1979999542236328 c-0.8299999833106995,0.6710000038146973 -1.468999981880188,1.3569999933242798 -1.9160000085830688,2.059999942779541 c-0.5120000243186951,0.8949999809265137 -0.8619999885559082,1.8539999723434448 -1.0540000200271606,2.875 v15.520999908447266 c-0.06400000303983688,1.277999997138977 0.19099999964237213,2.3949999809265137 0.7670000195503235,3.3540000915527344 c0.5740000009536743,0.9570000171661377 1.2130000591278076,1.7869999408721924 1.9160000085830688,2.490000009536743 c0.7670000195503235,0.8299999833106995 1.6929999589920044,1.5640000104904175 2.7790000438690186,2.203000068664551 l15.713000297546387,10.156000137329102 v6.229000091552734 c0,1.2130000591278076 -0.25600001215934753,2.1559998989105225 -0.7670000195503235,2.8259999752044678 c-0.5120000243186951,0.671999990940094 -1.0859999656677246,1.1660000085830688 -1.725000023841858,1.4839999675750732 c-0.703000009059906,0.38499999046325684 -1.5329999923706055,0.640999972820282 -2.490999937057495,0.7680000066757202 c-1.2139999866485596,-0.12700000405311584 -2.140000104904175,-0.39800000190734863 -2.7780001163482666,-0.8140000104904175 c-0.6389999985694885,-0.414000004529953 -1.1180000305175781,-0.8769999742507935 -1.437999963760376,-1.3890000581741333 c-0.3840000033378601,-0.5740000009536743 -0.6399999856948853,-1.246000051498413 -0.7670000195503235,-2.0139999389648438 v-3.063999891281128 l-11.210000038146973,-6.706999778747559 l-0.19099999964237213,15.713000297546387 c0.06300000101327896,1.8519999980926514 0.46299999952316284,3.2730000019073486 1.1970000267028809,4.263999938964844 s1.5490000247955322,1.7400000095367432 2.443000078201294,2.252000093460083 c1.0210000276565552,0.5740000009536743 2.203000068664551,0.9259999990463257 3.5450000762939453,1.0529999732971191 h18.68400001525879 c1.8519999980926514,-0.06300000101327896 3.240999937057495,-0.4790000021457672 4.168000221252441,-1.24399995803833 c0.9259999990463257,-0.7680000066757202 1.6119999885559082,-1.5980000495910645 2.059999942779541,-2.492000102996826 c0.5109999775886536,-1.0859999656677246 0.7670000195503235,-2.2990000247955322 0.7670000195503235,-3.6410000324249268 V75.37825012207031 c0.06300000101327896,-0.7680000066757202 -0.12800000607967377,-1.5329999923706055 -0.574999988079071,-2.3010001182556152 c-0.44699999690055847,-0.765999972820282 -0.9580000042915344,-1.4359999895095825 -1.531999945640564,-2.01200008392334 c-0.703000009059906,-0.703000009059906 -1.4700000286102295,-1.3730000257492065 -2.299999952316284,-2.01200008392334 l-17.05500030517578,-11.019000053405762 v-7.090000152587891 c0.06300000101327896,-1.0859999656677246 0.367000013589859,-1.8839999437332153 0.9100000262260437,-2.3949999809265137 s1.1019999980926514,-0.8949999809265137 1.6770000457763672,-1.149999976158142 C210.732437312603,47.14524841308594 211.4984285235405,46.98625183105469 212.32843035459518,46.9222412109375 z" id="svg_4" fill-opacity="1"/>
	<path fill="#000000" d="M273.2668916583061,58.51524353027344 l-6.8979997634887695,7.951000213623047 l6.8979997634887695,8.432000160217285 v25.198999404907227 h-17.72599983215332 v-18.58799934387207 l-2.490999937057495,-2.2990000247955322 v21.077999114990234 h-17.91699981689453 v-66.97200012207031 h17.91699981689453 v21.077999114990234 l2.490999937057495,-2.9700000286102295 v-18.107999801635742 h17.72599983215332 V58.51524353027344 zM270.1998750567436,37.14825439453125 h-11.11400032043457 l-0.09600000083446503,16.000999450683594 l-9.006999969482422,9.197999954223633 l-0.382999986410141,-25.582000732421875 h-11.210000038146973 v59.595001220703125 h11.11400032043457 v-24.72100067138672 l8.718999862670898,8.239999771118164 v16.576000213623047 h11.78499984741211 v-21.173999786376953 l-7.568999767303467,-8.815999984741211 l7.761000156402588,-9.005000114440918 V37.14825439453125 z" id="svg_5" fill-opacity="1"/>
	<path fill="#000000" d="M325.2928926348686,55.25724792480469 v-2.7780001163482666 c0.06400000303983688,-1.2769999504089355 -0.22300000488758087,-2.0439999103546143 -0.8610000014305115,-2.299999952316284 c-0.25600001215934753,-0.12700000405311584 -0.6069999933242798,-0.12700000405311584 -1.0549999475479126,0 c-0.5120000243186951,0 -0.8790000081062317,0.1120000034570694 -1.1019999980926514,0.335999995470047 c-0.22499999403953552,0.2240000069141388 -0.367000013589859,0.4950000047683716 -0.4320000112056732,0.8140000104904175 c-0.1289999932050705,0.3190000057220459 -0.1289999932050705,0.7020000219345093 0,1.1490000486373901 v3.6410000324249268 l14.755999565124512,9.581999778747559 c1.8519999980926514,1.0210000276565552 3.2730000019073486,2.1070001125335693 4.263999938964844,3.257999897003174 s1.6759999990463257,2.2360000610351562 2.059000015258789,3.257999897003174 c0.44699999690055847,1.149999976158142 0.671999990940094,2.36299991607666 0.671999990940094,3.6410000324249268 v14.657999992370605 c-0.1289999932050705,2.1089999675750732 -0.671999990940094,3.818000078201294 -1.628999948501587,5.126999855041504 c-0.9589999914169312,1.3109999895095825 -2.0450000762939453,2.315999984741211 -3.257999897003174,3.0179998874664307 c-1.406000018119812,0.8299999833106995 -2.9709999561309814,1.437999963760376 -4.695000171661377,1.8200000524520874 h-19.354000091552734 c-2.427999973297119,-0.06400000303983688 -4.328000068664551,-0.6700000166893005 -5.701000213623047,-1.8200000524520874 c-1.3730000257492065,-1.1480000019073486 -2.378999948501587,-2.36299991607666 -3.0179998874664307,-3.6410000324249268 c-0.7680000066757202,-1.5329999923706055 -1.246000051498413,-3.257999897003174 -1.437999963760376,-5.173999786376953 v-21.84600067138672 l17.437999725341797,10.63700008392334 v3.7360000610351562 c0,0.5740000009536743 0.07999999821186066,1.00600004196167 0.23999999463558197,1.2929999828338623 c0.15800000727176666,0.28700000047683716 0.367000013589859,0.4959999918937683 0.6230000257492065,0.6230000257492065 c0.2540000081062317,0.19099999964237213 0.5740000009536743,0.28700000047683716 0.9570000171661377,0.28700000047683716 c0.9589999914169312,-0.06400000303983688 1.5019999742507935,-0.44699999690055847 1.628999948501587,-1.149999976158142 c0.06400000303983688,-0.2540000081062317 0.03099999949336052,-0.6050000190734863 -0.09600000083446503,-1.0529999732971191 v-4.4079999923706055 l-12.741999626159668,-7.664000034332275 c-2.2360000610351562,-1.2130000591278076 -3.9140000343322754,-2.507999897003174 -5.031000137329102,-3.88100004196167 s-1.9320000410079956,-2.6040000915527344 -2.443000078201294,-3.688999891281128 c-0.5740000009536743,-1.2769999504089355 -0.8610000014305115,-2.555000066757202 -0.8610000014305115,-3.8320000171661377 v-15.713000297546387 c0.12700000405311584,-2.427000045776367 0.7009999752044678,-4.310999870300293 1.725000023841858,-5.6519999504089355 c1.0210000276565552,-1.3420000076293945 2.171999931335449,-2.3320000171661377 3.4489998817443848,-2.9709999561309814 c1.468999981880188,-0.7020000219345093 3.0980000495910645,-1.1169999837875366 4.88700008392334,-1.2450000047683716 h17.149999618530273 c2.937999963760376,0.12800000607967377 5.204999923706055,0.6710000038146973 6.802999973297119,1.628999948501587 c1.5959999561309814,0.9580000042915344 2.811000108718872,2.0439999103546143 3.6410000324249268,3.256999969482422 c0.8949999809265137,1.406000018119812 1.468999981880188,2.9709999561309814 1.725000023841858,4.695000171661377 v24.43199920654297 L325.2928926348686,55.25724792480469 zM323.7598726153374,46.9222412109375 c1.0210000276565552,0.12800000607967377 1.8049999475479126,0.367000013589859 2.3480000495910645,0.718999981880188 s0.9750000238418579,0.75 1.2929999828338623,1.1970000267028809 c0.3199999928474426,0.5120000243186951 0.5429999828338623,1.0859999656677246 0.671999990940094,1.725000023841858 v2.7780001163482666 l12.454999923706055,7.4730000495910645 l-0.19099999964237213,-16.382999420166016 c0.06300000101327896,-1.659999966621399 -0.3050000071525574,-3.0179998874664307 -1.1019999980926514,-4.072000026702881 c-0.7990000247955322,-1.0540000200271606 -1.6779999732971191,-1.8680000305175781 -2.634999990463257,-2.443000078201294 c-1.149999976158142,-0.7020000219345093 -2.4609999656677246,-1.1490000486373901 -3.930000066757202,-1.3420000076293945 H314.0838777422905 c-1.4709999561309814,0.1289999932050705 -2.621000051498413,0.527999997138977 -3.4509999752044678,1.1979999542236328 c-0.8299999833106995,0.6710000038146973 -1.468999981880188,1.3569999933242798 -1.9160000085830688,2.059999942779541 c-0.5120000243186951,0.8949999809265137 -0.8610000014305115,1.8539999723434448 -1.0529999732971191,2.875 v15.520999908447266 c-0.06400000303983688,1.277999997138977 0.19099999964237213,2.3949999809265137 0.765999972820282,3.3540000915527344 c0.5740000009536743,0.9570000171661377 1.2130000591278076,1.7869999408721924 1.9160000085830688,2.490000009536743 c0.7680000066757202,0.8299999833106995 1.6929999589920044,1.5640000104904175 2.7790000438690186,2.203000068664551 l15.713000297546387,10.156000137329102 v6.229000091552734 c0,1.2130000591278076 -0.25600001215934753,2.1559998989105225 -0.765999972820282,2.8259999752044678 c-0.5120000243186951,0.671999990940094 -1.0859999656677246,1.1660000085830688 -1.725000023841858,1.4839999675750732 c-0.703000009059906,0.38499999046325684 -1.5329999923706055,0.640999972820282 -2.492000102996826,0.7680000066757202 c-1.2130000591278076,-0.12700000405311584 -2.1389999389648438,-0.39800000190734863 -2.7769999504089355,-0.8140000104904175 c-0.6389999985694885,-0.414000004529953 -1.11899995803833,-0.8769999742507935 -1.437999963760376,-1.3890000581741333 c-0.38499999046325684,-0.5740000009536743 -0.640999972820282,-1.246000051498413 -0.7680000066757202,-2.0139999389648438 v-3.063999891281128 l-11.208999633789062,-6.706999778747559 l-0.19099999964237213,15.713000297546387 c0.06300000101327896,1.8519999980926514 0.46299999952316284,3.2730000019073486 1.1970000267028809,4.263999938964844 s1.5490000247955322,1.7400000095367432 2.443000078201294,2.252000093460083 c1.0210000276565552,0.5740000009536743 2.203000068664551,0.9259999990463257 3.5450000762939453,1.0529999732971191 h18.68400001525879 c1.8519999980926514,-0.06300000101327896 3.240000009536743,-0.4790000021457672 4.168000221252441,-1.24399995803833 c0.9259999990463257,-0.7680000066757202 1.6109999418258667,-1.5980000495910645 2.059000015258789,-2.492000102996826 c0.5120000243186951,-1.0859999656677246 0.7680000066757202,-2.2990000247955322 0.7680000066757202,-3.6410000324249268 V75.37825012207031 c0.06300000101327896,-0.7680000066757202 -0.1289999932050705,-1.5329999923706055 -0.5759999752044678,-2.3010001182556152 c-0.44699999690055847,-0.765999972820282 -0.9570000171661377,-1.4359999895095825 -1.531000018119812,-2.01200008392334 c-0.703000009059906,-0.703000009059906 -1.4709999561309814,-1.3730000257492065 -2.3010001182556152,-2.01200008392334 l-17.05500030517578,-11.019000053405762 v-7.090000152587891 c0.06400000303983688,-1.0859999656677246 0.367000013589859,-1.8839999437332153 0.9100000262260437,-2.3949999809265137 s1.1019999980926514,-0.8949999809265137 1.6779999732971191,-1.149999976158142 C322.16389483213425,47.14524841308594 322.92988604307175,46.98625183105469 323.7598726153374,46.9222412109375 z" id="svg_6" fill-opacity="1"/>
	<path fill="#000000" d="M386.80488604307175,33.50823974609375 v56.9119987487793 c-0.06400000303983688,2.2360000610351562 -0.5270000100135803,4.010000228881836 -1.3890000581741333,5.317999839782715 c-0.8629999756813049,1.3109999895095825 -1.8359999656677246,2.315999984741211 -2.921999931335449,3.0179998874664307 c-1.215000033378601,0.7680000066757202 -2.61899995803833,1.3109999895095825 -4.2170000076293945,1.628999948501587 H350.0139009356499 v-16.28700065612793 h18.011999130249023 v-3.1619999408721924 h-12.263999938964844 c-2.36299991607666,-0.12700000405311584 -4.1519999504089355,-0.703000009059906 -5.364999771118164,-1.725000023841858 c-1.215000033378601,-1.0210000276565552 -2.0759999752044678,-2.171999931335449 -2.5880000591278076,-3.4489998817443848 c-0.6389999985694885,-1.468999981880188 -0.9570000171661377,-3.0980000495910645 -0.9570000171661377,-4.88700008392334 V33.50823974609375 h18.395999908447266 v30.56399917602539 h3.1619999408721924 V33.50823974609375 H386.80488604307175 zM383.64289873838425,37.053253173828125 h-11.592000007629395 v26.158000946044922 c-0.06400000303983688,0.8299999833106995 -0.289000004529953,1.5640000104904175 -0.671999990940094,2.203000068664551 c-0.3199999928474426,0.5740000009536743 -0.8140000104904175,1.0859999656677246 -1.4839999675750732,1.5329999923706055 c-0.671999990940094,0.44699999690055847 -1.6449999809265137,0.703000009059906 -2.921999931335449,0.765999972820282 c-0.9589999914169312,0.06400000303983688 -1.7890000343322754,-0.03099999949336052 -2.492000102996826,-0.28700000047683716 c-0.6389999985694885,-0.25600001215934753 -1.2130000591278076,-0.703000009059906 -1.725000023841858,-1.3420000076293945 s-0.7990000247955322,-1.659999966621399 -0.8610000014305115,-3.065999984741211 v-25.964000701904297 H350.6838838458061 v34.01300048828125 c0.06400000303983688,1.2769999504089355 0.35199999809265137,2.427999973297119 0.8629999756813049,3.4489998817443848 c0.44699999690055847,0.8949999809265137 1.1330000162124634,1.7089999914169312 2.059000015258789,2.443000078201294 s2.2829999923706055,1.1019999980926514 4.072000026702881,1.1019999980926514 h14.277000427246094 v4.98199987411499 c-0.1289999932050705,0.8299999833106995 -0.41600000858306885,1.5640000104904175 -0.8629999756813049,2.203000068664551 c-0.382999986410141,0.5120000243186951 -0.9589999914169312,0.9900000095367432 -1.725000023841858,1.437999963760376 c-0.7680000066757202,0.44699999690055847 -1.7890000343322754,0.671999990940094 -3.065999984741211,0.671999990940094 h-12.838000297546387 v9.484000205993652 h24.43199920654297 c1.0859999656677246,-0.12700000405311584 2.0450000762939453,-0.4449999928474426 2.875,-0.9570000171661377 c0.7009999752044678,-0.44699999690055847 1.3550000190734863,-1.1169999837875366 1.9630000591278076,-2.01200008392334 s0.9100000262260437,-2.1089999675750732 0.9100000262260437,-3.6429998874664307 V37.053253173828125 z" id="svg_7" fill-opacity="1"/>
	<path fill="#000000" d="M411.14289873838425,55.25724792480469 v-2.7780001163482666 c0.06300000101327896,-1.2769999504089355 -0.22499999403953552,-2.0439999103546143 -0.8629999756813049,-2.299999952316284 c-0.25600001215934753,-0.12700000405311584 -0.6069999933242798,-0.12700000405311584 -1.0529999732971191,0 c-0.5120000243186951,0 -0.8790000081062317,0.1120000034570694 -1.1039999723434448,0.335999995470047 c-0.22300000488758087,0.2240000069141388 -0.367000013589859,0.4950000047683716 -0.4300000071525574,0.8140000104904175 c-0.1289999932050705,0.3190000057220459 -0.1289999932050705,0.7020000219345093 0,1.1490000486373901 v3.6410000324249268 l14.753999710083008,9.581999778747559 c1.8519999980926514,1.0210000276565552 3.2730000019073486,2.1070001125335693 4.263999938964844,3.257999897003174 s1.6779999732971191,2.2360000610351562 2.061000108718872,3.257999897003174 c0.44699999690055847,1.149999976158142 0.6700000166893005,2.36299991607666 0.6700000166893005,3.6410000324249268 v14.657999992370605 c-0.12700000405311584,2.1089999675750732 -0.6700000166893005,3.818000078201294 -1.628999948501587,5.126999855041504 c-0.9570000171661377,1.3109999895095825 -2.0429999828338623,2.315999984741211 -3.257999897003174,3.0179998874664307 c-1.4040000438690186,0.8299999833106995 -2.9690001010894775,1.437999963760376 -4.692999839782715,1.8200000524520874 h-19.354999542236328 c-2.427999973297119,-0.06400000303983688 -4.328000068664551,-0.6700000166893005 -5.701000213623047,-1.8200000524520874 c-1.3730000257492065,-1.1480000019073486 -2.378999948501587,-2.36299991607666 -3.0179998874664307,-3.6410000324249268 c-0.765999972820282,-1.5329999923706055 -1.246000051498413,-3.257999897003174 -1.437999963760376,-5.173999786376953 v-21.84600067138672 l17.43899917602539,10.63700008392334 v3.7360000610351562 c0,0.5740000009536743 0.07800000160932541,1.00600004196167 0.23800000548362732,1.2929999828338623 s0.367000013589859,0.4959999918937683 0.6230000257492065,0.6230000257492065 c0.25600001215934753,0.19099999964237213 0.5740000009536743,0.28700000047683716 0.9589999914169312,0.28700000047683716 c0.9570000171661377,-0.06400000303983688 1.5,-0.44699999690055847 1.628999948501587,-1.149999976158142 c0.06300000101327896,-0.2540000081062317 0.03099999949336052,-0.6050000190734863 -0.09600000083446503,-1.0529999732971191 v-4.4079999923706055 l-12.744000434875488,-7.664000034332275 c-2.2360000610351562,-1.2130000591278076 -3.9119999408721924,-2.507999897003174 -5.0289998054504395,-3.88100004196167 c-1.11899995803833,-1.3730000257492065 -1.934000015258789,-2.6040000915527344 -2.443000078201294,-3.688999891281128 c-0.5759999752044678,-1.2769999504089355 -0.8629999756813049,-2.555000066757202 -0.8629999756813049,-3.8320000171661377 v-15.713000297546387 c0.12700000405311584,-2.427000045776367 0.703000009059906,-4.310999870300293 1.725000023841858,-5.6519999504089355 s2.171999931335449,-2.3320000171661377 3.4489998817443848,-2.9709999561309814 c1.468999981880188,-0.7020000219345093 3.0980000495910645,-1.1169999837875366 4.88700008392334,-1.2450000047683716 h17.149999618530273 c2.937999963760376,0.12800000607967377 5.204999923706055,0.6710000038146973 6.802999973297119,1.628999948501587 s2.811000108718872,2.0439999103546143 3.6410000324249268,3.256999969482422 c0.8949999809265137,1.406000018119812 1.468999981880188,2.9709999561309814 1.725000023841858,4.695000171661377 v24.43199920654297 L411.14289873838425,55.25724792480469 zM409.609878718853,46.9222412109375 c1.0210000276565552,0.12800000607967377 1.8049999475479126,0.367000013589859 2.3480000495910645,0.718999981880188 s0.9729999899864197,0.75 1.2929999828338623,1.1970000267028809 c0.3179999887943268,0.5120000243186951 0.5429999828338623,1.0859999656677246 0.6700000166893005,1.725000023841858 v2.7780001163482666 l12.456999778747559,7.4730000495910645 l-0.19300000369548798,-16.382999420166016 c0.06400000303983688,-1.659999966621399 -0.30300000309944153,-3.0179998874664307 -1.1019999980926514,-4.072000026702881 c-0.7990000247955322,-1.0540000200271606 -1.6759999990463257,-1.8680000305175781 -2.634999990463257,-2.443000078201294 c-1.149999976158142,-0.7020000219345093 -2.4590001106262207,-1.1490000486373901 -3.927999973297119,-1.3420000076293945 h-18.58799934387207 c-1.468999981880188,0.1289999932050705 -2.61899995803833,0.527999997138977 -3.4489998817443848,1.1979999542236328 c-0.8299999833106995,0.6710000038146973 -1.468999981880188,1.3569999933242798 -1.9160000085830688,2.059999942779541 c-0.5120000243186951,0.8949999809265137 -0.8629999756813049,1.8539999723434448 -1.0549999475479126,2.875 v15.520999908447266 c-0.06400000303983688,1.277999997138977 0.19099999964237213,2.3949999809265137 0.7680000066757202,3.3540000915527344 c0.5740000009536743,0.9570000171661377 1.2130000591278076,1.7869999408721924 1.9160000085830688,2.490000009536743 c0.765999972820282,0.8299999833106995 1.6929999589920044,1.5640000104904175 2.7790000438690186,2.203000068664551 l15.713000297546387,10.156000137329102 v6.229000091552734 c0,1.2130000591278076 -0.25600001215934753,2.1559998989105225 -0.7680000066757202,2.8259999752044678 c-0.5120000243186951,0.671999990940094 -1.0859999656677246,1.1660000085830688 -1.725000023841858,1.4839999675750732 c-0.703000009059906,0.38499999046325684 -1.5329999923706055,0.640999972820282 -2.490000009536743,0.7680000066757202 c-1.215000033378601,-0.12700000405311584 -2.1410000324249268,-0.39800000190734863 -2.7790000438690186,-0.8140000104904175 c-0.6389999985694885,-0.414000004529953 -1.1169999837875366,-0.8769999742507935 -1.437999963760376,-1.3890000581741333 c-0.382999986410141,-0.5740000009536743 -0.6389999985694885,-1.246000051498413 -0.765999972820282,-2.0139999389648438 v-3.063999891281128 l-11.211000442504883,-6.706999778747559 l-0.19099999964237213,15.713000297546387 c0.06400000303983688,1.8519999980926514 0.46299999952316284,3.2730000019073486 1.1970000267028809,4.263999938964844 s1.5490000247955322,1.7400000095367432 2.443000078201294,2.252000093460083 c1.0210000276565552,0.5740000009536743 2.203000068664551,0.9259999990463257 3.5450000762939453,1.0529999732971191 h18.68400001525879 c1.8519999980926514,-0.06300000101327896 3.242000102996826,-0.4790000021457672 4.168000221252441,-1.24399995803833 c0.9259999990463257,-0.7680000066757202 1.6130000352859497,-1.5980000495910645 2.061000108718872,-2.492000102996826 c0.5099999904632568,-1.0859999656677246 0.765999972820282,-2.2990000247955322 0.765999972820282,-3.6410000324249268 V75.37825012207031 c0.06400000303983688,-0.7680000066757202 -0.12700000405311584,-1.5329999923706055 -0.5740000009536743,-2.3010001182556152 c-0.44699999690055847,-0.765999972820282 -0.9589999914169312,-1.4359999895095825 -1.5329999923706055,-2.01200008392334 c-0.703000009059906,-0.703000009059906 -1.468999981880188,-1.3730000257492065 -2.2990000247955322,-2.01200008392334 l-17.05500030517578,-11.019000053405762 v-7.090000152587891 c0.06300000101327896,-1.0859999656677246 0.367000013589859,-1.8839999437332153 0.9100000262260437,-2.3949999809265137 s1.1019999980926514,-0.8949999809265137 1.6759999990463257,-1.149999976158142 C408.0118867754936,47.14524841308594 408.7798921465874,46.98625183105469 409.609878718853,46.9222412109375 z" id="svg_8" fill-opacity="1"/>
	<path fill="#000000" d="M467.76789873838425,33.699249267578125 v17.437999725341797 h-8.239999771118164 v49.152000427246094 H440.1738740801811 v-49.152000427246094 h-7.85699987411499 v-17.81999969482422 L467.76789873838425,33.699249267578125 zM464.0318757891655,37.14825439453125 h-28.266000747680664 v10.156000137329102 h8.048999786376953 v49.53499984741211 h11.689000129699707 v-49.24800109863281 h8.527000427246094 V37.14825439453125 z" id="svg_9" fill-opacity="1"/>
	<path fill="#000000" d="M489.6138765215874,50.94525146484375 v7.761000156402588 h12.263999938964844 v17.437999725341797 h-12.645999908447266 v7.376999855041504 h12.645999908447266 v17.05500030517578 l-31.138999938964844,-0.19099999964237213 v-67.06800079345703 h31.520999908447266 v17.628999710083008 H489.6138765215874 zM485.8768770098686,62.251251220703125 v-14.85099983215332 h12.645999908447266 v-10.156000137329102 h-24.239999771118164 v60.55400085449219 h24.239999771118164 v-10.635000228881836 h-12.838000297546387 v-14.564000129699707 h13.029000282287598 v-10.347999572753906 H485.8768770098686 z" id="svg_10" fill-opacity="1"/>
	<path fill="#000000" d="M563.2919465899467,35.76025390625 c1.2769999504089355,1.0540000200271606 2.171999931335449,2.1549999713897705 2.684000015258789,3.305000066757202 c0.6389999985694885,1.3420000076293945 0.9259999990463257,2.812000036239624 0.8610000014305115,4.4070000648498535 v57.20000076293945 h-18.204999923706055 v-48.09700012207031 c-0.06400000303983688,-0.7020000219345093 -0.3179999887943268,-1.1490000486373901 -0.765999972820282,-1.340999960899353 c-0.25600001215934753,-0.06400000303983688 -0.5120000243186951,-0.09700000286102295 -0.7680000066757202,-0.09700000286102295 c-0.382999986410141,0 -0.6859999895095825,0.09700000286102295 -0.9100000262260437,0.2879999876022339 c-0.22300000488758087,0.19099999964237213 -0.39800000190734863,0.382999986410141 -0.5249999761581421,0.5740000009536743 c-0.19300000369548798,0.25600001215934753 -0.289000004529953,0.5120000243186951 -0.289000004529953,0.7670000195503235 v47.7140007019043 H527.3629915118217 v-47.61899948120117 c0,-0.7020000219345093 -0.25600001215934753,-1.2450000047683716 -0.765999972820282,-1.628000020980835 c-0.25600001215934753,-0.19099999964237213 -0.5120000243186951,-0.3190000057220459 -0.7680000066757202,-0.3840000033378601 c-0.44699999690055847,0 -0.7990000247955322,0.09700000286102295 -1.0549999475479126,0.2879999876022339 s-0.44699999690055847,0.41499999165534973 -0.5740000009536743,0.6700000166893005 c-0.19099999964237213,0.25600001215934753 -0.28700000047683716,0.574999988079071 -0.28700000047683716,0.9580000042915344 v47.426998138427734 h-17.437999725341797 v-66.78099822998047 h22.323999404907227 c1.4040000438690186,-0.12800000607967377 2.634999990463257,-0.017000000923871994 3.687999963760376,0.33500000834465027 c1.0549999475479126,0.35199999809265137 1.965000033378601,0.7829999923706055 2.7320001125335693,1.2940000295639038 c0.8299999833106995,0.574999988079071 1.5959999561309814,1.246000051498413 2.2990000247955322,2.01200008392334 c0.382999986410141,-0.7020000219345093 0.8610000014305115,-1.2610000371932983 1.437999963760376,-1.6770000457763672 c0.5740000009536743,-0.41499999165534973 1.1480000019073486,-0.75 1.725000023841858,-1.00600004196167 c0.6389999985694885,-0.25600001215934753 1.309000015258789,-0.4790000021457672 2.01200008392334,-0.6710000038146973 h15.043000221252441 C560.1609651446342,34.01924133300781 562.0149690508842,34.70625305175781 563.2919465899467,35.76025390625 zM563.4839631915092,42.99324035644531 c-0.06400000303983688,-1.0859999656677246 -0.3179999887943268,-2.0439999103546143 -0.765999972820282,-2.874000072479248 c-0.38499999046325684,-0.703000009059906 -1.0390000343322754,-1.3569999933242798 -1.965000033378601,-1.965000033378601 c-0.9259999990463257,-0.6060000061988831 -2.2209999561309814,-0.9100000262260437 -3.88100004196167,-0.9100000262260437 h-13.125 c-1.0230000019073486,0.06400000303983688 -1.9800000190734863,0.3190000057220459 -2.875,0.7670000195503235 c-0.7680000066757202,0.3840000033378601 -1.5490000247955322,0.9589999914169312 -2.3480000495910645,1.725000023841858 c-0.7990000247955322,0.7670000195503235 -1.4220000505447388,1.7890000343322754 -1.86899995803833,3.065999984741211 c-0.5120000243186951,-1.2130000591278076 -1.1169999837875366,-2.2679998874664307 -1.8200000524520874,-3.1619999408721924 c-0.703000009059906,-0.765999972820282 -1.5640000104904175,-1.468999981880188 -2.5859999656677246,-2.1070001125335693 c-1.0230000019073486,-0.6389999985694885 -2.365000009536743,-0.9269999861717224 -4.025000095367432,-0.8619999885559082 l-17.916000366210938,0.19099999964237213 v59.97800064086914 H520.9429475665092 v-44.457000732421875 c-0.06400000303983688,-0.8949999809265137 0.09600000083446503,-1.6920000314712524 0.4790000021457672,-2.3959999084472656 c0.3199999928474426,-0.6389999985694885 0.8479999899864197,-1.2130000591278076 1.5820000171661377,-1.725000023841858 c0.734000027179718,-0.5109999775886536 1.8359999656677246,-0.7670000195503235 3.305000066757202,-0.7670000195503235 c0.7680000066757202,0 1.5019999742507935,0.19200000166893005 2.2049999237060547,0.574999988079071 c0.5099999904632568,0.3190000057220459 1.00600004196167,0.878000020980835 1.4839999675750732,1.6770000457763672 s0.718999981880188,1.9639999866485596 0.718999981880188,3.496999979019165 v43.59400177001953 h11.307000160217285 v-44.457000732421875 c0,-0.765999972820282 0.19099999964237213,-1.5010000467300415 0.5740000009536743,-2.2039999961853027 c0.3179999887943268,-0.5740000009536743 0.8299999833106995,-1.1019999980926514 1.5329999923706055,-1.5800000429153442 c0.7009999752044678,-0.4790000021457672 1.75600004196167,-0.718999981880188 3.1619999408721924,-0.718999981880188 c0.765999972820282,-0.06300000101327896 1.5,0.03200000151991844 2.203000068664551,0.28700000047683716 c0.5740000009536743,0.25600001215934753 1.1019999980926514,0.703000009059906 1.5800000429153442,1.3420000076293945 s0.718999981880188,1.6610000133514404 0.718999981880188,3.065000057220459 v44.26499938964844 h11.689000129699707 V42.99324035644531 z" id="svg_11" fill-opacity="1"/>
</g><polygon fill="#000000" points="127.44343584775925,-0.15375322103500366 139.17642229795456,-0.15375322103500366 139.17642229795456,3.9352495670318604 131.55442827939987,3.9352495670318604 131.55442827939987,8.895248413085938 139.17642229795456,8.895248413085938 139.17642229795456,13.116241455078125 131.55442827939987,13.116241455078125 131.55442827939987,21.9322509765625 127.44343584775925,21.9322509765625 " id="svg_12" class="" fill-opacity="1"/><path fill="#000000" d="M152.5194246172905,21.9322509765625 h-3.996999979019165 v-3.438999891281128 h-7.742000102996826 l-2.2939999103546143,3.438999891281128 h-4.706999778747559 l15.484999656677246,-22.086000442504883 h3.255000114440918 V21.9322509765625 zM148.5224305987358,14.32025146484375 v-6.443999767303467 l-4.729000091552734,6.443999767303467 H148.5224305987358 z" id="svg_13" class="" fill-opacity="1"/><polygon fill="#000000" points="154.08642596006393,-0.15375322103500366 158.722427546978,-0.15375322103500366 165.25943011045456,14.692245483398438 171.8424226641655,-0.15375322103500366 176.52543658018112,-0.15375322103500366 176.52543658018112,21.9322509765625 172.39842242002487,21.9322509765625 172.39842242002487,10.797248840332031 167.29942339658737,21.9322509765625 163.1264345049858,21.9322509765625 158.21243304014206,10.797248840332031 158.21243304014206,21.9322509765625 154.08642596006393,21.9322509765625 " id="svg_14" class="" fill-opacity="1"/><polygon fill="#000000" points="253.46279925107956,-0.15375322103500366 258.0998994708061,-0.15375322103500366 264.6358796954155,14.692245483398438 271.2198945879936,-0.15375322103500366 275.9028779864311,-0.15375322103500366 275.9028779864311,21.9322509765625 271.775894343853,21.9322509765625 271.775894343853,10.797248840332031 266.6758882403374,21.9322509765625 262.5038911700249,21.9322509765625 257.588882625103,10.797248840332031 257.588882625103,21.9322509765625 253.46279925107956,21.9322509765625 " id="svg_15" class="" fill-opacity="1"/><rect x="177.82643681764603" y="-0.15371370315551758" fill="#000000" width="4.270999908447266" height="22.086000442504883" id="svg_16" class="" fill-opacity="1"/><polygon fill="#000000" points="183.27342242002487,-0.15375322103500366 187.5434266924858,-0.15375322103500366 187.5434266924858,17.905242919921875 193.10842913389206,17.905242919921875 193.10842913389206,21.9322509765625 183.27342242002487,21.9322509765625 " id="svg_17" class="" fill-opacity="1"/><polygon fill="#000000" points="188.36343401670456,-0.15375322103500366 193.10842913389206,-0.15375322103500366 197.59443682432175,8.895248413085938 201.951431453228,-0.15375322103500366 206.65342730283737,-0.15375322103500366 199.57843035459518,13.894241333007812 199.57843035459518,21.9322509765625 195.43843096494675,21.9322509765625 195.43843096494675,13.894241333007812 " id="svg_18" class="" fill-opacity="1"/><path fill="#706365" stroke="#231F20" stroke-width="0.3451" d="M245.582,133.402" id="svg_19"/><path fill="#000000" d="M229.86442583799362,5.937248229980469 c-1.875,-3.572999954223633 -5.620999813079834,-6.011000156402588 -9.937000274658203,-6.011000156402588 c-6.193999767303467,0 -11.215999603271484,5.020999908447266 -11.215999603271484,11.215999603271484 c0,6.195000171661377 5.020999908447266,11.21500015258789 11.215999603271484,11.21500015258789 c4.3460001945495605,0 8.114999771118164,-2.4719998836517334 9.97700023651123,-6.086999893188477 l-5.081999778747559,0.041999999433755875 c-1.253000020980835,1.1549999713897705 -2.927000045776367,1.8609999418258667 -4.765999794006348,1.8609999418258667 c-3.884000062942505,0 -7.031000137329102,-3.1480000019073486 -7.031000137329102,-7.0320000648498535 s3.1470000743865967,-7.031000137329102 7.031000137329102,-7.031000137329102 c1.812999963760376,0 3.4660000801086426,0.6859999895095825 4.711999893188477,1.812999963760376 L229.86442583799362,5.937248229980469 z" id="svg_20" class="" fill-opacity="1"/><path fill="#000000" d="M240.96243304014206,22.416244506835938 c-6.22599983215332,0 -11.27299976348877,-5.047999858856201 -11.27299976348877,-11.27400016784668 c0,-6.22599983215332 5.047999858856201,-11.27400016784668 11.27299976348877,-11.27400016784668 c6.228000164031982,0 11.274999618530273,5.047999858856201 11.274999618530273,11.27400016784668 C252.23876971006393,17.369247436523438 247.19061297178268,22.416244506835938 240.96243304014206,22.416244506835938 zM248.14065569639206,11.142242431640625 c0,-3.938999891281128 -3.194999933242798,-7.132999897003174 -7.133999824523926,-7.132999897003174 c-3.938999891281128,0 -7.132999897003174,3.194000005722046 -7.132999897003174,7.132999897003174 s3.193000078201294,7.132999897003174 7.132999897003174,7.132999897003174 C244.94555681943893,18.275253295898438 248.14065569639206,15.081253051757812 248.14065569639206,11.142242431640625 z" id="svg_21" class="" fill-opacity="1"/><path fill="#000000" d="M284.6978914141655,-0.15074723958969116 c3.736999988555908,0.30000001192092896 6.677000045776367,3.428999900817871 6.677000045776367,7.24399995803833 c0,3.813999891281128 -2.938999891281128,6.942999839782715 -6.677000045776367,7.243000030517578 l-3.2290000915527344,-0.014999999664723873 v7.611000061035156 h-4.140999794006348 v-22.086000442504883 h4.140999794006348 L284.6978914141655,-0.15074723958969116 zM281.4698945879936,4.0972442626953125 v5.991000175476074 l3.2290000915527344,-0.003000000026077032 c1.4119999408721924,-0.2639999985694885 2.4809999465942383,-1.503000020980835 2.4809999465942383,-2.992000102996826 c0,-1.4900000095367432 -1.069000005722046,-2.7290000915527344 -2.4809999465942383,-2.993000030517578 L281.4698945879936,4.0972442626953125 z" id="svg_22" class="" fill-opacity="1"/><path fill="#000000" d="M336.87190264463425,22.219253540039062 h-4.098999977111816 v-22.183000564575195 l5.695000171661377,-0.00800000037997961 l3.2279999256134033,0.0020000000949949026 c3.736999988555908,0.30000001192092896 6.677000045776367,3.428999900817871 6.677000045776367,7.24399995803833 c0,3.115999937057495 -1.9630000591278076,5.775000095367432 -4.718999862670898,6.807000160217285 l4.7779998779296875,8.13700008392334 h-4.485000133514404 l-6.697000026702881,-11.442000389099121 h-0.3779999911785126 V22.219253540039062 zM334.3268892168999,22.114242553710938 M338.4688875079155,22.114242553710938 M341.6978914141655,10.266250610351562 c1.4119999408721924,-0.2639999985694885 2.4809999465942383,-1.503999948501587 2.4809999465942383,-2.992000102996826 c0,-1.4900000095367432 -1.069000005722046,-2.7290000915527344 -2.4809999465942383,-2.993000030517578 h-4.824999809265137 v5.988999843597412 L341.6978914141655,10.266250610351562 z" id="svg_23" class="" fill-opacity="1"/><path fill="#000000" d="M302.77388018369675,8.46624755859375 M302.77388018369675,8.46624755859375 M296.786880671978,8.46624755859375 M296.7718965411186,12.608245849609375 M296.7718965411186,12.608245849609375 l0.003000000026077032,3.2290000915527344 c0.26499998569488525,1.4129999876022339 1.503000020980835,2.4809999465942383 2.992000102996826,2.4809999465942383 s2.7290000915527344,-1.069000005722046 2.993000030517578,-2.4809999465942383 l0.003000000026077032,-3.2290000915527344 l0.010999999940395355,-12.571000099182129 h4.239999771118164 v12.571000099182129 l-0.004000000189989805,3.2290000915527344 c-0.30000001192092896,3.73799991607666 -3.427999973297119,6.676000118255615 -7.243000030517578,6.676000118255615 c-3.813999891281128,0 -6.941999912261963,-2.937999963760376 -7.243000030517578,-6.676000118255615 l0.014999999664723873,-3.2290000915527344 l-0.007000000216066837,-12.571000099182129 h4.25600004196167 L296.7718965411186,12.608245849609375 z" id="svg_24" class="" fill-opacity="1"/><polygon fill="#000000" points="311.2488862872124,22.219253540039062 315.4338838458061,22.219253540039062 315.4338838458061,4.217247009277344 319.1858980059624,4.217247009277344 319.1858980059624,0.03624904155731201 307.6248933672905,0.03624904155731201 307.6248933672905,4.217247009277344 311.2488862872124,4.217247009277344 " id="svg_25" class="" fill-opacity="1"/><polygon fill="#000000" points="331.69587725400925,22.219253540039062 320.1988984942436,22.219253540039062 320.1988984942436,0.03624904155731201 331.69587725400925,0.03624904155731201 331.69587725400925,4.0972442626953125 324.31990069150925,4.0972442626953125 324.31990069150925,9.364250183105469 331.69587725400925,9.364250183105469 331.69587725400925,13.506240844726562 324.31990069150925,13.506240844726562 324.31990069150925,18.121246337890625 331.69587725400925,18.121246337890625 " id="svg_26" class="" fill-opacity="1"/><path fill="#706365" stroke="#231F20" stroke-width="0.3451" d="M352.528,127.969" id="svg_27"/><g id="svg_28" class="">
	<g id="svg_29">
		<path fill="#FDBC1C" d="M56.078430354595184,86.68124389648438 c6.3379998207092285,0 11.47700023651123,5.13700008392334 11.47700023651123,11.475000381469727 h30.340999603271484 c4.948999881744385,0 8.961000442504883,-4.01200008392334 8.961000442504883,-8.958999633789062 c0,-4.067999839782715 -2.7119998931884766,-7.50600004196167 -6.426000118255615,-8.600000381469727 l-0.020999999716877937,-0.039000000804662704 c0,-2.811000108718872 0,-5.876999855041504 0,-9.312999725341797 l0.04500000178813934,-0.09700000286102295 c5.533999919891357,-2.4800000190734863 9.387999534606934,-8.038000106811523 9.387999534606934,-14.494999885559082 c0,-6.423999786376953 -3.815999984741211,-11.958999633789062 -9.305999755859375,-14.458000183105469 l-0.12700000405311584,-0.08299999684095383 c0,-14.468999862670898 0,-27.018999099731445 0,-29.31999969482422 c0,-5.644000053405762 -4.574999809265137,-10.218999862670898 -10.218000411987305,-10.218999862670898 H21.859428584575653 c-5.644000053405762,0 -10.218999862670898,4.574999809265137 -10.218999862670898,10.218999862670898 c0,2.3010001182556152 0,14.85099983215332 0,29.31999969482422 l-0.12600000202655792,0.08299999684095383 c-5.489999771118164,2.499000072479248 -9.307000160217285,8.034000396728516 -9.307000160217285,14.458000183105469 c0,6.456999778747559 3.8540000915527344,12.015000343322754 9.387999534606934,14.494999885559082 l0.04500000178813934,0.09700000286102295 c0,3.437000036239624 0,6.502999782562256 0,9.312999725341797 l-0.019999999552965164,0.039000000804662704 c-3.7139999866485596,1.093999981880188 -6.426000118255615,4.531000137329102 -6.426000118255615,8.600000381469727 c0,4.947000026702881 4.013000011444092,8.958999633789062 8.961000442504883,8.958999633789062 h30.340999603271484 c0,-6.3379998207092285 5.138000011444092,-11.475000381469727 11.47700023651123,-11.475000381469727 H56.078430354595184 z" id="svg_30"/>
		<path d="M2.6784293055534363,89.19725036621094 c0.004999999888241291,-4.534999847412109 2.627000093460083,-8.454999923706055 6.445000171661377,-10.319000244140625 l0,0 c0,-1.9210000038146973 0,-3.9639999866485596 0,-6.1570000648498535 l0,0 c-5.625999927520752,-3.1449999809265137 -9.430000305175781,-9.163999557495117 -9.432000160217285,-16.066999435424805 l0,0 c0.0020000000949949026,-6.9029998779296875 3.805999994277954,-12.92300033569336 9.432000160217285,-16.06599998474121 l0,0 c0,-13.819999694824219 0,-25.576000213623047 0,-27.795000076293945 l0,0 c0.003000000026077032,-7.033999919891357 5.701000213623047,-12.732999801635742 12.734000205993652,-12.734000205993652 l0,0 h68.33300018310547 c7.033999919891357,0.0010000000474974513 12.732999801635742,5.701000213623047 12.734000205993652,12.734000205993652 l0,0 c0,2.2190001010894775 0,13.97700023651123 0,27.795000076293945 l0,0 c5.625999927520752,3.1429998874664307 9.430000305175781,9.163000106811523 9.432000160217285,16.06599998474121 l0,0 c-0.0020000000949949026,6.9029998779296875 -3.805000066757202,12.92300033569336 -9.432000160217285,16.066999435424805 l0,0 c0,2.193000078201294 0,4.236000061035156 0,6.1570000648498535 l0,0 c3.819000005722046,1.8639999628067017 6.441999912261963,5.783999919891357 6.445000171661377,10.319000244140625 l0,0 c-0.0010000000474974513,6.3379998207092285 -5.136000156402588,11.472999572753906 -11.47599983215332,11.475000381469727 l0,0 H65.03942888975143 v-2.5160000324249268 c-0.008999999612569809,-4.947000026702881 -4.013000011444092,-8.951000213623047 -8.960000038146973,-8.961000442504883 l0,0 v-2.5160000324249268 v-2.5160000324249268 c6.86899995803833,0.0020000000949949026 12.579999923706055,4.951000213623047 13.765000343322754,11.479000091552734 l0,0 h28.052000045776367 c3.558000087738037,-0.00800000037997961 6.439000129699707,-2.8889999389648438 6.443999767303467,-6.445000171661377 l0,0 c0.004999999888241291,-2.927999973297119 -1.9559999704360962,-5.3979997634887695 -4.619999885559082,-6.185999870300293 l0,0 l-1.0420000553131104,-0.3070000112056732 l-0.7829999923706055,-1.5449999570846558 v-0.6019999980926514 c-0.0010000000474974513,-2.812000036239624 -0.0010000000474974513,-5.879000186920166 -0.0010000000474974513,-9.314000129699707 l0,0 v-0.5600000023841858 l0.6790000200271606,-1.4500000476837158 l0.8539999723434448,-0.38100001215934753 c4.6570000648498535,-2.0920000076293945 7.9029998779296875,-6.763999938964844 7.901000022888184,-12.199999809265137 l0,0 c0.0020000000949949026,-5.409999847412109 -3.2130000591278076,-10.062000274658203 -7.833000183105469,-12.168999671936035 l0,0 l-0.18299999833106995,-0.08299999684095383 l-1.4179999828338623,-0.9369999766349792 v-1.3519999980926514 c0,-14.470000267028809 0,-27.018999099731445 0,-29.31999969482422 l0,0 c-0.00800000037997961,-4.254000186920166 -3.4489998817443848,-7.695000171661377 -7.703000068664551,-7.703999996185303 l0,0 H21.85842913389206 c-4.254000186920166,0.00800000037997961 -7.695000171661377,3.450000047683716 -7.703000068664551,7.703999996185303 l0,0 c0,2.3010001182556152 0,14.85099983215332 0,29.31999969482422 l0,0 v1.3519999980926514 l-1.128999948501587,0.7459999918937683 l-0.29100000858306885,0.19200000166893005 l-0.18000000715255737,0.0820000022649765 c-4.620999813079834,2.1080000400543213 -7.835000038146973,6.760000228881836 -7.833000183105469,12.168999671936035 l0,0 c-0.003000000026077032,5.436999797821045 3.24399995803833,10.107999801635742 7.901000022888184,12.199999809265137 l0,0 l0.8519999980926514,0.38100001215934753 l0.6790000200271606,1.4500000476837158 v0.5600000023841858 c0,3.436000108718872 0,6.502999782562256 0,9.314000129699707 l0,0 v0.6019999980926514 l-0.7839999794960022,1.5449999570846558 l-1.0420000553131104,0.3070000112056732 c-2.6649999618530273,0.7870000004768372 -4.625,3.257999897003174 -4.619999885559082,6.185999870300293 l0,0 c0.004999999888241291,3.556999921798706 2.885999917984009,6.438000202178955 6.445000171661377,6.445000171661377 l0,0 h28.051000595092773 c1.187000036239624,-6.5269999504089355 6.896999835968018,-11.47700023651123 13.767000198364258,-11.479000091552734 l0,0 h0.10499999672174454 v2.5160000324249268 v2.5160000324249268 H55.97342699766159 c-4.948999881744385,0.009999999776482582 -8.95199966430664,4.013999938964844 -8.961000442504883,8.961000442504883 l0,0 v2.5160000324249268 H14.156429469585419 C7.817430675029755,100.66925048828125 2.6804301142692566,95.53524780273438 2.6784293055534363,89.19725036621094 L2.6784293055534363,89.19725036621094 z" id="svg_31"/>
	</g>
	<path fill="#EC1C4E" d="M11.640430629253387,91.50125122070312 " id="svg_32"/>
	<path d="M16.303428828716278,38.15425109863281 c0.0010000000474974513,-10.447999954223633 8.470000267028809,-18.916000366210938 18.917999267578125,-18.91699981689453 l0,0 c10.447999954223633,0.0010000000474974513 18.91699981689453,8.468999862670898 18.91699981689453,18.91699981689453 l0,0 c-0.0010000000474974513,10.447999954223633 -8.470000267028809,18.916000366210938 -18.91699981689453,18.916000366210938 l0,0 C24.774429500102997,57.07025146484375 16.3054296374321,48.60224914550781 16.303428828716278,38.15425109863281 L16.303428828716278,38.15425109863281 zM19.44842928647995,38.15425109863281 c0.014999999664723873,8.711999893188477 7.061999797821045,15.756999969482422 15.77299976348877,15.772000312805176 l0,0 c8.711000442504883,-0.014999999664723873 15.758000373840332,-7.060999870300293 15.77299976348877,-15.772000312805176 l0,0 c-0.01600000075995922,-8.710000038146973 -7.063000202178955,-15.756999969482422 -15.77299976348877,-15.77299976348877 l0,0 C26.510429561138153,22.397247314453125 19.463428676128387,29.444244384765625 19.44842928647995,38.15425109863281 L19.44842928647995,38.15425109863281 z" id="svg_33"/>
	<circle cx="47.43243581056595" cy="38.208293437957764" r="4.401973724365234" id="svg_34"/>
	<path d="M57.91242998838425,38.15425109863281 L57.91242998838425,38.15425109863281 c0,-10.447999954223633 8.468999862670898,-18.916000366210938 18.91699981689453,-18.91699981689453 l0,0 c10.446999549865723,0.0010000000474974513 18.916000366210938,8.468999862670898 18.91699981689453,18.91699981689453 l0,0 c-0.0010000000474974513,10.447999954223633 -8.470000267028809,18.916000366210938 -18.91699981689453,18.916000366210938 l0,0 C66.38143175840378,57.07025146484375 57.91242998838425,48.60224914550781 57.91242998838425,38.15425109863281 L57.91242998838425,38.15425109863281 zM76.82942980527878,53.92724609375 c8.710000038146973,-0.014999999664723873 15.756999969482422,-7.060999870300293 15.772000312805176,-15.772000312805176 l0,0 c-0.01600000075995922,-8.710000038146973 -7.061999797821045,-15.756999969482422 -15.772000312805176,-15.77299976348877 l0,0 c-8.710000038146973,0.01600000075995922 -15.758999824523926,7.063000202178955 -15.77400016784668,15.77299976348877 l0,0 C61.0714265704155,46.866241455078125 68.11943072080612,53.91123962402344 76.82942980527878,53.92724609375 L76.82942980527878,53.92724609375 z" id="svg_35"/>
	<circle cx="64.61943608522415" cy="38.208293437957764" r="4.401985168457031" id="svg_36"/>
</g></g></svg>